<svg xmlns="http://www.w3.org/2000/svg" viewBox="0 0 28 22" width="28" height="22">
	<style>
		tspan { white-space:pre }
		.shp0 { fill: #ffffff } 
	</style>
	<path id="Layer" fill-rule="evenodd" class="shp0" d="M24.57 0C24.93 0 25.28 0.07 25.61 0.21C25.94 0.35 26.24 0.55 26.5 0.8C26.75 1.05 26.95 1.35 27.09 1.69C27.23 2.02 27.3 2.37 27.3 2.73L27.3 19.11C27.3 19.47 27.23 19.82 27.09 20.15C26.95 20.48 26.75 20.78 26.5 21.04C26.24 21.29 25.94 21.49 25.61 21.63C25.28 21.77 24.93 21.84 24.57 21.84L2.73 21.84C2.37 21.84 2.02 21.77 1.69 21.63C1.35 21.49 1.05 21.29 0.8 21.04C0.55 20.78 0.35 20.48 0.21 20.15C0.07 19.82 0 19.47 0 19.11L0 2.73C0 2.37 0.07 2.02 0.21 1.69C0.35 1.35 0.55 1.05 0.8 0.8C1.05 0.55 1.35 0.35 1.69 0.21C2.02 0.07 2.37 0 2.73 0L24.57 0ZM2.73 2.74L13.65 9.55L24.57 2.74L24.57 2.73L2.73 2.73L2.73 2.74ZM2.73 19.11L24.57 19.11L24.57 5.47L13.65 12.28L2.73 5.46L2.73 19.11Z" />
</svg>