<svg width="92" height="93" viewBox="0 0 92 93" fill="none" xmlns="http://www.w3.org/2000/svg">
<path d="M92 18.4802V12.3468C92 11.4268 91.3867 10.8135 90.4667 10.8135H87.7067L89.5467 8.97351C90.16 8.36018 90.16 7.44018 89.5467 6.82684L85.2533 2.53351C84.64 1.92018 83.72 1.92018 83.1067 2.53351L81.2667 4.37351V1.61351C81.2667 0.693509 80.6533 0.0801751 79.7333 0.0801751H73.6C72.68 0.0801751 72.0667 0.693509 72.0667 1.61351V4.37351L70.2267 2.53351C69.6133 1.92018 68.6933 1.92018 68.08 2.53351L63.7867 6.82684C63.1733 7.44018 63.1733 8.36018 63.7867 8.97351L65.6267 10.8135H62.8667C61.9467 10.8135 61.3333 11.4268 61.3333 12.3468V13.8802H46C45.08 13.8802 44.4667 14.4935 44.4667 15.4135V26.1468C41.0933 26.3002 33.7333 27.0668 33.7333 30.7468V35.3468H16.8667V20.0135H26.0667C29.44 20.0135 32.2 17.2535 32.2 13.8802C32.2 10.5068 29.44 7.74684 26.0667 7.74684C25.76 7.74684 25.4533 7.74684 25.3 7.74684C24.38 6.06018 22.6933 4.98684 20.8533 4.68018C19.1667 0.846842 14.72 -0.993158 10.8867 0.540175C7.97333 1.92018 6.13333 4.68018 6.13333 7.74684C2.76 7.74684 0 10.5068 0 13.8802C0 17.2535 2.76 20.0135 6.13333 20.0135H13.8V36.8802C13.8 37.8002 14.4133 38.4135 15.3333 38.4135H33.7333V58.3468C33.7333 62.0268 41.0933 62.7935 44.4667 62.9468V78.2802H27.6V70.6135C27.6 70.1535 27.4467 69.8468 27.14 69.5402L19.4733 61.8735C19.1667 61.5668 18.86 61.4135 18.4 61.4135H1.53333C0.613333 61.4135 0 62.0268 0 62.9468V90.5468C0 91.4669 0.613333 92.0802 1.53333 92.0802H26.0667C26.9867 92.0802 27.6 91.4669 27.6 90.5468V81.3468H46C46.92 81.3468 47.5333 80.7335 47.5333 79.8135V62.9468C50.9067 62.7935 58.2667 62.0268 58.2667 58.3468V47.6135H72.0667V66.0135H62.8667C61.9467 66.0135 61.3333 66.6268 61.3333 67.5468V90.5468C61.3333 91.4669 61.9467 92.0802 62.8667 92.0802H90.4667C91.3867 92.0802 92 91.4669 92 90.5468V64.4802C92 63.5602 91.3867 62.9468 90.4667 62.9468H79.7333C79.2733 62.9468 78.9667 63.1002 78.66 63.4068L76.0533 66.0135H75.1333V46.0802C75.1333 45.1602 74.52 44.5468 73.6 44.5468H58.2667V30.7468C58.2667 27.0668 50.9067 26.3002 47.5333 26.1468V16.9468H61.3333V18.4802C61.3333 19.4002 61.9467 20.0135 62.8667 20.0135H65.6267L63.7867 21.8535C63.1733 22.4668 63.1733 23.3868 63.7867 24.0002L68.08 28.2935C68.6933 28.9068 69.6133 28.9068 70.2267 28.2935L72.0667 26.4535V29.2135C72.0667 30.1335 72.68 30.7468 73.6 30.7468H79.7333C80.6533 30.7468 81.2667 30.1335 81.2667 29.2135V26.4535L83.1067 28.2935C83.72 28.9068 84.64 28.9068 85.2533 28.2935L89.5467 24.0002C90.16 23.3868 90.16 22.4668 89.5467 21.8535L87.7067 20.0135H90.4667C91.3867 20.0135 92 19.4002 92 18.4802ZM3.06667 13.8802C3.06667 12.1935 4.44667 10.8135 6.13333 10.8135C6.59333 10.8135 7.05333 10.9668 7.36 11.1202C8.12667 11.4268 9.04667 11.1202 9.35333 10.3535C9.50667 10.0468 9.50667 9.58684 9.35333 9.28018C8.58667 6.82684 9.96667 4.37351 12.42 3.60684C14.8733 2.84018 17.3267 4.22018 18.0933 6.67351V6.82684C18.4 7.28684 19.0133 7.74684 19.78 7.74684C19.9333 7.74684 19.9333 7.74684 19.9333 7.74684C21.3133 7.74684 22.54 8.66684 22.8467 10.0468C23 10.8135 23.92 11.2735 24.6867 11.1202H24.84C26.3733 10.5068 28.2133 11.2735 28.8267 12.8068C29.44 14.3402 28.6733 16.1802 27.14 16.7935C26.8333 16.9468 26.5267 16.9468 26.0667 16.9468H6.13333C4.44667 16.9468 3.06667 15.5668 3.06667 13.8802ZM19.9333 66.6268L22.3867 69.0802H19.9333V66.6268ZM3.06667 89.0135V64.4802H16.8667V70.6135C16.8667 71.5335 17.48 72.1468 18.4 72.1468H24.5333V89.0135H3.06667ZM88.9333 89.0135H64.4V75.2135H88.9333V89.0135ZM76.6667 69.0802C77.1267 69.0802 77.4333 68.9268 77.74 68.6202L80.3467 66.0135H88.9333V72.1468H64.4V69.0802H76.6667ZM55.2 39.7935C54.5867 40.4068 51.3667 41.4802 46 41.4802C40.6333 41.4802 37.4133 40.4068 36.8 39.7935V33.9668C42.78 35.8068 49.22 35.8068 55.2 33.9668V39.7935ZM36.8 43.1668C42.78 45.0068 49.22 45.0068 55.2 43.1668V48.9935C54.5867 49.6068 51.3667 50.6802 46 50.6802C40.6333 50.6802 37.4133 49.6068 36.8 48.9935V43.1668ZM46 59.8802C40.6333 59.8802 37.4133 58.8068 36.8 58.1935V52.3668C42.78 54.2068 49.22 54.2068 55.2 52.3668V58.1935C54.5867 58.8068 51.3667 59.8802 46 59.8802ZM46 32.2802C42.9333 32.4335 39.8667 31.9735 37.1067 30.7468C39.8667 29.5202 42.9333 29.0602 46 29.2135C49.0667 29.0602 52.1333 29.5202 54.8933 30.7468C52.1333 31.9735 49.0667 32.4335 46 32.2802ZM88.9333 16.9468H85.4067C84.7933 16.9468 84.18 17.4068 84.0267 18.0202C83.8733 18.3268 83.8733 18.4802 83.72 18.7868C83.4133 19.4002 83.5667 20.0135 84.0267 20.4735L86.6333 23.0802L84.3333 25.2268L81.7267 22.6202C81.2667 22.1602 80.5 22.0068 80.04 22.3135C79.7333 22.4668 79.58 22.4668 79.2733 22.6202C78.66 22.7735 78.2 23.3868 78.2 24.0002V27.6802H75.1333V24.1535C75.1333 23.5402 74.6733 22.9268 74.06 22.7735C73.7533 22.6202 73.6 22.6202 73.2933 22.4668C72.68 22.1602 72.0667 22.3135 71.6067 22.7735L69 25.2268L66.8533 23.0802L69.46 20.4735C69.92 20.0135 70.0733 19.2468 69.7667 18.7868C69.6133 18.4802 69.6133 18.3268 69.46 18.0202C69.3067 17.4068 68.6933 16.9468 67.9267 16.9468H64.4V13.8802H67.9267C68.54 13.8802 69.1533 13.4202 69.3067 12.8068C69.46 12.5002 69.46 12.3468 69.6133 12.0402C69.92 11.4268 69.7667 10.8135 69.3067 10.3535L66.7 7.74684L69 5.60018L71.6067 8.20684C72.0667 8.66684 72.8333 8.82018 73.2933 8.51351C73.6 8.36018 73.7533 8.36018 74.06 8.20684C74.6733 8.05351 75.1333 7.44018 75.1333 6.67351V3.14684H78.2V6.67351C78.2 7.28684 78.66 7.90018 79.2733 8.05351C79.58 8.20684 79.7333 8.20684 80.04 8.36018C80.6533 8.66684 81.2667 8.51351 81.7267 8.05351L84.3333 5.60018L86.48 7.74684L83.8733 10.3535C83.4133 10.8135 83.26 11.5802 83.5667 12.0402C83.72 12.3468 83.72 12.5002 83.8733 12.8068C84.0267 13.4202 84.64 13.8802 85.2533 13.8802H88.9333V16.9468Z" fill="#86B1F2"/>
<path d="M76.6665 9.28015C73.2932 9.28015 70.5332 12.0402 70.5332 15.4135C70.5332 18.7868 73.2932 21.5468 76.6665 21.5468C80.0399 21.5468 82.7999 18.7868 82.7999 15.4135C82.7999 12.0402 80.0399 9.28015 76.6665 9.28015ZM76.6665 18.4802C74.9799 18.4802 73.5999 17.1002 73.5999 15.4135C73.5999 13.7268 74.9799 12.3468 76.6665 12.3468C78.3532 12.3468 79.7332 13.7268 79.7332 15.4135C79.7332 17.1002 78.3532 18.4802 76.6665 18.4802Z" fill="#C1DAF3"/>
<path d="M13.8 67.5468H6.1333V70.6135H13.8V67.5468Z" fill="#C1DAF3"/>
<path d="M21.4666 73.6801H6.1333V76.7468H21.4666V73.6801Z" fill="#C1DAF3"/>
<path d="M9.19997 79.8135H6.1333V82.8801H9.19997V79.8135Z" fill="#C1DAF3"/>
<path d="M21.4666 79.8135H12.2666V82.8801H21.4666V79.8135Z" fill="#C1DAF3"/>
<path d="M73.6001 78.2802H67.4668V81.3468H73.6001V78.2802Z" fill="#C1DAF3"/>
<path d="M58.1997 30.6C58.1997 27 51.1997 26.2 47.6997 26H44.1997C40.6997 26.2 33.6997 27 33.6997 30.6V58.2C33.6997 61.6 39.8997 62.5 43.4997 62.7H48.3997C51.9997 62.5 58.1997 61.5 58.1997 58.2V30.6ZM45.8997 29.1C48.9997 28.9 51.9997 29.4 54.7997 30.6C51.9997 31.8 48.9997 32.3 45.8997 32.1C42.7997 32.3 39.7997 31.8 36.9997 30.6C39.7997 29.4 42.7997 29 45.8997 29.1ZM55.0997 58.1C54.4997 58.7 51.2997 59.8 45.8997 59.8C40.4997 59.8 37.2997 58.7 36.6997 58.1V52.3C42.6997 54.1 49.0997 54.1 55.0997 52.3V58.1ZM55.0997 48.9C54.4997 49.5 51.2997 50.6 45.8997 50.6C40.4997 50.6 37.2997 49.5 36.6997 48.9V43.1C42.6997 44.9 49.0997 44.9 55.0997 43.1V48.9ZM55.0997 39.7C54.4997 40.3 51.2997 41.4 45.8997 41.4C40.4997 41.4 37.2997 40.3 36.6997 39.7V33.9C42.6997 35.7 49.0997 35.7 55.0997 33.9V39.7Z" fill="#4042E2"/>
</svg>
