<svg width="92" height="92" viewBox="0 0 92 92" fill="none" xmlns="http://www.w3.org/2000/svg">
<path d="M87.5484 0H46C43.4774 0 41.5484 1.92903 41.5484 4.45161V16.471C41.1032 16.3226 40.5097 16.3226 40.0645 16.3226C38.4323 16.3226 36.9484 16.9161 35.9097 18.1032L23.4452 10.6839C23.5935 10.0903 23.7419 9.49677 23.7419 8.90323C23.7419 5.63871 21.071 2.96774 17.8065 2.96774C14.5419 2.96774 11.871 5.63871 11.871 8.90323C11.871 10.5355 12.6129 12.0194 13.6516 13.2065L7.41935 24.0387C6.97419 23.8903 6.52903 23.7419 5.93548 23.7419C2.67097 23.7419 0 26.4129 0 29.6774C0 32.9419 2.67097 35.6129 5.93548 35.6129C9.2 35.6129 11.871 32.9419 11.871 29.6774C11.871 28.0452 11.129 26.5613 10.0903 25.3742L16.3226 14.5419C16.7677 14.6903 17.3613 14.8387 17.8065 14.8387C19.4387 14.8387 20.9226 14.2452 21.9613 13.0581L34.4258 20.4774C34.2774 21.071 34.129 21.6645 34.129 22.2581C34.129 23.2968 34.4258 24.1871 34.871 25.0774C24.7806 28.4903 17.8065 37.9871 17.8065 48.9677C17.8065 53.8645 19.1419 58.3161 21.6645 62.1742L2.52258 79.2387C1.03871 80.5742 0 82.6516 0 84.729C0 88.7355 3.26452 92 7.27097 92C9.34839 92 11.4258 91.1097 12.7613 89.4774L29.6774 70.3355C33.6839 72.7097 38.1355 74.1936 43.0323 74.1936C56.9806 74.1936 68.2581 62.9161 68.2581 48.9677C68.2581 46.4452 67.8129 43.9226 67.071 41.5484H87.5484C90.071 41.5484 92 39.6194 92 37.0968V4.45161C92 1.92903 90.071 0 87.5484 0ZM5.93548 32.6452C4.30323 32.6452 2.96774 31.3097 2.96774 29.6774C2.96774 28.0452 4.30323 26.7097 5.93548 26.7097C7.56774 26.7097 8.90323 28.0452 8.90323 29.6774C8.90323 31.3097 7.56774 32.6452 5.93548 32.6452ZM89.0323 4.45161V8.90323H72.7097V2.96774H87.5484C88.4387 2.96774 89.0323 3.56129 89.0323 4.45161ZM63.8065 2.96774H69.7419V14.8387H63.8065V2.96774ZM46 2.96774H60.8387V8.90323H44.5161V4.45161C44.5161 3.56129 45.1097 2.96774 46 2.96774ZM57.5742 41.5484C58.7613 43.7742 59.3548 46.4452 59.3548 48.9677C59.3548 58.0194 52.0839 65.2903 43.0323 65.2903C33.9806 65.2903 26.7097 58.0194 26.7097 48.9677C26.7097 40.5097 33.2387 33.5355 41.5484 32.7935V37.0968C41.5484 39.6194 43.4774 41.5484 46 41.5484H57.5742ZM40.0645 19.2903C41.6968 19.2903 43.0323 20.6258 43.0323 22.2581C43.0323 23.8903 41.6968 25.2258 40.0645 25.2258C38.4323 25.2258 37.0968 23.8903 37.0968 22.2581C37.0968 20.6258 38.4323 19.2903 40.0645 19.2903ZM17.8065 11.871C16.1742 11.871 14.8387 10.5355 14.8387 8.90323C14.8387 7.27097 16.1742 5.93548 17.8065 5.93548C19.4387 5.93548 20.7742 7.27097 20.7742 8.90323C20.7742 10.5355 19.4387 11.871 17.8065 11.871ZM10.5355 87.5484C9.64516 88.4387 8.45807 89.0323 7.27097 89.0323C4.89677 89.0323 2.96774 87.1032 2.96774 84.729C2.96774 83.5419 3.56129 82.3548 4.45161 81.4645L23.2968 64.6968C24.4839 66.1806 25.8194 67.5161 27.3032 68.7032L10.5355 87.5484ZM65.2903 48.9677C65.2903 61.2839 55.3484 71.2258 43.0323 71.2258C30.7161 71.2258 20.7742 61.2839 20.7742 48.9677C20.7742 38.8774 27.6 30.1226 37.2452 27.4516C38.1355 27.8968 39.0258 28.1935 40.0645 28.1935C40.5097 28.1935 41.1032 28.0452 41.5484 28.0452V29.8258C31.6065 30.5677 23.7419 38.8774 23.7419 48.9677C23.7419 59.6516 32.3484 68.2581 43.0323 68.2581C53.7161 68.2581 62.3226 59.6516 62.3226 48.9677C62.3226 46.4452 61.8774 43.9226 60.8387 41.5484H63.9548C64.8452 43.9226 65.2903 46.4452 65.2903 48.9677ZM87.5484 38.5806H46C45.1097 38.5806 44.5161 37.9871 44.5161 37.0968V26.1161C45.4065 25.0774 46 23.7419 46 22.2581C46 20.7742 45.4065 19.4387 44.5161 18.4V11.871H60.8387V17.8065H72.7097V11.871H89.0323V37.0968C89.0323 37.9871 88.4387 38.5806 87.5484 38.5806Z" fill="#005DFF"/>
<path d="M74.1924 32.6451H71.2246V35.6128H74.1924V32.6451Z" fill="#C1DAF3"/>
<path d="M80.1279 32.6451H77.1602V35.6128H80.1279V32.6451Z" fill="#C1DAF3"/>
<path d="M86.0634 32.6451H83.0957V35.6128H86.0634V32.6451Z" fill="#C1DAF3"/>
<path d="M80.1286 89.0322H77.1609V65.2903H65.2899V89.0322H62.3221V74.1935H50.4512V92H91.9996V50.4516H80.1286V89.0322ZM59.3544 89.0322H53.4189V77.1613H59.3544V89.0322ZM68.2576 68.258H74.1931V89.0322H68.2576V68.258ZM83.0963 53.4193H89.0318V89.0322H83.0963V53.4193Z" fill="#C1DAF3"/>
<path d="M53.4207 44.5161H32.6465V47.4839H53.4207V44.5161Z" fill="#4042E2"/>
<path d="M53.4207 50.4516H32.6465V53.4193H53.4207V50.4516Z" fill="#4042E2"/>
<path d="M86.0633 26.7097H71.2246V29.6774H86.0633V26.7097Z" fill="#4042E2"/>
</svg>
