<svg width="109" height="109" viewBox="0 0 109 109" fill="none" xmlns="http://www.w3.org/2000/svg">
<path d="M7.8294 2.80104C7.32229 2.54748 6.64614 2.54748 6.13903 2.80104L2.75829 4.914C1.9131 5.25208 1.49051 6.2663 1.9131 7.11149C2.25117 7.95667 3.2654 8.37927 4.11058 7.95667C4.27962 7.87216 4.36414 7.78764 4.44866 7.70312L5.20933 7.19601V10.9148H4.36414C3.43444 10.9148 2.67377 11.6755 2.67377 12.6052C2.67377 13.5349 3.43444 14.2956 4.36414 14.2956H9.43526C10.365 14.2956 11.1256 13.5349 11.1256 12.6052C11.1256 11.6755 10.365 10.9148 9.43526 10.9148H8.59007V4.15334C8.67459 3.64622 8.33652 3.13911 7.8294 2.80104Z" fill="#95C5F8"/>
<path d="M12.0556 19.4512C12.0556 18.5215 11.2949 17.7609 10.3652 17.7609H3.6037C2.674 17.7609 1.91333 18.5215 1.91333 19.4512V27.9031C1.91333 28.8328 2.674 29.5935 3.6037 29.5935H10.3652C11.2949 29.5935 12.0556 28.8328 12.0556 27.9031V19.4512ZM8.67482 26.2127H5.29408V21.1416H8.67482V26.2127Z" fill="#95C5F8"/>
<path d="M7.82968 33.2278C7.32257 32.9742 6.64642 32.9742 6.13931 33.2278L2.75856 35.3407C1.91337 35.8478 1.65982 36.8621 2.16693 37.6227C2.67404 38.4679 3.68827 38.7215 4.44893 38.2144C4.44893 38.2144 4.53345 38.2144 4.53345 38.1298L5.29412 37.6227V41.257H4.44893C3.51923 41.257 2.75856 42.0177 2.75856 42.9474C2.75856 43.8771 3.51923 44.6378 4.44893 44.6378H9.52005C10.4498 44.6378 11.2104 43.8771 11.2104 42.9474C11.2104 42.0177 10.4498 41.257 9.52005 41.257H8.67487V34.4955C8.59035 34.073 8.33679 33.4813 7.82968 33.2278Z" fill="#95C5F8"/>
<path d="M12.0556 58.3297V49.8779C12.0556 48.9482 11.2949 48.1875 10.3652 48.1875H3.6037C2.674 48.1875 1.91333 48.9482 1.91333 49.8779V58.3297C1.91333 59.2594 2.674 60.0201 3.6037 60.0201H10.3652C11.2949 60.0201 12.0556 59.2594 12.0556 58.3297ZM8.67482 56.6394H5.29408V51.5682H8.67482V56.6394Z" fill="#95C5F8"/>
<path d="M21.3526 2.80104C20.8455 2.54748 20.1694 2.54748 19.6623 2.80104L16.2815 4.914C15.4363 5.42111 15.1828 6.43534 15.6899 7.19601C16.197 8.04119 17.2112 8.29475 17.9719 7.78764C17.9719 7.78764 18.0564 7.78764 18.0564 7.70312L18.8171 7.19601V10.9148H17.9719C17.0422 10.9148 16.2815 11.6755 16.2815 12.6052C16.2815 13.5349 17.0422 14.2956 17.9719 14.2956H23.043C23.9727 14.2956 24.7334 13.5349 24.7334 12.6052C24.7334 11.6755 23.9727 10.9148 23.043 10.9148H22.1978V4.15334C22.1978 3.64622 21.8597 3.13911 21.3526 2.80104Z" fill="#95C5F8"/>
<path d="M25.5785 19.4512C25.5785 18.5215 24.8178 17.7609 23.8881 17.7609H17.1267C16.1969 17.7609 15.4363 18.5215 15.4363 19.4512V27.9031C15.4363 28.8328 16.1969 29.5935 17.1267 29.5935H23.8881C24.8178 29.5935 25.5785 28.8328 25.5785 27.9031V19.4512ZM22.1978 26.2127H18.817V21.1416H22.1978V26.2127Z" fill="#95C5F8"/>
<path d="M21.3526 33.2278C20.8455 32.9742 20.1694 32.9742 19.6623 33.2278L16.2815 35.3407C15.4363 35.8478 15.1828 36.8621 15.6899 37.6227C16.197 38.4679 17.2112 38.7215 17.9719 38.2144C17.9719 38.2144 18.0564 38.2144 18.0564 38.1298L18.8171 37.6227V41.3416H17.8874C16.9577 41.3416 16.197 42.1022 16.197 43.0319C16.197 43.9616 16.9577 44.7223 17.8874 44.7223H22.9585C23.8882 44.7223 24.6489 43.9616 24.6489 43.0319C24.6489 42.1022 23.8882 41.3416 22.9585 41.3416H22.1133V34.5801C22.1133 34.0729 21.8597 33.4813 21.3526 33.2278Z" fill="#95C5F8"/>
<path d="M25.5785 49.8779C25.5785 48.9482 24.8178 48.1875 23.8881 48.1875H17.1267C16.1969 48.1875 15.4363 48.9482 15.4363 49.8779V58.3297C15.4363 59.2594 16.1969 60.0201 17.1267 60.0201H23.8881C24.8178 60.0201 25.5785 59.2594 25.5785 58.3297V49.8779ZM22.1978 56.6394H18.817V51.5682H22.1978V56.6394Z" fill="#95C5F8"/>
<path d="M34.8756 2.80104C34.3685 2.54748 33.6923 2.54748 33.1852 2.80104L29.8045 4.914C28.9593 5.42111 28.7057 6.43534 29.2128 7.19601C29.7199 8.04119 30.7342 8.29475 31.4948 7.78764C31.4948 7.78764 31.5793 7.78764 31.5793 7.70312L32.34 7.19601V10.9148H31.4948C30.5651 10.9148 29.8045 11.6755 29.8045 12.6052C29.8045 13.5349 30.5651 14.2956 31.4948 14.2956H36.566C37.4957 14.2956 38.2563 13.5349 38.2563 12.6052C38.2563 11.6755 37.4957 10.9148 36.566 10.9148H35.7208V4.15334C35.7208 3.64622 35.3827 3.13911 34.8756 2.80104Z" fill="#95C5F8"/>
<path d="M39.1015 19.4512C39.1015 18.5215 38.3408 17.7609 37.4111 17.7609H30.6496C29.7199 17.7609 28.9592 18.5215 28.9592 19.4512V27.9031C28.9592 28.8328 29.7199 29.5935 30.6496 29.5935H37.4111C38.3408 29.5935 39.1015 28.8328 39.1015 27.9031V19.4512ZM35.7207 26.2127H32.34V21.1416H35.7207V26.2127Z" fill="#95C5F8"/>
<path d="M34.8756 33.2278C34.3685 32.9742 33.6923 32.9742 33.1852 33.2278L29.8045 35.3407C28.9593 35.8478 28.7057 36.8621 29.2128 37.6227C29.7199 38.4679 30.7342 38.7215 31.4948 38.2144C31.4948 38.2144 31.5793 38.2144 31.5793 38.1298L32.34 37.6227V41.3416H31.4103C30.4806 41.3416 29.7199 42.1022 29.7199 43.0319C29.7199 43.9616 30.4806 44.7223 31.4103 44.7223H36.4814C37.4111 44.7223 38.1718 43.9616 38.1718 43.0319C38.1718 42.1022 37.4111 41.3416 36.4814 41.3416H35.6362V34.5801C35.6362 34.0729 35.3827 33.4813 34.8756 33.2278Z" fill="#C1DAF3"/>
<path d="M39.1015 58.3297V49.8779C39.1015 48.9482 38.3408 48.1875 37.4111 48.1875H30.6496C29.7199 48.1875 28.9592 48.9482 28.9592 49.8779V58.3297C28.9592 59.2594 29.7199 60.0201 30.6496 60.0201H37.4111C38.3408 60.0201 39.1015 59.2594 39.1015 58.3297ZM35.7207 56.6394H32.34V51.5682H35.7207V56.6394Z" fill="#C1DAF3"/>
<path d="M48.3985 2.80104C47.8914 2.54748 47.2153 2.54748 46.7082 2.80104L43.3274 4.914C42.4822 5.42111 42.2287 6.43534 42.7358 7.19601C43.2429 8.04119 44.2571 8.29475 45.0178 7.78764C45.0178 7.78764 45.1023 7.78764 45.1023 7.70312L45.863 7.19601V10.9148H45.0178C44.0881 10.9148 43.3274 11.6755 43.3274 12.6052C43.3274 13.5349 44.0881 14.2956 45.0178 14.2956H50.0889C51.0186 14.2956 51.7793 13.5349 51.7793 12.6052C51.7793 11.6755 51.0186 10.9148 50.0889 10.9148H49.2437V4.15334C49.2437 3.64622 48.9056 3.13911 48.3985 2.80104Z" fill="#95C5F8"/>
<path d="M52.6244 19.4512C52.6244 18.5215 51.8637 17.7609 50.934 17.7609H44.1726C43.2428 17.7609 42.4822 18.5215 42.4822 19.4512V27.9031C42.4822 28.8328 43.2428 29.5935 44.1726 29.5935H50.934C51.8637 29.5935 52.6244 28.8328 52.6244 27.9031V19.4512ZM49.2437 26.2127H45.8629V21.1416H49.2437V26.2127Z" fill="#95C5F8"/>
<path d="M48.3985 33.2278C47.8914 32.9742 47.2153 32.9742 46.7082 33.2278L43.3274 35.3407C42.4822 35.8478 42.2287 36.8621 42.7358 37.6227C43.2429 38.4679 44.2571 38.7215 45.0178 38.2144C45.0178 38.2144 45.1023 38.2144 45.1023 38.1298L45.863 37.6227V41.3416H44.9333C44.0036 41.3416 43.2429 42.1022 43.2429 43.0319C43.2429 43.9616 44.0036 44.7223 44.9333 44.7223H50.0044C50.9341 44.7223 51.6948 43.9616 51.6948 43.0319C51.6948 42.1022 50.9341 41.3416 50.0044 41.3416H49.1592V34.5801C49.1592 34.0729 48.9056 33.4813 48.3985 33.2278Z" fill="#C1DAF3"/>
<path d="M61.9215 33.2278C61.4144 32.9742 60.7382 32.9742 60.2311 33.2278L56.8504 35.3407C56.0052 35.8478 55.7516 36.8621 56.2587 37.6227C56.7658 38.3834 57.7801 38.7215 58.5407 38.2144C58.5407 38.2144 58.6253 38.2144 58.6253 38.1298L59.3859 37.6227V41.3416H58.4562C57.5265 41.3416 56.7658 42.1022 56.7658 43.0319C56.7658 43.9616 57.5265 44.7223 58.4562 44.7223H63.5273C64.457 44.7223 65.2177 43.9616 65.2177 43.0319C65.2177 42.1022 64.457 41.3416 63.5273 41.3416H62.6821V34.5801C62.6821 34.0729 62.4286 33.4813 61.9215 33.2278Z" fill="#C1DAF3"/>
<path d="M69.5281 58.3297C69.5281 59.2594 70.2887 60.0201 71.2184 60.0201H77.9799C78.9096 60.0201 79.6703 59.2594 79.6703 58.3297V49.8779C79.6703 48.9482 78.9096 48.1875 77.9799 48.1875H71.2184C70.2887 48.1875 69.5281 48.9482 69.5281 49.8779V58.3297ZM72.9088 51.5682H76.2896V56.6394H72.9088V51.5682Z" fill="#C1DAF3"/>
<path d="M85.5862 10.9994C84.6565 10.9994 83.8958 11.76 83.8958 12.6898C83.8958 13.6195 84.6565 14.3801 85.5862 14.3801H90.6573C91.587 14.3801 92.3477 13.6195 92.3477 12.6898C92.3477 11.76 91.587 10.9994 90.6573 10.9994H89.8121V4.23789C89.8121 3.30818 89.0514 2.54752 88.1217 2.54752C87.7837 2.54752 87.5301 2.63203 87.192 2.80107L83.8113 4.91404C82.9661 5.42115 82.7126 6.43537 83.2197 7.19604C83.7268 8.04123 84.741 8.29478 85.5017 7.78767C85.5017 7.78767 85.5862 7.78767 85.5862 7.70315L86.3469 7.19604V10.9149L85.5862 10.9994Z" fill="#95C5F8"/>
<path d="M102.49 2.80104C101.983 2.54748 101.307 2.54748 100.8 2.80104L97.4192 4.914C96.574 5.42111 96.3205 6.43534 96.8276 7.19601C97.3347 8.04119 98.3489 8.29475 99.1096 7.78764C99.1096 7.78764 99.1941 7.78764 99.1941 7.70312L99.9548 7.19601V10.9148H99.1096C98.1799 10.9148 97.4192 11.6755 97.4192 12.6052C97.4192 13.5349 98.1799 14.2956 99.1096 14.2956H104.181C105.11 14.2956 105.871 13.5349 105.871 12.6052C105.871 11.6755 105.11 10.9148 104.181 10.9148H103.336V4.15334C103.336 3.64622 102.997 3.05459 102.49 2.80104Z" fill="#95C5F8"/>
<path d="M11.2097 73.5431C11.2097 72.6134 10.4491 71.8527 9.51937 71.8527H8.67418V65.0912C8.67418 64.1615 7.91351 63.4008 6.98381 63.4008C6.64573 63.4008 6.39218 63.4854 6.0541 63.6544L2.67336 65.7674C1.82817 66.2745 1.57461 67.2887 2.08173 68.0494C2.58884 68.8946 3.60306 69.1481 4.36373 68.641C4.36373 68.641 4.44825 68.641 4.44825 68.5565L5.20891 68.0494V71.7682H4.36373C3.43402 71.7682 2.67336 72.5289 2.67336 73.4586C2.67336 74.3883 3.43402 75.1489 4.36373 75.1489H9.43485C10.4491 75.2335 11.2097 74.4728 11.2097 73.5431Z" fill="#95C5F8"/>
<path d="M17.9712 71.8527C17.0415 71.8527 16.2808 72.6134 16.2808 73.5431C16.2808 74.4728 17.0415 75.2335 17.9712 75.2335H23.0423C23.972 75.2335 24.7327 74.4728 24.7327 73.5431C24.7327 72.6134 23.972 71.8527 23.0423 71.8527H22.1971V65.0912C22.1971 64.1615 21.4365 63.4008 20.5068 63.4008C20.1687 63.4008 19.9151 63.4854 19.5771 63.6544L16.1963 65.7674C15.3511 66.2745 15.0976 67.2887 15.6047 68.0494C16.1118 68.8946 17.126 69.1481 17.8867 68.641C17.8867 68.641 17.9712 68.641 17.9712 68.5565L18.7319 68.0494V71.7682H17.9712V71.8527Z" fill="#95C5F8"/>
<path d="M31.4944 71.8527C30.5647 71.8527 29.804 72.6134 29.804 73.5431C29.804 74.4728 30.5647 75.2335 31.4944 75.2335H36.5655C37.4952 75.2335 38.2559 74.4728 38.2559 73.5431C38.2559 72.6134 37.4952 71.8527 36.5655 71.8527H35.7203V65.0912C35.7203 64.1615 34.9597 63.4008 34.0299 63.4008C33.6919 63.4008 33.4383 63.4854 33.1002 63.6544L29.7195 65.7674C28.8743 66.2745 28.6208 67.2887 29.1279 68.0494C29.635 68.8946 30.6492 69.1481 31.4099 68.641C31.4099 68.641 31.4944 68.641 31.4944 68.5565L32.2551 68.0494V71.7682H31.4944V71.8527Z" fill="#C1DAF3"/>
<path d="M35.7209 87.0661H35.2983L29.9736 90.2778C30.1427 90.3623 30.3962 90.4468 30.6498 90.4468H37.4113C38.341 90.4468 39.1016 89.6862 39.1016 88.7565V84.6996L35.7209 86.728V87.0661Z" fill="#C1DAF3"/>
<path d="M42.4822 58.3297C42.4822 58.7523 42.6512 59.1749 42.9048 59.4284C45.4403 57.4845 48.5675 56.4703 51.7792 56.4703C52.0328 56.4703 52.3709 56.4703 52.6244 56.5548V49.9623C52.6244 49.0326 51.8637 48.272 50.934 48.272H44.1726C43.2428 48.272 42.4822 49.0326 42.4822 49.9623V58.3297ZM45.8629 51.5682H49.2437V56.6393H45.8629V51.5682Z" fill="#C1DAF3"/>
<path d="M56.0051 57.062C57.9491 57.6536 59.8085 58.6678 61.3298 60.0201H64.457C65.3867 60.0201 66.1474 59.2594 66.1474 58.3297V49.8779C66.1474 48.9482 65.3867 48.1875 64.457 48.1875H57.6955C56.7658 48.1875 56.0051 48.9482 56.0051 49.8779V57.062ZM59.3859 51.5682H62.7666V56.6394H59.3859V51.5682Z" fill="#C1DAF3"/>
<path d="M49.2437 85.3757V87.0661H45.8629V84.3615C44.6797 83.8544 43.4964 83.0937 42.4822 82.2485V88.7565C42.4822 89.6862 43.2428 90.4468 44.1726 90.4468H50.934C51.8637 90.4468 52.6244 89.6862 52.6244 88.7565V85.5448C52.3709 85.5448 52.0328 85.6293 51.7792 85.6293C50.8495 85.5448 50.0043 85.4602 49.2437 85.3757Z" fill="#C1DAF3"/>
<path d="M105.026 78.6142H101.814C101.814 78.8678 101.899 79.2058 101.899 79.4594C101.899 80.3046 101.814 81.1498 101.645 81.9949H103.335V87.0661H99.9546V86.6435C99.1939 87.9112 98.3487 89.0945 97.25 90.1087C97.5881 90.3623 97.9261 90.4468 98.2642 90.4468H105.026C105.955 90.4468 106.716 89.6861 106.716 88.7564V80.3046C106.716 79.3749 105.955 78.6142 105.026 78.6142Z" fill="#C1DAF3"/>
<path d="M50.0885 102.279H49.2433V95.5179C49.2433 94.5882 48.4826 93.8275 47.5529 93.8275C47.2148 93.8275 46.9613 93.9121 46.6232 94.0811L43.2424 96.1941C42.3973 96.7012 42.1437 97.7154 42.6508 98.4761C43.1579 99.3213 44.1722 99.5748 44.9328 99.0677C44.9328 99.0677 45.0173 99.0677 45.0173 98.9832L45.778 98.4761V102.195H44.9328C44.0031 102.195 43.2424 102.956 43.2424 103.885C43.2424 104.815 44.0031 105.576 44.9328 105.576H50.0039C50.9336 105.576 51.6943 104.815 51.6943 103.885C51.6943 102.956 51.0182 102.279 50.0885 102.279Z" fill="#C1DAF3"/>
<path d="M63.6114 102.279H62.7662V95.5179C62.7662 94.5882 62.0055 93.8275 61.0758 93.8275C60.7378 93.8275 60.4842 93.9121 60.1461 94.0811L56.7654 96.1941C55.9202 96.7012 55.6667 97.7154 56.1738 98.4761C56.6809 99.3213 57.6951 99.5748 58.4558 99.0677C58.4558 99.0677 58.5403 99.0677 58.5403 98.9832L59.301 98.4761V102.195H58.4558C57.5261 102.195 56.7654 102.956 56.7654 103.885C56.7654 104.815 57.5261 105.576 58.4558 105.576H63.5269C64.4566 105.576 65.2173 104.815 65.2173 103.885C65.2173 102.956 64.5411 102.279 63.6114 102.279Z" fill="#C1DAF3"/>
<path d="M77.1344 102.279H76.2892V95.5179C76.2892 94.5882 75.5285 93.8275 74.5988 93.8275C74.2607 93.8275 74.0072 93.9121 73.6691 94.0811L70.2883 96.1941C69.4432 96.7012 69.1896 97.7154 69.6967 98.4761C70.2038 99.3213 71.218 99.5748 71.9787 99.0677C71.9787 99.0677 72.0632 99.0677 72.0632 98.9832L72.8239 98.4761V102.195H71.9787C71.049 102.195 70.2883 102.956 70.2883 103.885C70.2883 104.815 71.049 105.576 71.9787 105.576H77.0498C77.9795 105.576 78.7402 104.815 78.7402 103.885C78.7402 102.956 78.0641 102.279 77.1344 102.279Z" fill="#C1DAF3"/>
<path d="M90.6573 102.279H89.8121V95.5179C89.8121 94.5882 89.0514 93.8275 88.1217 93.8275C87.7837 93.8275 87.5301 93.9121 87.192 94.0811L83.8113 96.1941C82.9661 96.7012 82.7126 97.7154 83.2197 98.4761C83.7268 99.3213 84.741 99.5748 85.5017 99.0677C85.5017 99.0677 85.5862 99.0677 85.5862 98.9832L86.3469 98.4761V102.195H85.5017C84.572 102.195 83.8113 102.956 83.8113 103.885C83.8113 104.815 84.572 105.576 85.5017 105.576H90.5728C91.5025 105.576 92.2632 104.815 92.2632 103.885C92.2632 102.956 91.587 102.279 90.6573 102.279Z" fill="#C1DAF3"/>
<path d="M104.18 102.279H103.335V95.5179C103.335 94.5882 102.574 93.8275 101.645 93.8275C101.307 93.8275 101.053 93.9121 100.715 94.0811L97.3342 96.1941C96.4891 96.7012 96.2355 97.7154 96.7426 98.4761C97.2497 99.3213 98.2639 99.5748 99.0246 99.0677C99.0246 99.0677 99.1091 99.0677 99.1091 98.9832L99.8698 98.4761V102.195H99.0246C98.0949 102.195 97.3342 102.956 97.3342 103.885C97.3342 104.815 98.0949 105.576 99.0246 105.576H104.096C105.025 105.576 105.786 104.815 105.786 103.885C105.786 102.956 105.11 102.279 104.18 102.279Z" fill="#C1DAF3"/>
<path d="M1.91333 80.3046V81.4033C3.01207 80.3046 4.19533 79.3749 5.46311 78.6142H3.6037C2.58948 78.6142 1.91333 79.3749 1.91333 80.3046Z" fill="#95C5F8"/>
<path d="M23.8878 78.6142H23.7188C24.3104 78.9523 24.9865 79.3749 25.5782 79.882C25.2401 79.1213 24.6485 78.6142 23.8878 78.6142Z" fill="#95C5F8"/>
<path d="M36.5652 102.279H35.7201V95.5179C35.7201 94.5882 34.9594 93.8275 34.0297 93.8275C33.6916 93.8275 33.4381 93.9121 33.1 94.0811L32.2548 94.5882C32.1703 96.1095 31.9167 97.6309 31.4941 99.0677L32.2548 98.5606V102.279H31.4096C30.4799 102.279 29.7192 103.04 29.7192 103.97C29.7192 104.899 30.4799 105.66 31.4096 105.66H36.4807C37.4104 105.66 38.1711 104.899 38.1711 103.97C38.1711 103.04 37.495 102.279 36.5652 102.279Z" fill="#C1DAF3"/>
<path d="M76.2892 71.5992V65.0067C76.2892 64.077 75.5285 63.3163 74.5988 63.3163C74.2607 63.3163 74.0072 63.4009 73.6691 63.5699L70.2883 65.6829C69.4432 66.19 69.1896 67.2042 69.6967 67.9649C70.2038 68.8101 71.218 69.0636 71.9787 68.5565C71.9787 68.5565 72.0632 68.5565 72.0632 68.472L72.8239 67.9649V70.6695L76.2892 71.5992Z" fill="#C1DAF3"/>
<path d="M72.9088 81.995C72.8243 81.7414 72.8243 81.4879 72.8243 81.2343L69.5281 80.4737V88.7565C69.5281 89.6862 70.2887 90.4469 71.2184 90.4469H77.7264C76.6276 89.4326 75.6134 88.3339 74.8528 87.0661H72.9088V81.995Z" fill="#C1DAF3"/>
<path d="M63.8654 79.1213C63.1892 80.22 62.2595 81.1497 61.3298 81.9949H62.7666V87.066H59.3859V83.4317C58.3716 84.1079 57.1884 84.615 56.0051 84.9531V88.7564C56.0051 89.6861 56.7658 90.4468 57.6955 90.4468H64.457C65.3867 90.4468 66.1474 89.6861 66.1474 88.7564V80.3045C66.1474 80.051 66.0628 79.7974 65.9783 79.6284L63.8654 79.1213Z" fill="#C1DAF3"/>
<path d="M93.1933 21.226V19.5356C93.1933 18.6059 92.4326 17.8453 91.5029 17.8453H84.7414C83.8117 17.8453 83.051 18.6059 83.051 19.5356V19.6202L86.2627 23.0854L86.4318 23.0009V21.226H89.8125V21.7331C90.9113 21.3951 92.01 21.226 93.1933 21.226Z" fill="#95C5F8"/>
<path d="M106.716 26.5507V19.5356C106.716 18.6059 105.956 17.8453 105.026 17.8453H98.2643C97.3346 17.8453 96.574 18.6059 96.574 19.5356V21.3951C97.7572 21.5641 98.856 21.8177 99.9547 22.2402V21.226H103.335V23.8461C104.519 24.6068 105.702 25.452 106.716 26.5507Z" fill="#95C5F8"/>
<path d="M85.3326 60.0201L86.1778 54.7799C85.079 54.1883 83.9803 53.5967 82.9661 52.836V58.3297C82.9661 59.2594 83.7267 60.0201 84.6564 60.0201H85.3326Z" fill="#95C5F8"/>
<path d="M103.335 56.6394H99.9547V55.6252C98.856 56.0478 97.7572 56.3013 96.574 56.4704V58.3298C96.574 59.2595 97.3346 60.0201 98.2643 60.0201H105.026C105.956 60.0201 106.716 59.2595 106.716 58.3298V51.3147C105.702 52.329 104.603 53.2587 103.335 54.0193V56.6394Z" fill="#95C5F8"/>
<path d="M72.0632 41.4261C71.1335 41.4261 70.3729 42.1868 70.3729 43.1165C70.3729 44.0462 71.1335 44.8069 72.0632 44.8069H77.1344H77.3034C76.8808 43.7081 76.6272 42.6094 76.4582 41.4261H76.2892V34.6646C76.2892 33.7349 75.5285 32.9742 74.5988 32.9742C74.2607 32.9742 74.0072 33.0588 73.6691 33.2278L70.2883 35.3408C69.4432 35.8479 69.1896 36.8621 69.6967 37.6228C70.2038 38.3834 71.218 38.7215 71.9787 38.2144C71.9787 38.2144 72.0632 38.2144 72.0632 38.1299L72.8239 37.6228V41.3416H72.0632V41.4261Z" fill="#95C5F8"/>
<path d="M56.0051 19.1977C56.0051 19.2822 56.0051 19.3667 56.0051 19.4512V27.9031C56.0051 28.8328 56.7658 29.5935 57.6955 29.5935H64.457C65.3867 29.5935 66.1474 28.8328 66.1474 27.9031V25.283C64.9641 25.114 63.8654 24.8604 62.7666 24.4378V26.2127H59.3859V22.5784C58.0336 21.6487 56.9348 20.55 56.0051 19.1977Z" fill="#95C5F8"/>
<path d="M69.5281 25.283V27.903C69.5281 28.8327 70.2887 29.5934 71.2184 29.5934H77.9799C78.149 29.5934 78.318 29.5934 78.4871 29.5089L77.7264 28.6637L75.4444 26.1281H72.9088V24.4378C71.8101 24.8604 70.6268 25.1139 69.5281 25.283Z" fill="#95C5F8"/>
<path d="M94.0382 24.5223C90.9955 24.5223 88.0374 25.452 85.5863 27.3114L76.6274 17.6763C80.2617 12.7742 79.332 5.84365 74.4299 2.20935C69.5278 -1.42495 62.5973 -0.495245 58.963 4.40684C55.3287 9.30892 56.2584 16.2394 61.1605 19.8737C65.0483 22.7474 70.2885 22.8319 74.2609 20.0428L83.1353 29.5934C77.9797 35.5942 78.6558 44.6377 84.6566 49.7933C86.178 51.1456 88.0374 52.0753 89.9813 52.667L87.3612 68.2184H87.1922C82.6282 68.2184 78.5713 71.0075 76.7964 75.1489L62.8508 71.8527C62.8508 71.5146 62.8508 71.2611 62.8508 70.923C62.8508 64.7531 57.7797 59.7665 51.6099 59.7665C45.44 59.7665 40.4534 64.8377 40.4534 71.0075C40.4534 72.5288 40.7915 73.9657 41.2986 75.318L25.7472 84.8686C20.7606 78.6142 11.7171 77.6 5.46269 82.502C-0.791694 87.4041 -1.80592 96.5321 3.09616 102.787C8.08276 109.041 17.1263 110.055 23.3806 105.153C28.6208 101.012 30.3112 93.8275 27.522 87.7422L43.158 78.1916C47.1304 82.9246 54.2299 83.5163 58.963 79.5439C60.3153 78.3606 61.414 76.9238 62.0902 75.2334L76.1203 78.5297C76.1203 78.8677 76.0358 79.1213 76.0358 79.4594C76.0358 85.6292 81.0223 90.7004 87.1922 90.7004C93.3621 90.7004 98.4332 85.7138 98.4332 79.5439C98.4332 74.7263 95.306 70.4159 90.742 68.8945L93.3621 53.3431C93.6156 53.3431 93.7847 53.3431 94.0382 53.3431C101.983 53.3431 108.406 46.9197 108.406 38.975C108.406 31.0302 101.898 24.5223 94.0382 24.5223ZM67.8374 18.6905C63.6115 18.6905 60.1462 15.2252 60.1462 10.9993C60.1462 6.77336 63.6115 3.30809 67.8374 3.30809C72.0634 3.30809 75.5286 6.77336 75.5286 10.9993C75.4441 15.2252 72.0634 18.6905 67.8374 18.6905ZM14.5907 104.815C8.50536 104.815 3.60328 99.9129 3.60328 93.8275C3.60328 87.7422 8.50536 82.8401 14.5907 82.8401C20.676 82.8401 25.5781 87.7422 25.5781 93.8275C25.5781 99.9129 20.5915 104.815 14.5907 104.815ZM59.5546 71.092C59.5546 75.4025 56.0048 78.9523 51.6099 78.8678C47.2149 78.7832 43.7496 75.318 43.8341 70.923C43.8341 66.6125 47.3839 63.0628 51.7789 63.1473C56.0893 63.1473 59.5546 66.6971 59.5546 70.923V71.092ZM95.0524 79.4594C95.0524 83.7698 91.5872 87.3196 87.2767 87.3196C82.9663 87.3196 79.4165 83.8543 79.4165 79.5439C79.4165 75.2334 82.8818 71.6837 87.1922 71.6837C91.5872 71.5991 95.0524 75.1489 95.0524 79.4594ZM94.0382 49.8779C87.9529 49.8779 83.0508 44.9758 83.0508 38.8904C83.0508 32.8051 87.9529 27.903 94.0382 27.903C100.124 27.903 105.026 32.8051 105.026 38.8904C105.026 44.9758 100.039 49.8779 94.0382 49.8779Z" fill="#1F65DD"/>
<path d="M102.49 63.5699C101.983 63.3164 101.307 63.3164 100.8 63.6544L97.4192 65.7674C96.574 66.2745 96.3205 67.2887 96.8276 68.0494C97.3347 68.8946 98.3489 69.1482 99.1096 68.641C99.1096 68.641 99.1941 68.641 99.1941 68.5565L99.9548 68.0494V71.7682H99.7012C100.377 72.7825 100.884 73.9657 101.223 75.149H104.096C105.026 75.149 105.787 74.3883 105.787 73.4586C105.787 72.5289 105.026 71.7682 104.096 71.7682H103.251V65.0067C103.251 64.4996 102.997 63.908 102.49 63.5699Z" fill="#95C5F8"/>
</svg>
