<svg width="410" height="408" viewBox="0 0 410 408" fill="none" xmlns="http://www.w3.org/2000/svg">
<path d="M58 239.265C58 311.062 116.203 369.265 188 369.265C259.797 369.265 318 311.062 318 239.265C318 167.468 259.797 109.265 188 109.265C116.203 109.265 58 167.468 58 239.265Z" fill="url(#paint0_linear)"/>
<g style="mix-blend-mode:multiply">
<path d="M189.5 157.266H147.5C86.4725 157.266 37 206.738 37 267.766C37 328.793 86.4725 378.266 147.5 378.266H189.5C250.527 378.266 300 328.793 300 267.766C300 206.738 250.527 157.266 189.5 157.266Z" fill="url(#paint1_linear)"/>
</g>
<path d="M131.052 88.6206L127.104 89.9194L124.473 83.3347L118.537 84.4825L115.794 79.8914L113.666 81.4016L117.306 87.503L122.933 86.4458L125.676 93.2722L131.584 91.3391L131.052 88.6206Z" fill="url(#paint2_linear)"/>
<path d="M382.71 325.338L378.79 326.637L376.131 320.052L370.196 321.2L367.48 316.639L365.324 318.119L368.964 324.221L374.591 323.163L377.335 329.99L383.242 328.057L382.71 325.338Z" fill="url(#paint3_linear)"/>
<path d="M106.862 403.267C106.862 403.267 85.9209 326.697 84.2411 309.813C82.5614 292.928 94.2638 298.153 94.2638 298.153C94.2638 298.153 84.4091 265.955 91.5482 258.313C98.6592 250.671 105.098 264.928 105.098 264.928C105.098 264.928 107.254 225.842 114.841 225.842C128.979 225.812 128.699 268.462 128.699 268.462C128.699 268.462 132.311 251.758 139.898 256.349C151.32 263.236 134.942 296.704 134.942 296.704C134.942 296.704 149.5 296.704 154.624 304.647C163.778 318.814 106.862 403.267 106.862 403.267Z" fill="url(#paint4_linear)"/>
<path d="M113.694 393.119C113.694 393.119 53.3337 382.215 40.2035 370.676C27.0732 359.138 40.0635 353.943 40.0635 353.943C40.0635 353.943 9.7436 337.179 10.0796 325.762C10.4435 314.344 25.5054 320.143 25.5054 320.143C25.5054 320.143 -0.055119 288.7 5.99207 282.749C17.2466 271.634 46.8106 304.316 46.8106 304.316C46.8106 304.316 38.0478 288.76 47.2865 286.314C61.2287 282.598 71.5033 320.929 71.5033 320.929C71.5033 320.929 68.8996 305.796 78.5024 307.82C95.72 311.444 113.694 393.119 113.694 393.119Z" fill="url(#paint5_linear)"/>
<path d="M78.5024 307.819C68.8717 305.947 71.5034 320.928 71.5034 320.928C71.5034 320.928 61.2288 282.598 47.2866 286.313C38.0479 288.76 46.8107 304.316 46.8107 304.316C46.8107 304.316 17.2747 271.633 5.99219 282.749L113.498 393.149C111.594 382.607 94.6283 310.961 78.5024 307.819Z" fill="url(#paint6_linear)"/>
<path d="M130.884 402.119C130.884 402.119 99.0799 367.232 83.094 363.608C67.0802 359.983 69.9638 372.277 69.9638 372.277C69.9638 372.277 38.1881 342.313 30.8251 349.562C23.462 356.812 31.413 363.819 31.413 363.819C31.413 363.819 4.95656 358.775 1.17707 368.139C-4.64615 382.546 38.86 390.37 38.86 390.37C38.86 390.37 20.6344 391.729 24.8618 400.76C31.245 414.352 130.884 402.119 130.884 402.119Z" fill="url(#paint7_linear)"/>
<path d="M1.17773 368.138C4.95723 358.775 31.4137 363.819 31.4137 363.819C31.4137 363.819 23.4627 356.811 30.8257 349.562C38.1887 342.313 68.9566 368.199 68.9566 368.199C68.9566 368.199 61.7056 353.247 77.7194 356.872C93.7333 360.496 130.884 402.149 130.884 402.149L1.17773 368.138Z" fill="url(#paint8_linear)"/>
<path d="M187.919 38.6129C177.934 40.317 174.954 53.8959 183.266 59.955C184.756 61.037 185.801 62.687 186.22 64.5264L187.736 70.829C188.154 72.5602 189.801 73.6963 191.5 73.3988L195.29 72.7496C196.988 72.452 198.217 70.8561 198.06 69.0708C197.537 62.5518 196.884 60.1985 198.923 57.2771C204.908 48.7835 197.903 36.9087 187.919 38.6129Z" fill="url(#paint9_linear)"/>
<path d="M187.937 39.4208C179.579 41.0277 177.084 53.8313 184.042 59.5446C185.29 60.5648 186.165 62.1206 186.515 63.8549L187.784 69.7978C188.134 71.4301 189.513 72.5013 190.935 72.2208L194.108 71.6087C195.53 71.3281 196.558 69.8233 196.427 68.1399C195.989 61.9931 195.442 59.7741 197.149 57.0195C202.16 49.0109 196.296 37.814 187.937 39.4208Z" fill="url(#paint10_radial)"/>
<path d="M188.938 66.1767C188.285 60.6045 187.37 54.7076 187.057 53.0305C181.332 53.3551 183.502 47.1067 186.142 49.6493C186.9 50.3797 187.239 51.3535 187.475 52.4355C189.383 52.2462 191.239 51.7052 192.937 50.7855C192.859 49.4059 192.702 48.378 193.094 47.4854C193.643 46.1599 195.29 45.7812 195.943 47.0796C196.205 47.5665 196.231 48.1886 196.048 48.7026C195.656 49.8116 194.506 50.5421 193.513 51.1101C193.826 55.5463 194.218 60.0094 194.767 64.4185L194.218 64.4997C193.695 60.1718 193.277 55.7626 192.99 51.4076C191.317 52.2732 189.487 52.8143 187.605 53.0036C187.997 55.1405 188.86 60.8751 189.461 66.1227L188.938 66.1767ZM184.338 51.7322C184.835 52.3003 185.697 52.5437 186.952 52.4896C186.743 51.5428 186.429 50.6772 185.776 50.0822C184.364 48.7026 183.476 50.7584 184.338 51.7322ZM193.591 47.7289C193.277 48.4592 193.408 49.4059 193.46 50.515C194.271 50.0281 195.238 49.433 195.525 48.5404C195.734 47.9183 195.499 47.0526 194.898 46.8903C194.846 46.8633 193.826 47.1879 193.591 47.7289Z" fill="white"/>
<path d="M186.166 64.3373C186.192 64.3914 186.192 64.4455 186.218 64.4996L187.734 70.8021C188.152 72.5332 189.799 73.6693 191.498 73.3718L195.288 72.7226C196.987 72.4251 198.216 70.8291 198.059 69.0439C197.823 66.1496 197.562 64.0667 197.536 62.3896L186.166 64.3373Z" fill="url(#paint11_linear)"/>
<path d="M316.107 122.903L312.44 113.57L303.229 111.516C302.193 111.274 301.829 109.855 302.641 109.099L309.752 102.454L308.716 92.3961C308.604 91.2483 309.752 90.463 310.676 91.0369L318.711 96.2623L327.278 92.0638C328.258 91.5806 329.322 92.517 329.07 93.6346L326.942 103.512L333.269 111.003C333.997 111.848 333.493 113.238 332.429 113.328L323.078 114.204L318.431 123.024C317.899 124.051 316.527 123.991 316.107 122.903Z" fill="url(#paint12_linear)"/>
<path d="M374.338 90.8857L372.854 97.41L362.831 95.9904L359.528 105.233L351.885 105.475L351.997 109.643L362.243 109.341L365.351 100.551L375.765 102.062L378.033 92.245L374.338 90.8857Z" fill="url(#paint13_linear)"/>
<path d="M285.142 404.113H109.13C102.41 404.113 96.9512 398.012 96.9512 390.491V382.396C96.9512 374.875 102.41 368.773 109.13 368.773H285.142C277.079 378.62 276.939 393.662 284.806 403.69L285.142 404.113Z" fill="url(#paint14_linear)"/>
<path d="M282.426 372.821H184.803C178.084 372.821 172.625 378.922 172.625 386.443C172.625 393.964 178.084 400.066 184.803 400.066H282.426C277.863 391.729 277.891 381.157 282.426 372.821Z" fill="url(#paint15_linear)"/>
<path d="M223.298 344.246C223.55 343.733 223.158 343.129 222.57 343.129H129.454C122.147 343.129 116.24 348.868 116.24 355.966C116.24 363.064 122.147 368.803 129.454 368.803H222.598C223.186 368.803 223.578 368.199 223.326 367.686C219.658 360.255 219.658 351.616 223.298 344.246Z" fill="url(#paint16_linear)"/>
<path d="M222.711 345.515H176.545C167.978 345.515 161.035 350.318 161.035 356.268C161.035 362.219 167.978 367.021 176.545 367.021H222.991C219.855 360.165 219.771 352.372 222.711 345.515Z" fill="url(#paint17_linear)"/>
<path d="M206.194 342.192H152.021C147.206 342.192 143.314 337.208 143.314 331.046C143.314 324.884 147.206 319.9 152.021 319.9H206.194C202.051 326.062 201.883 335.124 205.802 341.557L206.194 342.192Z" fill="url(#paint18_linear)"/>
<path d="M143.314 331.047C143.314 324.885 147.29 319.901 152.217 319.901H207.23C207.482 319.901 207.706 319.63 207.678 319.328C207.678 319.025 207.482 318.754 207.23 318.754H119.965C114.534 318.754 110.139 324.251 110.139 331.047C110.139 337.843 114.534 343.341 119.965 343.341H207.23C207.482 343.341 207.678 343.099 207.678 342.767C207.678 342.435 207.482 342.193 207.23 342.193H152.217C147.29 342.193 143.314 337.209 143.314 331.047Z" fill="url(#paint19_linear)"/>
<path d="M295.109 154.765L300.54 152.806L295.109 230.826L285.506 231.158L292.925 157.605C293.009 156.245 293.877 155.098 295.109 154.765Z" fill="url(#paint20_linear)"/>
<path fill-rule="evenodd" clip-rule="evenodd" d="M292.627 229.949C292.604 229.713 292.6 229.471 292.618 229.225L297.937 155.857C298.077 153.954 299.477 152.565 301.073 152.776C302.669 152.988 303.844 154.679 303.704 156.582L298.416 229.519C298.431 229.592 298.441 229.665 298.441 229.738C298.693 232.728 296.929 235.326 294.549 235.568L226.994 242.092C224.615 242.334 222.459 240.099 222.207 237.108V236.957L292.627 229.949Z" fill="url(#paint21_linear)"/>
<path d="M269.24 315.764C264.817 318.422 251.294 313.77 251.294 313.347C251.098 317.334 236.148 356.359 236.148 356.359V368.381C236.148 368.381 266.944 369.951 266.496 367.022C266.048 364.092 264.397 365.995 258.265 360.437C257.734 359.954 249.083 357.779 251.434 352.282C256.138 341.166 266.132 322.681 269.24 315.764Z" fill="#F3A08D"/>
<path d="M235.141 368.773H268.848C270.052 368.652 270.36 367.565 269.912 366.931C269.016 365.602 262.577 362.43 258.21 360.346C250.651 361.313 237.352 358.171 236.12 356.298C232.957 360.95 234.469 368.622 235.141 368.773Z" fill="url(#paint22_linear)"/>
<path d="M227.751 287.733C227.303 286.253 256.783 272.751 258.099 274.291C260.422 277.01 242.141 328.238 242.141 328.238L263.138 335.155C263.138 335.155 284.975 275.983 284.079 265.17C283.155 254.356 272.237 242.063 248.524 249.916C224.811 257.799 227.751 287.733 227.751 287.733Z" fill="url(#paint23_linear)"/>
<path d="M288.809 322.469C283.826 321.503 277.387 321.201 272.207 321.11C272.823 326.064 275.763 351.497 275.231 353.067C273.047 359.41 268.176 362.37 268.176 362.37C268.176 362.37 291.077 384.662 292.449 382.094C293.82 379.527 291.441 379.859 289.929 371.372C289.789 370.616 286.485 358.776 286.289 352.372C285.897 340.2 288.641 329.265 288.809 322.469Z" fill="#F3A08D"/>
<path d="M281.447 239.253C278.255 237.41 269.968 237.35 260.841 237.984C243.064 239.223 225.51 242.998 208.628 249.04L197.318 253.087L197.346 240.582C197.346 240.582 161.343 234.088 160.111 243.723C158.235 258.222 160.559 287.642 172.569 294.196C209.804 314.585 262.017 261.695 262.213 268.612C262.465 277.916 269.716 312.5 271.592 327.633C276.743 327.724 285.618 327.724 289.482 326.788C290.181 297.126 290.545 244.509 281.447 239.253Z" fill="url(#paint24_linear)"/>
<path d="M267.504 362.913L293.233 385.084C294.241 385.809 295.109 385.174 295.137 384.389C295.249 382.758 292.085 375.901 289.957 371.31C283.546 366.87 275.091 355.302 275.231 353.036C272.544 355.513 267.056 362.339 267.504 362.913Z" fill="url(#paint25_linear)"/>
<path d="M209.245 118.281C208.377 109.764 207.481 101.185 200.93 94.9631C195.639 89.9188 188.891 89.0428 182.228 91.7613C163.331 99.4334 173.074 117.526 148.997 135.77C141.522 141.449 133.263 145.315 127.636 152.957C119.741 163.65 122.736 176.487 129.903 185.065C164.283 226.114 202.666 170.687 205.437 157.367C207.481 147.46 209.805 123.779 209.245 118.281Z" fill="url(#paint26_linear)"/>
<path d="M202.274 166.247C199.474 160.659 196.563 156.219 196.563 156.219C193.651 150.631 186.12 147.792 186.12 147.792C186.12 147.792 183.601 147.852 180.717 148.003C180.549 148.517 180.353 148.879 180.185 149.03C179.093 149.906 172.878 148.789 168.847 151.719C155.38 164.193 159.104 224.604 160.168 243.693L201.21 244.116C201.21 244.116 196.031 203.037 204.374 192.496C210.169 185.186 206.418 174.524 202.274 166.247Z" fill="url(#paint27_linear)"/>
<path d="M183.769 127.373C183.769 127.373 181.501 144.771 179.934 149C178.366 153.229 188.613 162.26 197.123 165.009C205.634 167.757 194.52 155.675 194.884 151.145C195.248 146.614 196.787 125.229 196.787 125.229L183.769 127.373Z" fill="#F3A08D"/>
<path d="M196.339 131.36C196.591 127.826 196.759 125.229 196.759 125.229L183.741 127.373C183.741 127.373 183.405 129.427 183.041 132.297C188.332 135.589 193.092 134.562 196.339 131.36Z" fill="#F47458"/>
<path d="M187.828 95.598C187.828 95.598 182.704 96.8364 179.541 102.062C176.377 107.287 174.194 122.601 184.636 129.79C195.051 136.949 203.17 126.83 203.31 116.953C203.45 107.076 201.462 93.8763 187.828 95.598Z" fill="url(#paint28_linear)"/>
<path d="M205.69 113.842C204.794 116.228 203.03 117.708 201.743 117.134C200.455 116.56 200.119 114.174 201.015 111.818C201.911 109.432 203.674 107.952 204.962 108.525C206.25 109.069 206.586 111.455 205.69 113.842Z" fill="#F3A08D"/>
<path d="M189.368 95.2962C189.368 95.2962 182.844 111.124 177.077 112.513C171.338 113.933 171.422 121.877 171.422 121.877C171.422 121.877 171.562 103.512 176.937 99.2832C182.341 95.0847 189.368 95.2962 189.368 95.2962Z" fill="url(#paint29_linear)"/>
<path d="M179.372 115.805C180.128 118.373 179.428 120.91 177.833 121.454C176.237 121.997 174.305 120.366 173.549 117.799C172.793 115.231 173.493 112.694 175.089 112.15C176.713 111.607 178.616 113.238 179.372 115.805Z" fill="#F3A08D"/>
<path d="M252.807 229.981C250.343 229.014 246.676 228.893 246.732 228.561C246.984 227.142 257.846 231.703 256.391 229.618C255.579 228.471 247.432 224.393 245.444 225.057C243.512 225.722 230.914 229.528 230.914 229.528L196.451 220.799C196.451 220.799 187.744 199.474 186.904 181.139C179.709 182.196 174.81 184.099 168.566 187.845C171.59 205.364 178.897 233.787 187.016 239.103C190.432 241.338 231.11 236.415 231.11 236.415C231.11 236.415 240.069 235.72 241.553 235.116C242.672 234.663 245.528 232.911 247.068 232.428C250.595 231.34 256.895 234.059 256.923 233.303C256.923 232.82 255.327 230.947 252.807 229.981Z" fill="#F3A08D"/>
<path d="M187.127 161.566C186.791 155.918 184.804 150.481 179.26 148.729C175.817 147.642 171.953 148.668 169.182 151.115C165.906 154.015 164.982 158.636 165.01 163.016C165.038 172.984 165.682 183.283 167.362 193.1C173.605 189.355 180.912 187.12 188.107 186.062C188.079 186.002 187.547 169.027 187.127 161.566Z" fill="url(#paint30_linear)"/>
<path fill-rule="evenodd" clip-rule="evenodd" d="M37.5756 119.181L38.0758 116.258C38.2718 115.11 39.3076 114.325 40.3715 114.567L56.6373 117.829C57.7011 118.04 58.429 119.158 58.2051 120.306L57.7063 123.22L87.7417 129.246C88.8056 129.458 89.5335 130.575 89.3095 131.723L82.6184 170.507C82.4504 171.654 81.4146 172.44 80.3227 172.198L26.8779 161.475C25.8141 161.264 25.0861 160.146 25.3101 158.998L32.0012 120.215C32.1972 119.067 33.2331 118.282 34.2969 118.524L37.5756 119.181Z" fill="url(#paint31_linear)"/>
<path d="M82.7575 170.718C82.4776 171.775 81.4977 172.44 80.4899 172.228L26.7091 161.415C25.7012 161.203 25.0013 160.237 25.1133 159.119L27.9409 124.353C27.9969 123.749 28.2769 123.205 28.7248 122.843C29.1727 122.48 29.7327 122.329 30.2926 122.45L90.0365 134.442C90.5965 134.562 91.0724 134.895 91.3523 135.408C91.6323 135.922 91.7163 136.526 91.5763 137.1L82.7575 170.718Z" fill="url(#paint32_linear)"/>
<path d="M327.837 43.7053L318.682 46.3936L316.723 34.4324L319.718 33.8584L321.118 42.2858L327.053 40.5338L327.837 43.7053Z" fill="url(#paint33_linear)"/>
<path d="M36.3379 207.991C38.6336 207.779 42.1611 208.867 43.7289 210.045C43.9529 210.287 45.7726 211.072 47.6763 214.425L47.2564 214.727C45.2687 212.491 43.9249 211.978 42.3291 211.464C39.6975 210.74 37.0658 211.283 36.8418 211.404L36.3379 207.991Z" fill="#345385"/>
<path d="M47.4547 214.576C47.4547 214.576 33.4845 217.083 34.8003 228.863C36.1162 240.643 50.8422 249.795 63.9725 242.516C81.6661 232.729 74.667 207.84 62.0967 205.907C49.4984 203.974 47.4547 214.576 47.4547 214.576Z" fill="url(#paint34_radial)"/>
<path d="M53.3612 209.411C53.3612 209.411 57.0007 205.363 64.9796 209.048C72.9585 212.733 73.5465 229.829 66.4075 228.833C59.3244 227.836 47.6779 211.888 53.3612 209.411Z" fill="url(#paint35_linear)"/>
<path opacity="0.1" d="M70.493 213.47C70.493 213.47 75.1313 220.037 67.3521 230.568C59.5729 241.098 34.955 236.694 38.6278 226.564C42.2829 216.516 68.743 204.399 70.493 213.47Z" fill="#F48C7F"/>
<path d="M114.391 30.3699L85.0152 62.3703C84.0742 63.4085 82.4523 63.3852 81.4224 62.3315L64.7026 45.4732C63.6551 44.4282 63.5852 42.7304 64.5358 41.7112L93.911 9.71092C94.8521 8.6727 96.474 8.69594 97.5039 9.74969L114.224 26.608C115.271 27.6529 115.341 29.3508 114.391 30.3699Z" fill="url(#paint36_linear)"/>
<path d="M87.8201 37.1645C91.1406 40.5202 91.394 45.9242 88.3673 49.2104C85.3406 52.4965 80.1771 52.455 76.8566 49.0993C73.5361 45.7435 73.2827 40.3395 76.3095 37.0534C79.3267 33.7482 84.4725 33.7986 87.8201 37.1645Z" fill="white" fill-opacity="0.6"/>
<path d="M81.5227 38.9431C82.4977 39.9295 82.583 41.5247 81.6755 42.4984C80.7858 43.4633 79.2622 43.462 78.2777 42.4565C77.3027 41.4702 77.2175 39.8749 78.1249 38.9013C79.0146 37.9364 80.5382 37.9377 81.5227 38.9431Z" fill="#B648A4"/>
<path d="M88.1356 43.5812L82.9678 49.2167L82.3427 48.5786C81.1845 47.399 81.0923 45.5224 82.1558 44.3757L83.4893 42.9282C84.5529 41.7814 86.3441 41.7913 87.5023 42.971L88.1356 43.5812Z" fill="#B648A4"/>
<path d="M86.5218 32.4983C86.1329 32.6921 85.6652 32.5928 85.3354 32.2824C84.9044 31.8563 84.8694 31.1617 85.2619 30.7525L98.1053 16.759C98.1925 16.668 98.2715 16.605 98.3776 16.5522C98.7665 16.3584 99.2342 16.4577 99.5639 16.7681C99.995 17.1942 100.03 17.8888 99.6375 18.298L86.7941 32.2915C86.7245 32.3736 86.6278 32.4455 86.5218 32.4983Z" fill="white"/>
<path d="M92.9156 34.6097C92.5267 34.8035 92.0589 34.7042 91.7292 34.3938C91.2981 33.9678 91.2631 33.2731 91.6557 32.864L101.677 21.9384C101.764 21.8475 101.843 21.7845 101.949 21.7316C102.338 21.5379 102.805 21.6371 103.135 21.9475C103.346 22.1511 103.46 22.4265 103.477 22.7269C103.493 23.0273 103.401 23.2867 103.218 23.4964L93.1974 34.422C93.1184 34.4851 93.0217 34.5569 92.9156 34.6097Z" fill="white"/>
<path d="M238.641 294.861H100.004C95.6922 294.861 92.2207 298.636 92.2207 303.258V310.326C92.2207 314.977 95.7202 318.723 100.004 318.723H238.641L238.557 318.632C232.622 312.017 232.65 301.476 238.641 294.861Z" fill="url(#paint37_linear)"/>
<path d="M236.178 298.395H162.072C157.761 298.395 154.289 302.171 154.289 306.792C154.289 311.444 157.789 315.19 162.072 315.19H236.178C233.462 310.024 233.462 303.621 236.178 298.395Z" fill="url(#paint38_linear)"/>
<path d="M352.109 295.555L341.61 267.102C341.078 265.683 341.722 264.051 343.066 263.478L380.889 247.227C382.205 246.653 383.717 247.348 384.249 248.798L394.747 277.251C395.279 278.671 394.635 280.302 393.291 280.876L355.468 297.126C354.153 297.67 352.641 296.975 352.109 295.555Z" fill="url(#paint39_linear)"/>
<path d="M387.777 279.093L378.342 253.54C378.202 253.117 378.37 252.664 378.762 252.513C379.154 252.362 379.574 252.543 379.714 252.966L389.148 278.519C389.288 278.942 389.12 279.395 388.728 279.546C388.364 279.728 387.945 279.516 387.777 279.093Z" fill="#E9EFFD"/>
<path d="M383.296 275.741L375.541 254.748C375.401 254.325 375.569 253.872 375.961 253.721C376.353 253.57 376.773 253.751 376.913 254.174L384.668 275.167C384.808 275.59 384.64 276.043 384.248 276.194C383.856 276.345 383.436 276.163 383.296 275.741Z" fill="#E9EFFD"/>
<path d="M382.177 281.51L372.742 255.956C372.602 255.534 372.77 255.081 373.162 254.93C373.554 254.779 373.974 254.96 374.114 255.383L383.549 280.936C383.689 281.359 383.521 281.812 383.129 281.963C382.737 282.144 382.317 281.933 382.177 281.51Z" fill="#E9EFFD"/>
<path d="M377.193 276.889L369.914 257.165C369.774 256.742 369.942 256.289 370.334 256.138C370.726 255.987 371.146 256.168 371.286 256.591L378.565 276.315C378.705 276.738 378.537 277.191 378.145 277.342C377.781 277.523 377.361 277.311 377.193 276.889Z" fill="#E9EFFD"/>
<path d="M387.523 250.822L387.327 250.308C387.243 250.127 387.075 250.036 386.907 250.097L383.324 251.637C383.156 251.698 383.072 251.909 383.156 252.12L383.352 252.634C383.408 252.815 383.604 252.906 383.772 252.845L387.355 251.305C387.523 251.214 387.607 251.003 387.523 250.822Z" fill="#355389"/>
<path d="M388.336 253.027L388.14 252.513C388.084 252.332 387.888 252.241 387.72 252.302L384.136 253.842C383.969 253.903 383.885 254.114 383.968 254.326L384.164 254.839C384.22 255.02 384.416 255.111 384.584 255.051L388.168 253.51C388.336 253.419 388.42 253.208 388.336 253.027Z" fill="#355389"/>
<path d="M389.148 255.231L388.952 254.718C388.896 254.537 388.7 254.446 388.532 254.506L384.949 256.047C384.781 256.107 384.697 256.319 384.781 256.53L384.977 257.044C385.033 257.225 385.229 257.316 385.397 257.255L388.98 255.715C389.148 255.624 389.232 255.413 389.148 255.231Z" fill="#355389"/>
<path d="M389.959 257.436L389.763 256.923C389.679 256.742 389.511 256.651 389.343 256.712L385.76 258.252C385.592 258.312 385.508 258.524 385.592 258.735L385.788 259.249C385.872 259.43 386.04 259.521 386.208 259.46L389.791 257.92C389.959 257.829 390.043 257.618 389.959 257.436Z" fill="#355389"/>
<path d="M390.801 259.611L390.605 259.098C390.549 258.917 390.353 258.826 390.185 258.886L386.601 260.427C386.433 260.487 386.349 260.699 386.433 260.91L386.629 261.424C386.685 261.605 386.881 261.695 387.049 261.635L390.633 260.095C390.773 260.034 390.857 259.823 390.801 259.611Z" fill="#355389"/>
<path d="M391.611 261.816L391.415 261.302C391.331 261.121 391.163 261.031 390.995 261.091L387.412 262.631C387.244 262.692 387.16 262.903 387.244 263.115L387.44 263.628C387.496 263.809 387.692 263.9 387.86 263.84L391.443 262.299C391.583 262.239 391.667 262.027 391.611 261.816Z" fill="#355389"/>
<path d="M392.424 264.021L392.228 263.508C392.172 263.327 391.976 263.236 391.808 263.296L388.224 264.837C388.056 264.897 387.972 265.109 388.056 265.32L388.252 265.834C388.308 266.015 388.504 266.106 388.672 266.045L392.256 264.505C392.396 264.414 392.48 264.203 392.424 264.021Z" fill="#355389"/>
<path d="M393.236 266.226L393.04 265.712C392.984 265.531 392.788 265.441 392.62 265.501L389.037 267.041C388.869 267.102 388.785 267.313 388.869 267.525L389.065 268.038C389.121 268.219 389.317 268.31 389.485 268.25L393.068 266.709C393.208 266.619 393.292 266.407 393.236 266.226Z" fill="#355389"/>
<path d="M394.047 268.431L393.851 267.918C393.795 267.736 393.599 267.646 393.431 267.706L389.847 269.247C389.679 269.307 389.595 269.518 389.679 269.73L389.875 270.243C389.959 270.425 390.127 270.515 390.295 270.455L393.879 268.914C394.019 268.824 394.103 268.612 394.047 268.431Z" fill="#355389"/>
<path d="M394.859 270.636L394.663 270.123C394.579 269.941 394.411 269.851 394.243 269.911L390.66 271.452C390.492 271.512 390.408 271.724 390.492 271.935L390.688 272.449C390.744 272.63 390.94 272.72 391.108 272.66L394.691 271.119C394.859 271.029 394.915 270.817 394.859 270.636Z" fill="#355389"/>
<path d="M395.672 272.841L395.476 272.328C395.42 272.146 395.224 272.056 395.056 272.116L391.472 273.657C391.304 273.717 391.22 273.929 391.304 274.14L391.5 274.653C391.584 274.835 391.752 274.925 391.92 274.865L395.504 273.325C395.672 273.234 395.728 273.022 395.672 272.841Z" fill="#355389"/>
<path d="M396.482 275.046L396.286 274.532C396.23 274.351 396.034 274.26 395.866 274.321L392.283 275.861C392.115 275.922 392.031 276.133 392.115 276.345L392.311 276.858C392.367 277.039 392.563 277.13 392.731 277.07L396.314 275.529C396.482 275.438 396.538 275.227 396.482 275.046Z" fill="#355389"/>
<path d="M406.394 272.78L391.388 295.827C391.36 295.887 391.332 295.948 391.304 296.008L389.765 301.083C389.597 301.687 390.213 302.17 390.689 301.777L394.692 298.515C394.748 298.485 394.776 298.424 394.832 298.364L409.894 275.257C410.09 274.955 410.006 274.562 409.726 274.351L407.206 272.599C406.926 272.418 406.59 272.478 406.394 272.78Z" fill="url(#paint40_linear)"/>
<path d="M394.832 298.394L394.804 298.454L390.941 301.595L389.877 300.84L391.333 296.038C392.425 296.702 393.796 297.397 394.832 298.394Z" fill="#F7CC7F"/>
<path d="M274.009 10.2841C274.998 12.9669 275.41 20.0171 277.613 26.0231C278.891 29.5198 281.074 30.0351 284 32.1671C297.849 42.3267 291.992 43.3669 293.596 44.7003C292.382 45.6843 281.906 53.7204 279.854 55.4132C277.952 56.948 276.096 57.061 274.242 55.6585C271.419 53.5143 268.488 51.4487 265.835 49.0538C259.051 42.9319 257.026 36.3696 254.243 28.217C253.511 26.0555 254.073 24.1606 255.882 22.6779C264.371 15.7503 273.165 10.8865 274.009 10.2841Z" fill="url(#paint41_linear)"/>
<path d="M288.186 58.3636C286.192 61.8119 286.045 62.6611 284.961 61.3732C284.301 60.595 283.723 59.7247 283.145 58.8543C282.755 58.2253 282.948 57.8152 283.691 57.5706C284.747 57.2231 285.812 56.9155 286.868 56.5679C287.133 54.9223 288.57 53.6482 290.171 53.5326C290.504 53.5096 290.157 53.7319 295.041 49.7431C288.684 45.0614 284.171 41.7424 276.408 36.0086C274.333 34.484 272.867 32.4341 271.982 29.9119C268.956 21.2114 265.955 12.5245 262.94 3.86397C262.536 2.67643 263.02 1.56494 264.109 1.0981C264.949 0.73492 265.627 1.07456 266.256 1.55994C268.026 2.88187 285.382 15.7385 287.142 17.0204C289.472 18.7206 291.105 20.9318 292.086 23.7475C295.047 32.2744 298.032 40.815 301.017 49.3555C301.435 50.5166 301.278 51.326 300.547 51.9562C299.734 52.6786 298.838 52.7354 297.952 51.9016C297.317 51.3098 296.828 51.3842 296.175 51.9887C293.189 54.6818 291.971 54.9745 291.582 56.3795C291.27 57.4131 289.337 58.4824 288.186 58.3636Z" fill="url(#paint42_linear)"/>
<path d="M325.289 329.747L329.181 333.764C338.391 343.249 345.894 354.455 351.326 366.869L351.913 368.228C351.913 368.228 362.104 369.195 363.532 359.257C354.601 348.353 347.238 336.724 341.163 323.796L339.315 319.145L325.289 329.747Z" fill="url(#paint43_linear)"/>
<path d="M339.314 319.146C339.818 319.931 337.074 322.922 333.211 325.821C329.348 328.721 325.764 330.503 325.288 329.718C324.784 328.932 327.528 325.912 331.419 323.012C335.283 320.113 338.81 318.361 339.314 319.146Z" fill="url(#paint44_linear)"/>
<path d="M339.342 319.176C339.342 319.176 331.559 326.244 328.367 326.969L329.347 328.419C330.523 327.724 331.839 326.848 333.21 325.821C337.046 322.951 339.762 319.991 339.342 319.176Z" fill="url(#paint45_linear)"/>
<path fill-rule="evenodd" clip-rule="evenodd" d="M349.699 339.747C349.699 340.904 349.314 345.802 342.146 348.151L341.889 346.874L329.906 346.421L332.734 349.019L331.054 352.342L341.795 349.387C342.066 349.793 342.334 350.202 342.595 350.619L338.726 357.869L341.693 356.631L342.869 359.168L344.857 350.771L344.014 350.377C348.271 348.705 350.268 346.141 351.239 344.157C351.378 343.881 351.537 343.5 351.667 343.189C351.694 343.126 351.719 343.065 351.743 343.009C351.043 341.922 350.372 340.835 349.7 339.749L349.699 339.747Z" fill="url(#paint46_linear)"/>
<path d="M344.577 352.04C342.477 352.191 340.657 350.439 340.489 348.113C340.349 345.787 341.917 343.764 344.017 343.582C346.116 343.431 347.936 345.183 348.104 347.509C348.272 349.865 346.704 351.889 344.577 352.04Z" fill="url(#paint47_linear)"/>
<path d="M370 170.778L344.803 146.524C343.18 144.953 343.851 141.691 346.119 140.332L366.221 128.038C367.508 127.253 368.964 127.313 369.888 128.219L395.085 152.474C396.708 154.045 396.037 157.307 393.769 158.666L373.667 170.96C372.38 171.745 370.924 171.654 370 170.778Z" fill="url(#paint48_linear)"/>
<path d="M368.797 151.477L366.697 132.841C366.613 132.116 367.089 131.36 367.761 131.149C368.433 130.907 369.049 131.33 369.133 132.025L371.065 149.182L390.158 154.165C390.774 154.316 391.082 155.041 390.802 155.796C390.522 156.521 389.822 156.974 389.178 156.823L368.797 151.477Z" fill="white"/>
<path d="M39.7549 66.0872L42.3585 71.6449L48.2657 71.4636L50.7573 77.8974L56.9725 75.6018L60.1081 82.7605L66.0713 81.4012L70.1308 87.7744L67.8911 89.4357L64.8675 84.6633L58.5683 86.1131L55.5447 79.2264L49.2456 81.5522L46.474 74.454L40.7347 74.6352L38.327 69.5003L34.5756 70.4669L33.9316 67.6276L39.7549 66.0872Z" fill="url(#paint49_linear)"/>
<path d="M354.882 208.293L360.229 210.649L364.541 206.33L370.364 209.411L373.639 203.279L380.358 206.451L384.026 201.195L390.969 203.128L390.297 205.937L385.09 204.517L381.226 210.045L374.759 206.994L371.456 213.247L365.016 209.834L360.817 214.062L355.862 211.888L353.622 215.27L351.41 213.579L354.882 208.293Z" fill="url(#paint50_linear)"/>
<defs>
<linearGradient id="paint0_linear" x1="188" y1="65.9316" x2="188" y2="369.265" gradientUnits="userSpaceOnUse">
<stop stop-color="#FFC48E" stop-opacity="0.71"/>
<stop offset="1" stop-color="#ADA4FF"/>
</linearGradient>
<linearGradient id="paint1_linear" x1="168.5" y1="157.266" x2="168.5" y2="378.266" gradientUnits="userSpaceOnUse">
<stop stop-color="#86B1F2" stop-opacity="0"/>
<stop offset="0.778307" stop-color="#BE63B5" stop-opacity="0.33"/>
<stop offset="1" stop-color="#CE4DA3" stop-opacity="0"/>
</linearGradient>
<linearGradient id="paint2_linear" x1="76" y1="173.265" x2="193.5" y2="32.7654" gradientUnits="userSpaceOnUse">
<stop stop-color="#50BFA5"/>
<stop offset="1" stop-color="#7B95F2"/>
</linearGradient>
<linearGradient id="paint3_linear" x1="404.5" y1="323.266" x2="349" y2="313.266" gradientUnits="userSpaceOnUse">
<stop stop-color="#50BFA5"/>
<stop offset="1" stop-color="#7B95F2"/>
</linearGradient>
<linearGradient id="paint4_linear" x1="119.848" y1="225.842" x2="119.848" y2="403.267" gradientUnits="userSpaceOnUse">
<stop stop-color="#7D3484"/>
<stop offset="1" stop-color="#E24687"/>
</linearGradient>
<linearGradient id="paint5_linear" x1="59.38" y1="280.443" x2="83.501" y2="355.265" gradientUnits="userSpaceOnUse">
<stop stop-color="#E34686"/>
<stop offset="1" stop-color="#6410A3"/>
</linearGradient>
<linearGradient id="paint6_linear" x1="27.501" y1="263.765" x2="101.001" y2="433.265" gradientUnits="userSpaceOnUse">
<stop stop-color="#DC5191"/>
<stop offset="1" stop-color="#5825D7"/>
</linearGradient>
<linearGradient id="paint7_linear" x1="99.5" y1="407.265" x2="9" y2="387.265" gradientUnits="userSpaceOnUse">
<stop stop-color="#AC39C9"/>
<stop offset="1" stop-color="#4FB9FA"/>
</linearGradient>
<linearGradient id="paint8_linear" x1="104" y1="422.765" x2="57" y2="332.765" gradientUnits="userSpaceOnUse">
<stop stop-color="#4068F5"/>
<stop offset="1" stop-color="#4FB9FA"/>
</linearGradient>
<linearGradient id="paint9_linear" x1="211.999" y1="64.7654" x2="175.999" y2="24.7654" gradientUnits="userSpaceOnUse">
<stop stop-color="#FFDA19"/>
<stop offset="1" stop-color="#FFB530"/>
</linearGradient>
<radialGradient id="paint10_radial" cx="0" cy="0" r="1" gradientUnits="userSpaceOnUse" gradientTransform="translate(187 45.2654) rotate(-12.875) scale(17.9513 11.4175)">
<stop stop-color="white" stop-opacity="0"/>
<stop stop-color="#D9AD60" stop-opacity="0"/>
<stop offset="0.0001" stop-color="white"/>
<stop offset="1" stop-color="white" stop-opacity="0"/>
</radialGradient>
<linearGradient id="paint11_linear" x1="185.999" y1="68.2654" x2="197.999" y2="75.2654" gradientUnits="userSpaceOnUse">
<stop stop-color="#51E0BE"/>
<stop offset="1" stop-color="#18A986"/>
</linearGradient>
<linearGradient id="paint12_linear" x1="317.904" y1="90.8445" x2="334" y2="123.266" gradientUnits="userSpaceOnUse">
<stop stop-color="#FAEF40"/>
<stop offset="1" stop-color="#EC9559"/>
</linearGradient>
<linearGradient id="paint13_linear" x1="378" y1="74.7656" x2="352" y2="121.266" gradientUnits="userSpaceOnUse">
<stop stop-color="#FF604D"/>
<stop offset="1" stop-color="#91B3FA"/>
</linearGradient>
<linearGradient id="paint14_linear" x1="191.047" y1="368.773" x2="305.499" y2="353.266" gradientUnits="userSpaceOnUse">
<stop stop-color="#4042E2"/>
<stop offset="1" stop-color="#8DB0F7"/>
</linearGradient>
<linearGradient id="paint15_linear" x1="155.999" y1="386.266" x2="265.999" y2="373.266" gradientUnits="userSpaceOnUse">
<stop stop-color="#FAE0B2"/>
<stop offset="1" stop-color="#86B1F2"/>
</linearGradient>
<linearGradient id="paint16_linear" x1="144.999" y1="306.766" x2="169.822" y2="368.803" gradientUnits="userSpaceOnUse">
<stop stop-color="#86B1F2"/>
<stop offset="1" stop-color="#105FD7"/>
</linearGradient>
<linearGradient id="paint17_linear" x1="223" y1="323.766" x2="161" y2="373.266" gradientUnits="userSpaceOnUse">
<stop stop-color="#86B1F2"/>
<stop offset="1" stop-color="#F7CC7F"/>
</linearGradient>
<linearGradient id="paint18_linear" x1="158.501" y1="310.266" x2="189.501" y2="327.766" gradientUnits="userSpaceOnUse">
<stop stop-color="#005DFF"/>
<stop offset="1" stop-color="#BED2FA"/>
</linearGradient>
<linearGradient id="paint19_linear" x1="139.5" y1="296.266" x2="86.5" y2="357.266" gradientUnits="userSpaceOnUse">
<stop stop-color="#BE4747"/>
<stop offset="1" stop-color="#1A0F91"/>
</linearGradient>
<linearGradient id="paint20_linear" x1="328" y1="129.765" x2="253" y2="238.765" gradientUnits="userSpaceOnUse">
<stop stop-color="#47A3C1"/>
<stop offset="1" stop-color="#145063"/>
</linearGradient>
<linearGradient id="paint21_linear" x1="318.5" y1="122.765" x2="248.5" y2="254.265" gradientUnits="userSpaceOnUse">
<stop stop-color="white"/>
<stop offset="1" stop-color="#F3C87D"/>
</linearGradient>
<linearGradient id="paint22_linear" x1="252.147" y1="356.298" x2="228" y2="385.766" gradientUnits="userSpaceOnUse">
<stop stop-color="#256659"/>
<stop offset="1" stop-color="#084438"/>
</linearGradient>
<linearGradient id="paint23_linear" x1="255.87" y1="247.428" x2="255.87" y2="335.155" gradientUnits="userSpaceOnUse">
<stop stop-color="#113165"/>
<stop offset="1" stop-color="#345385"/>
</linearGradient>
<linearGradient id="paint24_linear" x1="224.667" y1="237.62" x2="299" y2="327.266" gradientUnits="userSpaceOnUse">
<stop stop-color="#2756A7"/>
<stop offset="1" stop-color="#476EB2"/>
</linearGradient>
<linearGradient id="paint25_linear" x1="281.309" y1="353.036" x2="281.309" y2="385.402" gradientUnits="userSpaceOnUse">
<stop stop-color="#256155"/>
<stop offset="1" stop-color="#408B7C"/>
</linearGradient>
<linearGradient id="paint26_linear" x1="147.5" y1="208.766" x2="202.5" y2="72.7656" gradientUnits="userSpaceOnUse">
<stop stop-color="#50246D"/>
<stop offset="0.306312" stop-color="#7B2E78"/>
<stop offset="0.792031" stop-color="#BE3D89"/>
<stop offset="1" stop-color="#DB4490"/>
</linearGradient>
<linearGradient id="paint27_linear" x1="162.5" y1="117.765" x2="207" y2="257.765" gradientUnits="userSpaceOnUse">
<stop stop-color="#AFF9E7"/>
<stop offset="1" stop-color="#43CFAD"/>
</linearGradient>
<linearGradient id="paint28_linear" x1="190.121" y1="95.4453" x2="190.121" y2="132.202" gradientUnits="userSpaceOnUse">
<stop stop-color="#FCA34F"/>
<stop offset="1" stop-color="#F6B476"/>
</linearGradient>
<linearGradient id="paint29_linear" x1="180.395" y1="95.2944" x2="170" y2="121.266" gradientUnits="userSpaceOnUse">
<stop stop-color="#BC3D88"/>
<stop offset="1" stop-color="#A73883"/>
</linearGradient>
<linearGradient id="paint30_linear" x1="176.559" y1="148.297" x2="201.999" y2="233.266" gradientUnits="userSpaceOnUse">
<stop stop-color="#35FFCF"/>
<stop offset="1" stop-color="#86B1F2"/>
</linearGradient>
<linearGradient id="paint31_linear" x1="47.6365" y1="114.523" x2="47.6365" y2="127.923" gradientUnits="userSpaceOnUse">
<stop stop-color="#3B7CFF"/>
<stop offset="1" stop-color="#5E2771"/>
</linearGradient>
<linearGradient id="paint32_linear" x1="163.5" y1="153.765" x2="3" y2="172.265" gradientUnits="userSpaceOnUse">
<stop offset="0.024352" stop-color="#C751B8"/>
<stop offset="1" stop-color="#F56060"/>
</linearGradient>
<linearGradient id="paint33_linear" x1="314" y1="58.2656" x2="346" y2="9.26563" gradientUnits="userSpaceOnUse">
<stop stop-color="#50BFA5"/>
<stop offset="1" stop-color="#00FFC3" stop-opacity="0"/>
</linearGradient>
<radialGradient id="paint34_radial" cx="0" cy="0" r="1" gradientUnits="userSpaceOnUse" gradientTransform="translate(55 208.765) rotate(63.1456) scale(44.2747 44.8008)">
<stop stop-color="#F47458"/>
<stop offset="1" stop-color="#7B95F2"/>
</radialGradient>
<linearGradient id="paint35_linear" x1="61.6178" y1="207.5" x2="61.6178" y2="228.875" gradientUnits="userSpaceOnUse">
<stop stop-color="#F48C7F"/>
<stop offset="1" stop-color="#F48C7F" stop-opacity="0"/>
</linearGradient>
<linearGradient id="paint36_linear" x1="60.7918" y1="57.2116" x2="58.3597" y2="-85.6378" gradientUnits="userSpaceOnUse">
<stop stop-color="#D94492"/>
<stop offset="1" stop-color="#005DFF"/>
</linearGradient>
<linearGradient id="paint37_linear" x1="113.5" y1="272.265" x2="124.5" y2="321.765" gradientUnits="userSpaceOnUse">
<stop stop-color="#E68FE8"/>
<stop offset="1" stop-color="#282AED"/>
</linearGradient>
<linearGradient id="paint38_linear" x1="236" y1="233.265" x2="136" y2="334.765" gradientUnits="userSpaceOnUse">
<stop stop-color="#EEF7FF"/>
<stop offset="0.586616" stop-color="#A3C0FB"/>
<stop offset="1" stop-color="#91B3FA"/>
</linearGradient>
<linearGradient id="paint39_linear" x1="325.999" y1="356.265" x2="394.999" y2="208.265" gradientUnits="userSpaceOnUse">
<stop stop-color="#FDF7C4"/>
<stop offset="1" stop-color="#EC9559"/>
</linearGradient>
<linearGradient id="paint40_linear" x1="399.869" y1="272.497" x2="400" y2="297.265" gradientUnits="userSpaceOnUse">
<stop stop-color="#B25742"/>
<stop offset="0.811872" stop-color="#FDB433"/>
</linearGradient>
<linearGradient id="paint41_linear" x1="220.414" y1="24.2841" x2="281.032" y2="33.0713" gradientUnits="userSpaceOnUse">
<stop stop-color="#B7D2FF"/>
<stop offset="1" stop-color="#194DAB"/>
</linearGradient>
<linearGradient id="paint42_linear" x1="313.802" y1="-22.2565" x2="309.831" y2="47.7424" gradientUnits="userSpaceOnUse">
<stop stop-color="#63ECFF"/>
<stop offset="1" stop-color="#4042E2"/>
</linearGradient>
<linearGradient id="paint43_linear" x1="364" y1="355.765" x2="369" y2="266.765" gradientUnits="userSpaceOnUse">
<stop stop-color="#B64689"/>
<stop offset="1" stop-color="#083381"/>
</linearGradient>
<linearGradient id="paint44_linear" x1="345.5" y1="297.765" x2="322" y2="350.265" gradientUnits="userSpaceOnUse">
<stop stop-color="#2958FF"/>
<stop offset="1" stop-color="#FD928E"/>
</linearGradient>
<linearGradient id="paint45_linear" x1="333.876" y1="319.176" x2="333.876" y2="328.419" gradientUnits="userSpaceOnUse">
<stop stop-color="#355389"/>
<stop offset="0.9999" stop-color="#7B4086"/>
<stop offset="1" stop-color="#355389" stop-opacity="0"/>
</linearGradient>
<linearGradient id="paint46_linear" x1="351.999" y1="330.766" x2="340.824" y2="359.168" gradientUnits="userSpaceOnUse">
<stop stop-color="#9EC8FF"/>
<stop offset="1" stop-color="#4142DE"/>
</linearGradient>
<linearGradient id="paint47_linear" x1="354.499" y1="344.266" x2="343.999" y2="367.766" gradientUnits="userSpaceOnUse">
<stop stop-color="#1A0F91"/>
<stop offset="1" stop-color="#F47458"/>
</linearGradient>
<linearGradient id="paint48_linear" x1="407.001" y1="87.2654" x2="383.001" y2="177.765" gradientUnits="userSpaceOnUse">
<stop stop-color="#3945F3"/>
<stop offset="1" stop-color="#B8EBFE"/>
</linearGradient>
<linearGradient id="paint49_linear" x1="52.0312" y1="66.0872" x2="52.0312" y2="89.4357" gradientUnits="userSpaceOnUse">
<stop stop-color="#F7CC7F"/>
<stop offset="1" stop-color="#7B95F2"/>
</linearGradient>
<linearGradient id="paint50_linear" x1="371.19" y1="201.195" x2="371.19" y2="215.27" gradientUnits="userSpaceOnUse">
<stop stop-color="#50BBA1"/>
<stop offset="1" stop-color="#91B3FA"/>
</linearGradient>
</defs>
</svg>
