<svg width="105" height="102" viewBox="0 0 105 102" fill="none" xmlns="http://www.w3.org/2000/svg">
<path d="M68.3799 37.2194C68.3799 36.5127 68.3799 35.9238 68.2614 35.2171C68.1429 33.9215 68.0244 32.6259 67.6688 31.3303C65.0616 19.1986 54.1587 10.1293 41.1226 10.1293C26.0718 10.1293 13.8652 22.261 13.8652 37.2194C13.8652 42.0485 15.1688 46.5243 17.4205 50.5289C18.0131 51.4711 18.6056 52.4134 19.1982 53.2379C24.1756 59.9515 32.2343 64.3095 41.2411 64.3095C56.1734 64.3095 68.3799 52.1778 68.3799 37.2194ZM16.9465 37.2194C16.9465 24.0277 27.7309 13.3095 41.0041 13.3095C53.2106 13.3095 63.284 22.3788 64.8246 34.0393L56.1734 42.2841C55.3438 41.8129 54.5142 41.5774 53.5661 41.5774C51.67 41.5774 50.1293 42.5196 49.1813 44.0508L36.1451 38.9861C36.0266 36.2771 33.7749 34.0393 30.9307 34.0393C28.0865 34.0393 25.7163 36.3949 25.7163 39.2217C25.7163 39.9284 25.8348 40.5173 26.0718 41.224L19.4352 48.1732C18.0131 44.7575 16.9465 41.1062 16.9465 37.2194ZM55.6993 46.7598C55.6993 47.8199 54.7512 48.7621 53.6846 48.7621C52.6181 48.7621 51.67 47.8199 51.67 46.7598C51.67 45.6998 52.6181 44.7575 53.6846 44.7575C54.7512 44.7575 55.6993 45.582 55.6993 46.7598ZM29.0345 39.2217C29.0345 38.1617 29.9826 37.2194 31.0492 37.2194C32.1158 37.2194 33.0639 38.1617 33.0639 39.2217C33.0639 40.2818 32.1158 41.224 31.0492 41.224C29.9826 41.224 29.0345 40.2818 29.0345 39.2217ZM41.1226 61.1293C32.9454 61.1293 25.7163 57.0069 21.3314 50.8822L28.3235 43.5797C29.153 44.0508 30.1011 44.4042 31.0492 44.4042C32.8269 44.4042 34.486 43.4619 35.4341 42.0485L48.4702 47.1132C48.7072 49.8222 50.8404 51.9423 53.6846 51.9423C56.5289 51.9423 58.8991 49.5866 58.8991 46.7598C58.8991 46.0531 58.7806 45.3464 58.4251 44.6397L65.0616 38.2794C64.5876 51 54.0402 61.1293 41.1226 61.1293Z" fill="#1A0F91"/>
<path d="M101.919 83.5081L77.9797 58.7737L75.728 60.8938L72.4097 57.4781C76.202 51.5889 78.4537 44.6397 78.4537 37.2194C78.4537 33.6859 77.9797 30.1524 77.0316 26.8545L82.3646 21.7898C82.9571 22.0254 83.4311 22.1432 84.1422 22.1432C86.9865 22.1432 89.3567 19.7875 89.3567 16.9607C89.3567 16.1363 89.1196 15.4296 88.7641 14.7229L97.8894 5.65358V10.2471H101.089V0H91.2528V3.18014H95.7562L86.5124 12.3672C85.9199 12.0139 85.0903 11.7783 84.1422 11.7783C81.298 11.7783 78.9278 14.1339 78.9278 16.9607C78.9278 18.0208 79.2833 19.0808 79.8758 19.9053L75.965 23.5566C70.395 9.77598 56.8849 0 41.123 0C20.3837 0 3.67381 16.7252 3.67381 37.2194C3.67381 44.9931 6.04402 52.06 10.0734 58.067L7.11061 61.1293C6.51806 60.8938 5.807 60.776 5.21445 60.776C2.3702 60.776 0 63.0139 0 65.9584C0 68.7852 2.3702 71.1409 5.21445 71.1409C8.05869 71.1409 10.4289 68.7852 10.4289 65.9584C10.4289 64.8984 10.0734 63.9561 9.59932 63.1316L11.9695 60.6582C18.8431 69.0208 29.272 74.4388 41.0045 74.4388C48.4706 74.4388 55.3442 72.3187 61.1512 68.5497L64.2325 71.7298L61.9808 73.8499L85.9199 98.5843C88.053 100.704 90.8973 102 93.86 102C96.7043 102 99.43 100.94 101.445 98.9376C103.578 96.9353 104.763 94.2263 104.881 91.2818C105 88.3372 103.933 85.6282 101.919 83.5081ZM84.1422 14.9584C85.2088 14.9584 86.1569 15.9007 86.1569 16.9607C86.1569 18.0208 85.3273 18.963 84.1422 18.963C82.9571 18.963 82.1275 18.0208 82.1275 16.9607C82.1275 15.9007 83.0756 14.9584 84.1422 14.9584ZM5.21445 67.9607C4.14786 67.9607 3.19977 67.0185 3.19977 65.9584C3.19977 64.8984 4.14786 63.9561 5.21445 63.9561C6.28104 63.9561 7.22912 64.7806 7.22912 65.9584C7.22912 67.0185 6.28104 67.9607 5.21445 67.9607ZM14.2212 58.3025C13.5102 57.4781 12.9176 56.5358 12.3251 55.7113C8.88826 50.4111 6.87359 44.0508 6.87359 37.2194C6.87359 18.4919 22.2799 3.18014 41.123 3.18014C56.0553 3.18014 68.7359 12.7206 73.4763 26.03C73.8318 27.2079 74.1874 28.2679 74.5429 29.4457C75.1354 31.9192 75.491 34.6282 75.491 37.2194C75.491 44.4042 73.2393 51.1178 69.4469 56.5358L59.4921 65.9584C54.1591 69.2564 47.9966 71.2587 41.2415 71.2587C30.2201 71.2587 20.5023 66.194 14.2212 58.3025ZM63.877 66.6651C66.3657 64.7806 68.6174 62.5427 70.5135 60.0693L73.3578 63.0139L66.6027 69.4919L63.877 66.6651ZM69.921 70.9053L77.9797 63.2494L80.5869 65.9584L69.3284 76.7945L66.7212 74.0855L69.921 70.9053ZM99.43 96.6998C98.0079 98.1132 95.9932 98.8199 93.9786 98.8199C91.8454 98.8199 89.8307 97.9954 88.2901 96.4642L71.4616 79.0323L82.7201 68.1963L99.667 85.746C101.089 87.2771 101.919 89.1617 101.8 91.2818C101.8 93.2841 100.971 95.2864 99.43 96.6998Z" fill="#C1DAF3"/>
<circle cx="41.5" cy="37.5" r="25.7" stroke="#005DFF" stroke-width="3.6"/>
</svg>
