<svg width="12" height="11" viewBox="0 0 12 11" fill="none" xmlns="http://www.w3.org/2000/svg">
<rect y="11" width="11" height="12" rx="5.5" transform="rotate(-90 0 11)" fill="#5280FF"/>
<path d="M1.16704 3.85082L1.16822 3.86176L1.1706 3.87251C1.18313 3.92919 1.21132 3.9815 1.25233 4.02318L5.77316 8.847L5.77316 8.847L5.77409 8.84798C5.8026 8.87799 5.83694 8.90206 5.87518 8.91857C5.91344 8.93509 5.9547 8.94365 5.9965 8.94365C6.03829 8.94365 6.07955 8.93509 6.11781 8.91857C6.15605 8.90206 6.19039 8.87799 6.2189 8.84798L6.21983 8.847L10.7373 4.02673C10.7656 4.00017 10.7885 3.96859 10.805 3.93372C10.8234 3.89484 10.8335 3.85261 10.8348 3.80975C10.8361 3.7669 10.8285 3.72417 10.8125 3.68429L10.8125 3.68428C10.7965 3.6444 10.7723 3.60812 10.7413 3.57791L10.7413 3.5779C10.7103 3.5477 10.6731 3.52424 10.6322 3.50929C10.5912 3.49434 10.5475 3.48829 10.504 3.49162L10.5192 3.69104L10.504 3.49162C10.4604 3.49495 10.4182 3.50755 10.38 3.52849L10.4762 3.70385L10.38 3.52849C10.3457 3.54729 10.3155 3.57238 10.2908 3.60223L5.9965 8.18136L1.69686 3.59655L1.6961 3.59575C1.65448 3.55185 1.60066 3.52094 1.54113 3.50744C1.48157 3.49394 1.41942 3.49859 1.36259 3.52069C1.30578 3.54278 1.2572 3.58115 1.22247 3.63046C1.18911 3.67783 1.16982 3.73343 1.16636 3.79081C1.16466 3.81078 1.16488 3.83088 1.16704 3.85082Z" fill="white" stroke="white" stroke-width="0.4"/>
</svg>
