<svg width="123" height="92" viewBox="0 0 123 92" fill="none" xmlns="http://www.w3.org/2000/svg">
<path d="M103.937 9.26777H18.3556C17.2094 9.26777 16.4453 10.0319 16.4453 11.1781V67.3409C16.4453 68.4871 17.2094 69.2512 18.3556 69.2512H103.937C105.083 69.2512 105.847 68.4871 105.847 67.3409V11.1781C105.847 10.2229 105.083 9.26777 103.937 9.26777ZM102.027 65.4306H20.2659V13.0884H102.027V65.4306Z" fill="#7B95F2"/>
<path d="M105.847 0.289551H16.4447C11.0959 0.289551 6.89324 4.49221 6.89324 9.84105V74.6002H3.26367C1.35337 74.6002 -0.174874 76.3195 0.0161562 78.2298C0.971306 85.871 7.2753 91.4109 14.9165 91.4109H107.184C114.825 91.4109 121.32 85.68 122.084 78.2298C122.275 76.3195 120.747 74.6002 118.837 74.6002H115.207V9.84105C115.398 4.49221 111.005 0.289551 105.847 0.289551ZM10.7138 9.84105C10.7138 6.59354 13.1972 4.11015 16.4447 4.11015H105.847C109.094 4.11015 111.578 6.59354 111.578 9.84105V74.6002H10.7138V9.84105ZM107.375 87.5903H14.9165C9.37663 87.5903 4.79191 83.5786 3.83676 78.2298H118.455C117.5 83.7697 112.724 87.5903 107.375 87.5903Z" fill="#C1DAF3"/>
<path d="M55.2248 84.916H67.0686C68.2148 84.916 68.9789 84.1518 68.9789 83.0057C68.9789 81.8595 68.2148 81.0954 67.0686 81.0954H55.2248C54.0786 81.0954 53.3145 81.8595 53.3145 83.0057C53.3145 84.1518 54.0786 84.916 55.2248 84.916Z" fill="#BED2FA"/>
<path d="M37.4572 62.5653H42.8061C44.3343 62.5653 45.6715 61.2281 45.6715 59.6999V53.5869C45.6715 52.0587 44.3343 50.7215 42.8061 50.7215H37.4572C35.929 50.7215 34.5918 52.0587 34.5918 53.5869V59.6999C34.5918 61.4191 35.929 62.5653 37.4572 62.5653ZM38.4124 54.5421H41.8509V58.7447H38.4124V54.5421Z" fill="#005DFF"/>
<path d="M56.7514 45.7548H51.4026C49.8743 45.7548 48.5371 47.092 48.5371 48.6202V59.7C48.5371 61.2282 49.8743 62.5654 51.4026 62.5654H56.7514C58.2796 62.5654 59.6169 61.2282 59.6169 59.7V48.6202C59.6169 47.092 58.4707 45.7548 56.7514 45.7548ZM55.7963 58.7448H52.3577V49.5754H55.7963V58.7448Z" fill="#005DFF"/>
<path d="M70.8881 40.7878H65.5393C64.011 40.7878 62.6738 42.125 62.6738 43.6533V59.8908C62.6738 61.4191 64.011 62.7563 65.5393 62.7563H70.8881C72.4164 62.7563 73.7536 61.4191 73.7536 59.8908V43.6533C73.7536 41.934 72.4164 40.7878 70.8881 40.7878ZM69.933 58.7446H66.4944V44.4174H69.933V58.7446Z" fill="#005DFF"/>
<path d="M79.4846 34.293C77.9564 34.293 76.6191 35.6302 76.6191 37.1585V59.891C76.6191 61.4193 77.9564 62.7565 79.4846 62.7565H84.8334C86.3617 62.7565 87.6989 61.4193 87.6989 59.891V37.1585C87.6989 35.6302 86.3617 34.293 84.8334 34.293H79.4846ZM83.8783 58.7449H80.4397V38.1136H83.8783V58.7449Z" fill="#005DFF"/>
<path d="M38.7955 43.0801C39.1776 43.0801 39.5597 42.8891 39.7507 42.6981L51.9766 34.8658L57.1344 38.3044C58.4716 39.2595 60.1909 39.0685 61.5281 38.1133L75.6643 27.6067L78.7208 30.6632C79.2939 31.2363 80.058 31.6183 80.8221 31.6183C81.2042 31.6183 81.3952 31.6183 81.7773 31.4273C82.9235 31.0452 83.6876 30.2811 83.8786 29.1349L85.5979 19.5834C85.7889 18.6283 85.4069 17.6731 84.8338 16.909C84.0697 16.1449 83.1145 15.9539 82.1594 16.1449L72.6079 17.8642C71.4617 18.0552 70.6976 18.8193 70.3155 19.9655C69.9334 21.1117 70.3155 22.2578 71.0796 23.022L73.372 25.3143L59.2358 35.2479L54.0779 31.8094C52.7407 31.0452 51.2125 31.0452 49.8753 31.8094L37.6494 39.6416C36.6942 40.2147 36.5032 41.3609 37.0763 42.316C37.4583 42.6981 38.2224 43.0801 38.7955 43.0801ZM81.3952 19.9655L80.2491 26.8426L74.5182 21.1117L81.3952 19.9655Z" fill="#4042E2"/>
</svg>
