<svg xmlns="http://www.w3.org/2000/svg" viewBox="0 0 25 25" width="25" height="25"><style>tspan { white-space:pre }.shp0 { fill: #ffffff } </style><path fill-rule="evenodd" class="shp0" d="M21.83 0C22.18 0 22.54 0.07 22.87 0.21C23.2 0.35 23.5 0.55 23.75 0.8C24 1.06 24.2 1.36 24.34 1.69C24.48 2.02 24.55 2.37 24.56 2.73L24.56 21.83C24.55 22.19 24.48 22.54 24.34 22.87C24.2 23.2 24 23.5 23.75 23.75C23.5 24 23.2 24.2 22.87 24.34C22.54 24.48 22.19 24.55 21.83 24.56L2.73 24.56C2.37 24.55 2.02 24.48 1.69 24.34C1.36 24.2 1.06 24 0.81 23.75C0.55 23.5 0.35 23.2 0.21 22.87C0.08 22.54 0 22.19 0 21.83L0 2.73C0 2.37 0.08 2.02 0.21 1.69C0.35 1.36 0.55 1.06 0.81 0.81C1.06 0.55 1.36 0.35 1.69 0.21C2.02 0.08 2.37 0 2.73 0L21.83 0ZM2.73 13.64L10.91 13.64L10.91 2.73L2.73 2.73L2.73 13.64ZM13.64 8.18L21.83 8.18L21.83 2.73L13.64 2.73L13.64 8.18ZM13.64 21.83L21.83 21.83L21.83 10.91L13.64 10.91L13.64 21.83ZM2.73 21.83L10.91 21.83L10.91 16.37L2.73 16.37L2.73 21.83Z" /></svg>