<svg xmlns="http://www.w3.org/2000/svg" width="24.555" height="25.919" viewBox="0 0 24.555 25.919"><defs><style>.a{fill:#fff;}</style></defs><path class="a" d="M15.277,2a1.364,1.364,0,0,0-1.364,1.364V6.092H4.364A1.364,1.364,0,0,0,3,7.457v19.1a1.364,1.364,0,0,0,1.364,1.364H26.191a1.364,1.364,0,0,0,1.364-1.364V3.364A1.364,1.364,0,0,0,26.191,2Zm1.364,2.728h8.185V7.457H19.37v2.728h5.457v9.549H19.37v2.728h5.457v2.728H16.642V4.728ZM5.728,8.821h8.185v2.728H8.457v2.728h5.457v5.457H8.457v2.728h5.457v2.728H5.728Z" transform="translate(-3 -2)"/></svg>