<svg xmlns="http://www.w3.org/2000/svg" viewBox="0 0 25 26" width="25" height="26"><style>tspan { white-space:pre }.shp0 { fill: #04354a } </style><path fill-rule="evenodd" class="shp0" d="M23.19 0C23.37 0 23.55 0.04 23.71 0.1C23.88 0.17 24.03 0.27 24.16 0.4C24.28 0.53 24.38 0.68 24.45 0.84C24.52 1.01 24.55 1.18 24.55 1.36L24.55 24.56C24.55 24.74 24.52 24.91 24.45 25.08C24.38 25.24 24.28 25.39 24.16 25.52C24.03 25.65 23.88 25.75 23.71 25.82C23.55 25.89 23.37 25.92 23.19 25.92L1.36 25.92C1.18 25.92 1.01 25.89 0.84 25.82C0.68 25.75 0.53 25.65 0.4 25.52C0.27 25.39 0.17 25.24 0.1 25.08C0.04 24.91 0 24.74 0 24.56L0 5.46C0 5.28 0.04 5.1 0.1 4.93C0.17 4.77 0.27 4.62 0.4 4.49C0.53 4.37 0.68 4.26 0.84 4.2C1.01 4.13 1.18 4.09 1.36 4.09L10.91 4.09L10.91 1.36C10.91 1.18 10.95 1.01 11.02 0.84C11.09 0.68 11.19 0.53 11.31 0.4C11.44 0.27 11.59 0.17 11.76 0.1C11.92 0.04 12.1 0 12.28 0L23.19 0ZM13.64 2.73L13.64 23.19L21.83 23.19L21.83 20.46L16.37 20.46L16.37 17.73L21.83 17.73L21.83 8.19L16.37 8.19L16.37 5.46L21.83 5.46L21.83 2.73L13.64 2.73ZM2.73 23.19L10.91 23.19L10.91 20.46L5.46 20.46L5.46 17.73L10.91 17.73L10.91 12.28L5.46 12.28L5.46 9.55L10.91 9.55L10.91 6.82L2.73 6.82L2.73 23.19Z" /></svg>