<svg xmlns="http://www.w3.org/2000/svg" viewBox="0 0 27 24" width="27" height="24"><style>tspan { white-space:pre }.shp0 { fill: #04354a } </style><path fill-rule="evenodd" class="shp0" d="M23.62 0C23.97 0 24.31 0.07 24.62 0.2C24.94 0.34 25.23 0.53 25.47 0.77C25.71 1.02 25.91 1.31 26.04 1.62C26.17 1.94 26.24 2.28 26.25 2.63L26.25 7.87C26.24 8.22 26.17 8.56 26.04 8.88C25.91 9.19 25.71 9.48 25.47 9.73C25.23 9.97 24.94 10.16 24.62 10.3C24.31 10.43 23.97 10.5 23.62 10.5L0 10.5L3.94 6.56L3.94 2.63C3.94 2.28 4.01 1.94 4.14 1.62C4.27 1.31 4.47 1.02 4.71 0.77C4.95 0.53 5.24 0.34 5.56 0.21C5.88 0.07 6.22 0 6.56 0L23.62 0ZM6.56 7.87L23.62 7.87L23.62 2.63L6.56 2.63L6.56 7.87ZM23.62 13.12C23.96 13.12 24.3 13.19 24.62 13.33C24.94 13.46 25.23 13.65 25.47 13.9C25.71 14.14 25.91 14.43 26.04 14.75C26.17 15.06 26.24 15.4 26.25 15.75L26.25 21C26.24 21.34 26.17 21.68 26.04 22C25.91 22.32 25.71 22.6 25.47 22.85C25.23 23.09 24.94 23.28 24.62 23.42C24.3 23.55 23.96 23.62 23.62 23.62L0 23.62L3.94 19.69L3.94 15.75C3.94 15.41 4.01 15.07 4.14 14.75C4.27 14.43 4.47 14.14 4.71 13.9C4.95 13.66 5.24 13.46 5.56 13.33C5.88 13.2 6.22 13.13 6.56 13.13L23.62 13.12ZM6.56 21L23.62 21L23.62 15.75L6.56 15.75L6.56 21Z" /></svg>