<svg xmlns="http://www.w3.org/2000/svg" width="110" height="114.545" viewBox="0 0 110 114.545">
  <g id="Group_1315" data-name="Group 1315" transform="translate(26 13)">
    <path id="icons8_shield_1" d="M29,3A116.408,116.408,0,0,0,7.662,5.357l-.009.009A4.545,4.545,0,0,0,4,9.818V23.455C4,47.086,26.776,56.964,26.776,56.964a4.526,4.526,0,0,0,4.439,0h.009S54,47.086,54,23.455V9.818a4.545,4.545,0,0,0-3.662-4.461A116.409,116.409,0,0,0,29,3Z" transform="translate(0 14)" fill="#fea43d" opacity="0.3"/>
    <path id="icons8_shield_1-2" data-name="icons8_shield_1" d="M32.894,3A134.538,134.538,0,0,0,8.232,5.724l-.01.01A5.253,5.253,0,0,0,4,10.88V26.64C4,53.953,30.324,65.369,30.324,65.369a5.231,5.231,0,0,0,5.13,0h.01S61.788,53.953,61.788,26.64V10.88a5.253,5.253,0,0,0-4.232-5.156A134.54,134.54,0,0,0,32.894,3Z" transform="translate(-4 -3)" fill="#fea43d"/>
    <path id="icons8_flow" d="M4.043,3A1.043,1.043,0,0,0,3,4.043V8.214A1.043,1.043,0,0,0,4.043,9.256H8.214A1.043,1.043,0,0,0,9.256,8.214V7.171h6.438a3.128,3.128,0,0,0,1.9,1.9v6.44H16.555a1.043,1.043,0,0,0-1.043,1.043V17.6H9.256V16.555a1.043,1.043,0,0,0-1.043-1.043H4.043A1.043,1.043,0,0,0,3,16.555v4.171a1.043,1.043,0,0,0,1.043,1.043H8.214a1.043,1.043,0,0,0,1.043-1.043V19.684h6.256v1.043a1.043,1.043,0,0,0,1.043,1.043h4.171a1.043,1.043,0,0,0,1.043-1.043V16.555a1.043,1.043,0,0,0-1.043-1.043H19.684V9.075A3.126,3.126,0,1,0,15.7,5.085H9.256V4.043A1.043,1.043,0,0,0,8.214,3Z" transform="translate(16.861 14.379)" fill="#fff"/>
  </g>
</svg>
