<svg xmlns="http://www.w3.org/2000/svg" width="23.621" height="23.621" viewBox="0 0 23.621 23.621"><defs><style>.a{fill:#fff;}</style></defs><path class="a" d="M14.81,3a5.249,5.249,0,1,0,5.249,5.249A5.249,5.249,0,0,0,14.81,3Zm0,2.625a2.625,2.625,0,1,1-2.625,2.625A2.624,2.624,0,0,1,14.81,5.625Zm0,11.81C10.689,17.435,3,19.464,3,23.34v3.281H26.621V23.34C26.621,19.464,18.932,17.435,14.81,17.435Zm0,2.625c.26,0,.524.031.787.046l1.838,3.2,1.479-2.681C21.722,21.335,24,22.563,24,23.34V24H5.625V23.34c0-.777,2.274-2,5.082-2.717L12.186,23.3l1.838-3.2C14.286,20.091,14.55,20.059,14.81,20.059Z" transform="translate(-3 -3)"/></svg>