<svg xmlns="http://www.w3.org/2000/svg" width="26.245" height="23.621" viewBox="0 0 26.245 23.621"><defs><style>.a{fill:#fff;}</style></defs><path class="a" d="M8.561,3A2.644,2.644,0,0,0,5.937,5.625V9.561L2,13.5H25.621a2.644,2.644,0,0,0,2.625-2.625V5.625A2.644,2.644,0,0,0,25.621,3Zm0,2.625H25.621v5.249H8.561Zm0,10.5a2.644,2.644,0,0,0-2.625,2.625v3.937L2,26.621H25.621A2.644,2.644,0,0,0,28.245,24V18.747a2.644,2.644,0,0,0-2.625-2.625Zm0,2.625H25.621V24H8.561V18.747Z" transform="translate(-2 -3)"/></svg>