<svg xmlns="http://www.w3.org/2000/svg" viewBox="0 0 24 24" width="24" height="24"><style>tspan { white-space:pre }.shp0 { fill: #04354a } </style><path fill-rule="evenodd" class="shp0" d="M13.82 0.4C14.46 0.66 15.03 1.05 15.52 1.54C16.01 2.02 16.4 2.6 16.66 3.24C16.92 3.88 17.06 4.56 17.06 5.25C17.06 7.37 15.78 9.29 13.82 10.1C11.86 10.91 9.6 10.46 8.1 8.96C6.6 7.46 6.15 5.2 6.96 3.24C7.77 1.28 9.69 0 11.81 0C12.5 0 13.18 0.14 13.82 0.4ZM11.81 2.63C11.47 2.62 11.12 2.69 10.81 2.82C10.49 2.96 10.2 3.15 9.95 3.39C9.71 3.64 9.52 3.93 9.38 4.25C9.25 4.56 9.18 4.91 9.19 5.25C9.19 6.31 9.82 7.27 10.81 7.68C11.79 8.08 12.92 7.86 13.67 7.11C14.42 6.36 14.64 5.23 14.24 4.25C13.83 3.26 12.87 2.63 11.81 2.63ZM11.81 14.43C15.93 14.43 23.62 16.46 23.62 20.34L23.62 23.62L0 23.62L0 20.34C0 16.46 7.69 14.43 11.81 14.43ZM11.81 17.06C11.55 17.06 11.29 17.09 11.02 17.1L9.19 20.3L7.71 17.62C4.9 18.34 2.63 19.56 2.63 20.34L2.63 21L21 21L21 20.34C21 19.56 18.72 18.34 15.91 17.63L14.44 20.31L12.6 17.11C12.33 17.09 12.07 17.06 11.81 17.06L11.81 17.06Z" /></svg>