<svg width="20" height="24" viewBox="0 0 20 24" fill="none" xmlns="http://www.w3.org/2000/svg">
<path d="M18.4083 0.215034L18.4004 0.215632L18.3927 0.216844C18.2939 0.23225 18.1971 0.2679 18.1159 0.325193L1.00822 11.6306L1.00822 11.6306L1.00718 11.6313C0.949472 11.67 0.897894 11.72 0.86028 11.7815C0.822268 11.8435 0.8 11.9151 0.8 11.991C0.8 12.0669 0.822268 12.1384 0.86028 12.2005C0.897894 12.2619 0.949472 12.312 1.00718 12.3507L1.00822 12.3514L18.1113 23.6537C18.1657 23.6963 18.2282 23.7283 18.2936 23.7501C18.3628 23.7732 18.4363 23.7854 18.5099 23.787C18.5835 23.7885 18.6575 23.7794 18.7278 23.7595C18.798 23.7396 18.8654 23.7087 18.9243 23.666C18.9832 23.6234 19.0348 23.5682 19.0697 23.5007C19.1051 23.4323 19.1212 23.3552 19.1126 23.2762C19.1041 23.1977 19.0723 23.1266 19.0263 23.0674C18.9828 23.0115 18.9274 22.967 18.8671 22.9334L2.31959 11.991L18.8741 1.04401L18.8749 1.04344C18.9588 0.987369 19.0304 0.90647 19.0636 0.803239C19.0978 0.696924 19.0846 0.586217 19.032 0.490864C18.9811 0.39849 18.8992 0.330273 18.8092 0.285597C18.7202 0.241362 18.6194 0.218013 18.5188 0.214676C18.4821 0.212116 18.445 0.212236 18.4083 0.215034Z" fill="#005DFF" stroke="#005DFF" stroke-width="0.4"/>
</svg>
