<svg width="48" height="49" viewBox="0 0 48 49" fill="none" xmlns="http://www.w3.org/2000/svg">
<path d="M40.2111 41.1522C40.6305 41.5717 41.3126 41.5732 41.7128 41.1355C45.2046 37.3165 47.3753 32.4623 47.8844 27.2935C48.4287 21.7677 47.0401 16.2242 43.9553 11.6074C40.8705 6.99068 36.2803 3.58637 30.9668 1.97456C25.6534 0.362744 19.9455 0.643157 14.8156 2.76802C9.68573 4.89288 5.45133 8.73071 2.83389 13.6276C0.216448 18.5245 -0.62209 24.1775 0.461153 29.6233C1.5444 35.0691 4.4824 39.9709 8.77456 43.4934C12.7894 46.7883 17.7568 48.6857 22.9263 48.9171C23.5188 48.9436 24 48.4603 24 47.8671C24 47.2739 23.5187 46.7958 22.9263 46.7666C18.2541 46.5369 13.7679 44.8125 10.1373 41.8329C6.2293 38.6257 3.55427 34.1626 2.56798 29.2042C1.58169 24.2458 2.34517 19.0988 4.72834 14.6402C7.11152 10.1816 10.9669 6.68728 15.6376 4.7526C20.3084 2.81792 25.5054 2.56261 30.3433 4.03016C35.1811 5.49771 39.3605 8.59732 42.1692 12.8009C44.9779 17.0044 46.2422 22.0518 45.7467 27.083C45.2863 31.7571 43.3335 36.1486 40.1922 39.6149C39.7939 40.0544 39.7917 40.7328 40.2111 41.1522Z" fill="#BBCFFC"/>
</svg>
