<svg width="99" height="98" viewBox="0 0 99 98" fill="none" xmlns="http://www.w3.org/2000/svg">
<path d="M84.5119 7.27316C75.11 2.57221 62.6037 0 49.2991 0C48.6783 0 48.1461 0.532182 48.1461 1.15306V12.7724H47.2591C38.5668 12.9498 30.5841 14.1028 23.6657 16.2316L23.3109 16.409L20.2952 17.2072L19.8517 17.3846C7.25673 22.0856 0.0722656 29.3587 0.0722656 37.2528V72.3768C0.0722656 79.0291 5.0393 85.2379 14.0864 89.7614C23.2222 94.4624 35.7285 97.0346 49.2991 97.0346C62.6037 97.0346 75.11 94.4624 84.5119 89.7614C93.559 85.2379 98.526 79.0291 98.526 72.3768V24.6578C98.526 18.0055 93.559 11.7967 84.5119 7.27316ZM50.2748 25.8109H96.1312V52.6861H95.2442L50.2748 52.8635V25.8109ZM14.4412 87.1005H14.1751L14.0864 87.2779L13.1107 86.657C6.01497 82.6657 2.37839 77.7873 2.37839 72.6429V45.3242L3.79754 47.0981C6.45846 50.1138 9.82894 52.5974 13.909 54.6374L14.4412 54.9035V87.1005ZM15.1508 52.7748C7.07933 48.606 2.46709 43.0181 2.46709 37.4302C2.46709 33.7936 4.24103 30.4231 7.78891 27.23C10.982 24.3917 15.5943 21.7308 21.2709 19.6021L21.803 19.4247L25.1735 18.2716C32.2693 16.2316 39.9859 15.0785 47.3478 15.0785H48.2348V36.7206H47.9687L15.5056 53.0409L15.1508 52.7748ZM48.1461 39.4702V53.3069L47.6139 53.573L16.7473 68.9176V55.0809L17.2795 54.8148L48.1461 39.4702ZM95.9538 72.2881C95.9538 78.2308 90.9868 84.3509 82.0284 88.5197C73.07 92.6884 61.4506 94.9946 49.2991 94.9946C37.5024 94.9946 26.0605 92.7771 17.2795 88.8745L16.7473 88.6084V72.3768L17.9004 72.9977C26.6814 76.6343 37.7685 78.5856 49.1217 78.5856C58.9671 78.5856 68.5464 77.1665 76.8839 74.5055C84.5119 71.9333 90.8094 68.1194 94.4459 63.8619L95.8651 62.088V72.2881H96.0425H95.9538ZM95.9538 56.1452C94.8007 61.7332 89.3015 66.7889 80.5205 70.4255C71.5621 74.1508 60.475 76.2795 49.2991 76.2795C38.7442 76.2795 28.6327 74.5942 20.1178 71.4898L18.4326 70.6916L19.0534 70.3368L49.7426 55.0809H96.1312L95.9538 56.1452ZM95.9538 22.4404L96.2199 23.5934H50.4522V2.30612H51.3392C62.4263 2.66091 73.0699 4.78964 81.2301 8.42622C89.3902 12.0628 94.6233 16.9411 95.9538 22.4404Z" fill="#000268"/>
<path d="M48.0116 40.0024V39.6445L47.6911 39.8038L17.0019 55.0597L16.8789 55.1209V55.2583V68.3855V68.7433L17.1994 68.584L47.8886 53.3281L48.0116 53.267V53.1296V40.0024Z" fill="#BED2FA" stroke="#BED2FA" stroke-width="0.5"/>
<path d="M95.5996 63.0637L94.8014 64.0394C91.0761 68.3856 84.7786 72.1995 77.0619 74.7717C68.7241 77.5213 59.0561 78.9405 49.122 78.9405C37.6801 78.9405 26.5043 76.9005 17.7232 73.3526L17.0137 72.9978V88.4311L17.3685 88.6085C26.1495 92.5998 37.5027 94.7285 49.2994 94.7285C61.3622 94.7285 72.9815 92.4224 81.8516 88.2537C90.6326 84.1736 95.6883 78.497 95.6883 72.7317H95.5109V63.0637H95.5996Z" fill="#EAF1FF"/>
<path d="M3.53265 47.3642L2.73438 46.2998V72.6428C2.73438 77.6099 6.37095 82.3995 13.2893 86.3909L13.9989 86.8344L14.0876 86.7456H14.1763V55.1695L13.8215 54.9921C9.65275 52.9521 6.28226 50.3799 3.53265 47.3642Z" fill="#EAF1FF"/>
<path d="M19.1318 70.493L18.75 70.6823L19.1241 70.8864L20.0998 71.4185L20.1144 71.4264L20.13 71.4322C28.6722 74.5465 38.7211 76.2352 49.2986 76.2352C60.4103 76.2352 71.5274 74.191 80.4281 70.4526L80.429 70.4525C89.0485 66.809 94.546 61.804 95.7248 56.1987L95.9004 55.5854L95.9811 55.3027H95.6875H49.8308H49.7789L49.7323 55.3258L19.1318 70.493Z" fill="#69A3FF" stroke="#609FFF" stroke-width="0.5"/>
<path d="M95.9985 26.1656V25.9438H95.7768H50.6299H50.4082V26.1656V52.4199V52.6421L50.6304 52.6417L95.7768 52.553L95.9985 52.5525V52.3312V26.1656Z" fill="#ADBBFF" stroke="#ADBBFF" stroke-width="0.5"/>
<path d="M25.2555 18.236L25.2467 18.2387L24.7145 18.4161L24.7061 18.4191L21.4243 19.6608L21.421 19.6622C15.8204 21.8846 11.182 24.4684 7.96219 27.3305L7.96139 27.3312C4.47001 30.4645 2.33789 33.5412 2.33789 37.1694C2.33789 42.789 7.35213 48.5112 15.3386 52.6896L15.492 52.8429L15.6054 52.9564L15.7486 52.8842L47.9457 36.6526L48.0675 36.5911V36.4545L48.3971 15.3446V15.1226L47.8458 15.1229H47.6241H47.4023C40.0199 15.1229 32.3714 16.1902 25.2555 18.236Z" fill="#005DFF" stroke="#005DFF" stroke-width="0.5"/>
<path d="M51.3433 2.43927V2.43921H51.3379H50.8057H50.584V2.66095V23.15V23.3717H50.8057H95.775H96.0588L95.9905 23.0962L95.8131 22.3892C95.8131 22.3888 95.8131 22.3883 95.8131 22.3879C94.5465 17.0539 89.3231 12.136 81.1408 8.57809C72.9494 4.92777 62.3651 2.70593 51.3433 2.43927Z" fill="#0019F0" stroke="#0019F0" stroke-width="0.5"/>
</svg>
