<svg width="114" height="114" viewBox="0 0 114 114" fill="none" xmlns="http://www.w3.org/2000/svg">
<circle cx="57.5" cy="56.5" r="53.5" fill="white"/>
<circle cx="57.5" cy="57.5" r="37.5" fill="#69A3FF"/>
<path d="M57.5 19C36.2971 19 19 36.2971 19 57.5C19 78.7029 36.2971 96 57.5 96C78.7029 96 96 78.7029 96 57.5C96 36.2971 78.7029 19 57.5 19ZM57.5 94.5493C37.1899 94.5493 20.5623 78.0333 20.5623 57.6116C20.5623 37.1899 37.0783 20.6739 57.5 20.6739C77.9217 20.6739 94.4377 37.1899 94.4377 57.6116C94.4377 78.0333 77.8101 94.5493 57.5 94.5493Z" fill="#000268"/>
<circle cx="57" cy="57" r="27" fill="#609FFF"/>
<path d="M57 113.8C56.5226 113.8 56.0648 113.61 55.7272 113.273C55.3897 112.935 55.2 112.477 55.2 112C55.2 111.523 55.3897 111.065 55.7272 110.727C56.0648 110.39 56.5226 110.2 57 110.2C59.541 110.183 62.0787 110.016 64.6 109.7C65.0522 109.658 65.503 109.792 65.8593 110.074C66.2156 110.355 66.45 110.763 66.5143 111.212C66.5785 111.662 66.4675 112.119 66.2043 112.489C65.941 112.859 65.5457 113.113 65.1 113.2C62.4184 113.599 59.7111 113.799 57 113.8ZM49.1 113.3H48.8C46.1359 112.887 43.4981 112.32 40.9 111.6C40.6768 111.534 40.4687 111.425 40.2875 111.279C40.1064 111.133 39.9558 110.953 39.8444 110.749C39.733 110.544 39.6629 110.32 39.6381 110.089C39.6133 109.857 39.6344 109.623 39.7 109.4C39.7657 109.177 39.8747 108.969 40.0208 108.787C40.1669 108.606 40.3472 108.456 40.5515 108.344C40.7558 108.233 40.98 108.163 41.2114 108.138C41.4428 108.113 41.6768 108.134 41.9 108.2C44.3311 108.886 46.8025 109.421 49.3 109.8C49.7346 109.864 50.1294 110.089 50.4068 110.43C50.6842 110.771 50.8241 111.203 50.799 111.641C50.7739 112.08 50.5857 112.493 50.2713 112.8C49.957 113.107 49.5391 113.285 49.1 113.3ZM72.5 111.6C72.0741 111.593 71.6645 111.435 71.3449 111.153C71.0254 110.871 70.8167 110.485 70.7564 110.063C70.6962 109.642 70.7883 109.212 71.0163 108.852C71.2442 108.493 71.593 108.226 72 108.1C74.4356 107.393 76.81 106.49 79.1 105.4C79.5376 105.201 80.0363 105.184 80.4864 105.353C80.9365 105.522 81.3011 105.862 81.5 106.3C81.6989 106.738 81.7159 107.236 81.5471 107.686C81.3783 108.136 81.0376 108.501 80.6 108.7C78.1412 109.824 75.6006 110.76 73 111.5C72.8465 111.581 72.6729 111.616 72.5 111.6ZM34.1 108.9C33.8558 108.88 33.6178 108.812 33.4 108.7C30.9192 107.62 28.5426 106.314 26.3 104.8C26.103 104.669 25.9339 104.5 25.8021 104.303C25.6704 104.106 25.5787 103.886 25.5323 103.654C25.4858 103.421 25.4856 103.182 25.5315 102.95C25.5775 102.718 25.6687 102.497 25.8 102.3C25.9314 102.103 26.1002 101.934 26.2969 101.802C26.4936 101.67 26.7143 101.579 26.9465 101.532C27.1786 101.486 27.4176 101.486 27.6499 101.531C27.8821 101.577 28.103 101.669 28.3 101.8C30.4232 103.195 32.6652 104.399 35 105.4C35.4345 105.602 35.7721 105.967 35.9404 106.416C36.1087 106.865 36.0942 107.362 35.9 107.8C35.7042 108.109 35.44 108.369 35.128 108.559C34.8159 108.75 34.4642 108.867 34.1 108.9ZM86.7 105.1C86.4028 105.104 86.1093 105.033 85.847 104.893C85.5847 104.753 85.3622 104.549 85.2 104.3C84.9563 103.896 84.8725 103.416 84.965 102.953C85.0575 102.49 85.3197 102.079 85.7 101.8C87.8392 100.412 89.8776 98.8751 91.8 97.2C91.9773 97.049 92.1826 96.9344 92.4042 96.8627C92.6258 96.791 92.8593 96.7637 93.0915 96.7822C93.3236 96.8008 93.5498 96.8649 93.7572 96.9709C93.9646 97.0769 94.149 97.2227 94.3 97.4C94.4511 97.5773 94.5657 97.7826 94.6374 98.0042C94.709 98.2257 94.7364 98.4593 94.7178 98.6914C94.6992 98.9236 94.6351 99.1498 94.5291 99.3572C94.4231 99.5645 94.2773 99.749 94.1 99.9C92.0631 101.699 89.8899 103.337 87.6 104.8C87.4776 104.908 87.335 104.99 87.1804 105.041C87.0258 105.093 86.8625 105.113 86.7 105.1ZM20.9 100.4C20.4663 100.406 20.0434 100.265 19.7 100C17.6771 98.2271 15.773 96.3229 14 94.3C13.8349 94.1296 13.708 93.9259 13.6278 93.7025C13.5475 93.4792 13.5158 93.2413 13.5347 93.0048C13.5537 92.7682 13.6228 92.5384 13.7375 92.3307C13.8522 92.1229 14.0099 91.942 14.2 91.8C14.3705 91.6349 14.5741 91.508 14.7975 91.4277C15.0208 91.3475 15.2587 91.3158 15.4953 91.3347C15.7318 91.3536 15.9616 91.4228 16.1694 91.5375C16.3771 91.6522 16.558 91.8099 16.7 92C18.3986 93.8986 20.2014 95.7014 22.1 97.4C22.2789 97.55 22.4261 97.734 22.5331 97.9414C22.6401 98.1489 22.7048 98.3755 22.7234 98.6081C22.742 98.8408 22.7142 99.0748 22.6415 99.2966C22.5688 99.5184 22.4527 99.7235 22.3 99.9C21.8984 100.211 21.408 100.386 20.9 100.4ZM98.6 94.8C98.1663 94.806 97.7434 94.6651 97.4 94.4C97.2212 94.25 97.074 94.066 96.967 93.8586C96.86 93.6511 96.7953 93.4245 96.7767 93.1919C96.758 92.9592 96.7859 92.7252 96.8586 92.5034C96.9313 92.2816 97.0473 92.0765 97.2 91.9C98.8752 89.9776 100.412 87.9392 101.8 85.8C102.065 85.4022 102.478 85.126 102.946 85.0322C103.415 84.9385 103.902 85.0348 104.3 85.3C104.698 85.5652 104.974 85.9776 105.068 86.4464C105.162 86.9153 105.065 87.4022 104.8 87.8C103.337 90.0899 101.699 92.263 99.9 94.3C99.5456 94.6252 99.081 94.8039 98.6 94.8ZM10.6 88.6C10.3028 88.6042 10.0093 88.533 9.74704 88.3931C9.48474 88.2532 9.26215 88.0492 9.10003 87.8C7.62706 85.5325 6.32351 83.1594 5.20003 80.7C5.00112 80.2624 4.98419 79.7637 5.15297 79.3136C5.32176 78.8635 5.66242 78.4989 6.10003 78.3C6.53764 78.1011 7.03634 78.0842 7.48643 78.2529C7.93651 78.4217 8.30112 78.7624 8.50003 79.2C9.59611 81.5064 10.8317 83.7439 12.2 85.9C12.4437 86.3039 12.5276 86.7844 12.435 87.247C12.3425 87.7096 12.0803 88.1209 11.7 88.4C11.3398 88.498 10.9717 88.5649 10.6 88.6ZM107.1 81.6C106.853 81.5939 106.613 81.5251 106.4 81.4C105.966 81.1975 105.628 80.8327 105.46 80.3839C105.291 79.9351 105.306 79.4382 105.5 79C106.547 76.6918 107.449 74.3205 108.2 71.9C108.333 71.4491 108.639 71.0694 109.052 70.8444C109.464 70.6193 109.949 70.5674 110.4 70.7C110.851 70.8326 111.231 71.1389 111.456 71.5515C111.681 71.9641 111.733 72.4491 111.6 72.9C110.832 75.4913 109.897 78.03 108.8 80.5C108.64 80.818 108.398 81.0877 108.1 81.281C107.801 81.4744 107.456 81.5845 107.1 81.6ZM4.00003 74.3C3.61104 74.3091 3.2306 74.1852 2.92153 73.9488C2.61245 73.7125 2.39322 73.3778 2.30003 73C1.54294 70.4113 0.974783 67.771 0.600031 65.1C0.561896 64.8695 0.570836 64.6337 0.626314 64.4068C0.681791 64.1798 0.782656 63.9665 0.922826 63.7796C1.06299 63.5927 1.23956 63.4361 1.44189 63.3193C1.64421 63.2025 1.86809 63.1279 2.10003 63.1C2.33051 63.0619 2.56633 63.0708 2.79326 63.1263C3.0202 63.1818 3.23354 63.2826 3.42043 63.4228C3.60733 63.563 3.76389 63.7395 3.88069 63.9419C3.99749 64.1442 4.07211 64.3681 4.10003 64.6C4.47922 67.0975 5.01359 69.5689 5.70003 72C5.77166 72.2231 5.79721 72.4585 5.77513 72.6918C5.75306 72.9251 5.68381 73.1515 5.57159 73.3572C5.45937 73.563 5.30653 73.7437 5.12233 73.8886C4.93813 74.0335 4.72641 74.1394 4.50003 74.2C4.35016 74.2907 4.17326 74.3261 4.00003 74.3ZM111.5 66.5H111.2C110.968 66.4734 110.743 66.3997 110.54 66.2833C110.337 66.1669 110.16 66.0103 110.019 65.8231C109.879 65.6359 109.778 65.422 109.723 65.1945C109.668 64.967 109.66 64.7307 109.7 64.5C110.069 61.984 110.236 59.4426 110.2 56.9V56.7C110.2 56.2226 110.39 55.7648 110.727 55.4272C111.065 55.0896 111.523 54.9 112 54.9C112.477 54.9 112.935 55.0896 113.273 55.4272C113.61 55.7648 113.8 56.2226 113.8 56.7V56.9C113.799 59.6111 113.599 62.3184 113.2 65C113.162 65.4199 112.965 65.8093 112.648 66.0882C112.332 66.3672 111.921 66.5145 111.5 66.5ZM1.80003 58.8C1.56328 58.8013 1.32862 58.7557 1.10963 58.6657C0.89065 58.5757 0.691692 58.4432 0.524282 58.2757C0.356871 58.1083 0.224335 57.9094 0.134346 57.6904C0.0443575 57.4714 -0.00129536 57.2368 3.0999e-05 57V56.9C-0.00286899 54.222 0.197708 51.5476 0.600031 48.9C0.626589 48.6675 0.700319 48.4428 0.816707 48.2398C0.933096 48.0368 1.0897 47.8596 1.27692 47.7192C1.46414 47.5788 1.67806 47.478 1.90556 47.4231C2.13306 47.3683 2.36938 47.3604 2.60003 47.4C2.83554 47.4192 3.06429 47.4882 3.27116 47.6024C3.47803 47.7166 3.65831 47.8734 3.80009 48.0625C3.94186 48.2515 4.04191 48.4685 4.09362 48.699C4.14532 48.9296 4.14751 49.1685 4.10003 49.4C3.78424 51.8878 3.61728 54.3923 3.60003 56.9V57C3.60136 57.2368 3.5557 57.4714 3.46572 57.6904C3.37573 57.9094 3.24319 58.1083 3.07578 58.2757C2.90837 58.4432 2.70941 58.5757 2.49043 58.6657C2.27144 58.7557 2.03678 58.8013 1.80003 58.8ZM111.4 50.6C110.971 50.602 110.556 50.4526 110.227 50.1782C109.897 49.9038 109.675 49.522 109.6 49.1C109.221 46.6025 108.686 44.1311 108 41.7C107.928 41.4769 107.903 41.2415 107.925 41.0082C107.947 40.7749 108.016 40.5485 108.128 40.3428C108.241 40.1371 108.394 39.9563 108.578 39.8114C108.762 39.6665 108.974 39.5606 109.2 39.5C109.423 39.4341 109.657 39.4128 109.889 39.4375C110.12 39.4621 110.345 39.5322 110.549 39.6436C110.753 39.7551 110.934 39.9058 111.08 40.087C111.226 40.2683 111.335 40.4766 111.4 40.7C112.189 43.2866 112.791 45.9268 113.2 48.6C113.238 48.8305 113.229 49.0663 113.174 49.2932C113.118 49.5202 113.017 49.7335 112.877 49.9204C112.737 50.1073 112.561 50.2639 112.358 50.3807C112.156 50.4975 111.932 50.5721 111.7 50.6H111.4ZM4.00003 43.3C3.82721 43.3156 3.65357 43.2808 3.50003 43.2C3.27365 43.1394 3.06194 43.0335 2.87774 42.8886C2.69354 42.7437 2.54069 42.5629 2.42847 42.3572C2.31626 42.1515 2.24701 41.9251 2.22493 41.6918C2.20285 41.4585 2.2284 41.2231 2.30003 41C3.06785 38.4087 4.00315 35.87 5.10003 33.4C5.18908 33.1876 5.3199 32.9952 5.48473 32.8342C5.64955 32.6733 5.84502 32.5471 6.05954 32.4632C6.27406 32.3792 6.50325 32.3393 6.73352 32.3456C6.96379 32.3519 7.19044 32.4044 7.40003 32.5C7.83446 32.7025 8.1721 33.0673 8.34039 33.5161C8.50869 33.9649 8.49419 34.4618 8.30003 34.9C7.28581 37.21 6.41744 39.5813 5.70003 42C5.59308 42.3701 5.37021 42.6961 5.06421 42.9301C4.75821 43.1641 4.3852 43.2937 4.00003 43.3ZM107 35.6C106.666 35.6 106.34 35.5062 106.057 35.3294C105.774 35.1526 105.546 34.8999 105.4 34.6C104.304 32.2936 103.068 30.0561 101.7 27.9C101.569 27.703 101.477 27.4821 101.432 27.2499C101.386 27.0176 101.386 26.7786 101.432 26.5464C101.479 26.3143 101.57 26.0936 101.702 25.8969C101.834 25.7002 102.003 25.5313 102.2 25.4C102.598 25.1348 103.085 25.0385 103.554 25.1322C103.786 25.1787 104.006 25.2704 104.203 25.4021C104.4 25.5338 104.569 25.703 104.7 25.9C106.173 28.1675 107.477 30.5406 108.6 33C108.794 33.4382 108.809 33.9351 108.64 34.3839C108.472 34.8327 108.134 35.1975 107.7 35.4C107.482 35.5124 107.244 35.5804 107 35.6ZM10.5 29C10.1455 28.9938 9.79947 28.89 9.50003 28.7C9.29846 28.5727 9.12486 28.4057 8.98977 28.2093C8.85468 28.0128 8.76091 27.791 8.71415 27.5572C8.66739 27.3234 8.66862 27.0825 8.71777 26.8492C8.76691 26.6159 8.86294 26.3951 9.00003 26.2C10.4632 23.9101 12.1014 21.737 13.9 19.7C14.205 19.342 14.6398 19.1197 15.1086 19.0822C15.5775 19.0447 16.042 19.195 16.4 19.5C16.7581 19.805 16.9803 20.2397 17.0178 20.7086C17.0553 21.1774 16.905 21.642 16.6 22C14.9256 23.8987 13.4199 25.9397 12.1 28.1C11.9129 28.3554 11.6734 28.5679 11.3974 28.7231C11.1215 28.8784 10.8155 28.9728 10.5 29ZM98.4 22.5C97.8725 22.4925 97.3693 22.2768 97 21.9C95.3014 20.0014 93.4986 18.1986 91.6 16.5C91.4227 16.349 91.2769 16.1645 91.1709 15.9572C91.0649 15.7498 91.0008 15.5236 90.9823 15.2914C90.9637 15.0593 90.991 14.8257 91.0627 14.6042C91.1344 14.3826 91.249 14.1773 91.4 14C91.5511 13.8227 91.7355 13.6769 91.9429 13.5709C92.1502 13.4649 92.3765 13.4008 92.6086 13.3822C92.8408 13.3637 93.0743 13.391 93.2959 13.4627C93.5174 13.5344 93.7227 13.649 93.9 13.8C95.9312 15.5979 97.8671 17.5004 99.7 19.5C99.8637 19.6712 99.9893 19.8751 100.069 20.0982C100.148 20.3214 100.179 20.5587 100.16 20.7948C100.141 21.0309 100.073 21.2603 99.959 21.468C99.8452 21.6757 99.6888 21.857 99.5 22C99.3714 22.1668 99.2039 22.2996 99.0122 22.3868C98.8204 22.4739 98.6103 22.5128 98.4 22.5ZM20.7 17.1C20.1725 17.0925 19.6693 16.8768 19.3 16.5C19.1364 16.3288 19.0108 16.1249 18.9315 15.9018C18.8522 15.6786 18.8209 15.4413 18.8398 15.2052C18.8587 14.9691 18.9273 14.7397 19.0411 14.532C19.1548 14.3243 19.3113 14.143 19.5 14C21.537 12.2014 23.7102 10.5631 26 9.1C26.404 8.8563 26.8844 8.77247 27.347 8.86499C27.8096 8.95751 28.2209 9.21969 28.5 9.6C28.6317 9.79687 28.7232 10.0178 28.7694 10.2501C28.8155 10.4824 28.8154 10.7215 28.7689 10.9538C28.7225 11.186 28.6306 11.4068 28.4987 11.6035C28.3668 11.8002 28.1973 11.9689 28 12.1C25.8609 13.4877 23.8225 15.0249 21.9 16.7C21.5567 16.965 21.1337 17.106 20.7 17.1ZM86.6 12.2C86.2455 12.1938 85.8995 12.09 85.6 11.9C83.4768 10.5054 81.2348 9.30077 78.9 8.3C78.6833 8.20151 78.4882 8.0613 78.3257 7.88739C78.1632 7.71347 78.0365 7.50926 77.953 7.2864C77.8694 7.06354 77.8305 6.8264 77.8386 6.58852C77.8467 6.35064 77.9015 6.11668 78 5.9C78.0985 5.68332 78.2387 5.48816 78.4126 5.32566C78.5866 5.16317 78.7908 5.03652 79.0136 4.95294C79.2365 4.86937 79.4736 4.83051 79.7115 4.83859C79.9494 4.84666 80.1833 4.90151 80.4 5C82.8809 6.08033 85.2575 7.3858 87.5 8.9C87.7016 9.02733 87.8752 9.19428 88.0103 9.39073C88.1454 9.58719 88.2392 9.80904 88.2859 10.0428C88.3327 10.2766 88.3314 10.5175 88.2823 10.7508C88.2332 10.9841 88.1371 11.2049 88 11.4C87.8584 11.6454 87.6542 11.8487 87.4082 11.9893C87.1622 12.1298 86.8833 12.2025 86.6 12.2ZM33.9 8.6C33.5664 8.6 33.2395 8.50625 32.9566 8.32944C32.6737 8.15263 32.4462 7.89987 32.3 7.6C32.1059 7.16179 32.0914 6.6649 32.2597 6.21611C32.428 5.76733 32.7656 5.40249 33.2 5.2C35.6749 4.08656 38.2125 3.11825 40.8 2.3C41.0232 2.22837 41.2585 2.20282 41.4918 2.2249C41.7251 2.24698 41.9515 2.31622 42.1572 2.42844C42.363 2.54066 42.5438 2.6935 42.6886 2.8777C42.8335 3.0619 42.9395 3.27362 43 3.5C43.1125 3.95038 43.0516 4.42659 42.8293 4.83413C42.607 5.24166 42.2396 5.55073 41.8 5.7C39.3645 6.40717 36.9901 7.31011 34.7 8.4C34.4435 8.50211 34.1744 8.56938 33.9 8.6ZM72.3 5.7C72.1272 5.71556 71.9536 5.68084 71.8 5.6C69.369 4.91356 66.8975 4.37919 64.4 4C64.1645 3.98076 63.9358 3.91177 63.7289 3.79757C63.522 3.68338 63.3418 3.52658 63.2 3.33754C63.0582 3.14851 62.9581 2.93153 62.9064 2.70096C62.8547 2.47039 62.8526 2.23148 62.9 2C62.9193 1.76449 62.9883 1.53574 63.1025 1.32887C63.2167 1.122 63.3735 0.941721 63.5625 0.799944C63.7515 0.658166 63.9685 0.558119 64.1991 0.506414C64.4296 0.454709 64.6686 0.452523 64.9 0.5C67.5747 0.854009 70.2165 1.42251 72.8 2.2C73.0264 2.26058 73.2381 2.36652 73.4223 2.51139C73.6065 2.65627 73.7594 2.83705 73.8716 3.04279C73.9838 3.24852 74.0531 3.4749 74.0751 3.70821C74.0972 3.94151 74.0717 4.17687 74 4.4C73.9068 4.77777 73.6876 5.11246 73.3785 5.34881C73.0695 5.58517 72.689 5.70905 72.3 5.7ZM48.9 4.1C48.4714 4.10197 48.0558 3.95259 47.7265 3.67818C47.3973 3.40378 47.1754 3.02196 47.1 2.6C47.0619 2.36952 47.0708 2.1337 47.1263 1.90677C47.1818 1.67983 47.2827 1.46649 47.4228 1.2796C47.563 1.0927 47.7396 0.936136 47.9419 0.819337C48.1442 0.702537 48.3681 0.627925 48.6 0.6C51.2816 0.201361 53.989 0.000818551 56.7 0C57.1774 0 57.6353 0.189642 57.9728 0.527208C58.3104 0.864773 58.5 1.32261 58.5 1.8C58.5 2.27739 58.3104 2.73523 57.9728 3.07279C57.6353 3.41036 57.1774 3.6 56.7 3.6C54.1549 3.60094 51.6138 3.80155 49.1 4.2C49.1 4.1 49 4.1 48.9 4.1Z" fill="#EBEBEB"/>
<circle cx="57" cy="57" r="26.5" fill="#000268" stroke="#4042E2"/>
<path d="M65.8247 49.0213L65.8247 49.0213L54.0703 61.8835L53.7012 62.2874L53.3322 61.8835L48.1849 56.2511L48.1782 56.2438L48.1782 56.2437C48.0315 56.0766 47.8582 55.9459 47.67 55.857C47.482 55.7681 47.2816 55.722 47.0801 55.7198C46.8786 55.7176 46.6776 55.7593 46.4883 55.8439C46.2987 55.9286 46.1234 56.0552 45.9739 56.2188C45.8243 56.3825 45.7038 56.5797 45.6217 56.7998C45.5395 57.02 45.4979 57.2573 45.5001 57.4973C45.5023 57.7374 45.5483 57.9735 45.6344 58.1916C45.7204 58.4097 45.8443 58.6039 45.9966 58.7641L46.0035 58.7713L46.0034 58.7714L52.6105 66.0012C52.6105 66.0012 52.6105 66.0012 52.6105 66.0012C52.9082 66.3268 53.3016 66.5 53.7012 66.5C54.1009 66.5 54.4943 66.3268 54.792 66.0012C54.792 66.0012 54.792 66.0012 54.792 66.0012L68.0061 51.5415L68.0107 51.5365L68.0107 51.5366C68.2403 51.2921 68.4017 50.972 68.4674 50.6161C68.5331 50.2601 68.4987 49.8911 68.3703 49.5591C68.242 49.2274 68.0279 48.9532 67.7631 48.7672C67.4991 48.5817 67.1954 48.4911 66.8911 48.5007L65.8247 49.0213ZM65.8247 49.0213L65.8293 49.0162M65.8247 49.0213L65.8293 49.0162M65.8293 49.0162C66.1172 48.6923 66.4993 48.5133 66.891 48.5007L65.8293 49.0162Z" fill="white" stroke="#000268"/>
</svg>
