<svg width="109" height="109" viewBox="0 0 109 109" fill="none" xmlns="http://www.w3.org/2000/svg">
<path d="M7.83014 2.80104C7.32302 2.54748 6.64688 2.54748 6.13976 2.80104L2.75902 4.914C1.91383 5.25208 1.49124 6.2663 1.91383 7.11149C2.25191 7.95667 3.26613 8.37927 4.11132 7.95667C4.28035 7.87216 4.36487 7.78764 4.44939 7.70312L5.21006 7.19601V10.9148H4.36487C3.43517 10.9148 2.6745 11.6755 2.6745 12.6052C2.6745 13.5349 3.43517 14.2956 4.36487 14.2956H9.43599C10.3657 14.2956 11.1264 13.5349 11.1264 12.6052C11.1264 11.6755 10.3657 10.9148 9.43599 10.9148H8.5908V4.15334C8.67532 3.64622 8.33725 3.13911 7.83014 2.80104Z" fill="#95C5F8"/>
<path d="M12.0563 19.4512C12.0563 18.5215 11.2956 17.7609 10.3659 17.7609H3.60443C2.67473 17.7609 1.91406 18.5215 1.91406 19.4512V27.9031C1.91406 28.8328 2.67473 29.5935 3.60443 29.5935H10.3659C11.2956 29.5935 12.0563 28.8328 12.0563 27.9031V19.4512ZM8.67555 26.2127H5.29481V21.1416H8.67555V26.2127Z" fill="#95C5F8"/>
<path d="M7.82919 33.2278C7.32208 32.9742 6.64593 32.9742 6.13882 33.2278L2.75807 35.3407C1.91289 35.8478 1.65933 36.8621 2.16644 37.6227C2.67355 38.4679 3.68778 38.7215 4.44845 38.2144C4.44845 38.2144 4.53296 38.2144 4.53296 38.1298L5.29363 37.6227V41.257H4.44845C3.51874 41.257 2.75807 42.0177 2.75807 42.9474C2.75807 43.8771 3.51874 44.6378 4.44845 44.6378H9.51956C10.4493 44.6378 11.2099 43.8771 11.2099 42.9474C11.2099 42.0177 10.4493 41.257 9.51956 41.257H8.67438V34.4955C8.58986 34.073 8.3363 33.4813 7.82919 33.2278Z" fill="#95C5F8"/>
<path d="M12.0563 58.3297V49.8779C12.0563 48.9482 11.2956 48.1875 10.3659 48.1875H3.60443C2.67473 48.1875 1.91406 48.9482 1.91406 49.8779V58.3297C1.91406 59.2594 2.67473 60.0201 3.60443 60.0201H10.3659C11.2956 60.0201 12.0563 59.2594 12.0563 58.3297ZM8.67555 56.6394H5.29481V51.5682H8.67555V56.6394Z" fill="#95C5F8"/>
<path d="M21.3526 2.80104C20.8455 2.54748 20.1694 2.54748 19.6623 2.80104L16.2815 4.914C15.4363 5.42111 15.1828 6.43534 15.6899 7.19601C16.197 8.04119 17.2112 8.29475 17.9719 7.78764C17.9719 7.78764 18.0564 7.78764 18.0564 7.70312L18.8171 7.19601V10.9148H17.9719C17.0422 10.9148 16.2815 11.6755 16.2815 12.6052C16.2815 13.5349 17.0422 14.2956 17.9719 14.2956H23.043C23.9727 14.2956 24.7334 13.5349 24.7334 12.6052C24.7334 11.6755 23.9727 10.9148 23.043 10.9148H22.1978V4.15334C22.1978 3.64622 21.8597 3.13911 21.3526 2.80104Z" fill="#95C5F8"/>
<path d="M25.5778 19.4512C25.5778 18.5215 24.8171 17.7609 23.8874 17.7609H17.1259C16.1962 17.7609 15.4355 18.5215 15.4355 19.4512V27.9031C15.4355 28.8328 16.1962 29.5935 17.1259 29.5935H23.8874C24.8171 29.5935 25.5778 28.8328 25.5778 27.9031V19.4512ZM22.197 26.2127H18.8163V21.1416H22.197V26.2127Z" fill="#95C5F8"/>
<path d="M21.3526 33.2278C20.8455 32.9742 20.1694 32.9742 19.6623 33.2278L16.2815 35.3407C15.4363 35.8478 15.1828 36.8621 15.6899 37.6227C16.197 38.4679 17.2112 38.7215 17.9719 38.2144C17.9719 38.2144 18.0564 38.2144 18.0564 38.1298L18.8171 37.6227V41.3416H17.8874C16.9577 41.3416 16.197 42.1022 16.197 43.0319C16.197 43.9616 16.9577 44.7223 17.8874 44.7223H22.9585C23.8882 44.7223 24.6489 43.9616 24.6489 43.0319C24.6489 42.1022 23.8882 41.3416 22.9585 41.3416H22.1133V34.5801C22.1133 34.0729 21.8597 33.4813 21.3526 33.2278Z" fill="#95C5F8"/>
<path d="M25.5778 49.8779C25.5778 48.9482 24.8171 48.1875 23.8874 48.1875H17.1259C16.1962 48.1875 15.4355 48.9482 15.4355 49.8779V58.3297C15.4355 59.2594 16.1962 60.0201 17.1259 60.0201H23.8874C24.8171 60.0201 25.5778 59.2594 25.5778 58.3297V49.8779ZM22.197 56.6394H18.8163V51.5682H22.197V56.6394Z" fill="#95C5F8"/>
<path d="M34.8761 2.80104C34.369 2.54748 33.6928 2.54748 33.1857 2.80104L29.8049 4.914C28.9598 5.42111 28.7062 6.43534 29.2133 7.19601C29.7204 8.04119 30.7347 8.29475 31.4953 7.78764C31.4953 7.78764 31.5798 7.78764 31.5798 7.70312L32.3405 7.19601V10.9148H31.4953C30.5656 10.9148 29.8049 11.6755 29.8049 12.6052C29.8049 13.5349 30.5656 14.2956 31.4953 14.2956H36.5664C37.4961 14.2956 38.2568 13.5349 38.2568 12.6052C38.2568 11.6755 37.4961 10.9148 36.5664 10.9148H35.7213V4.15334C35.7213 3.64622 35.3832 3.13911 34.8761 2.80104Z" fill="#95C5F8"/>
<path d="M39.1012 19.4512C39.1012 18.5215 38.3406 17.7609 37.4108 17.7609H30.6494C29.7197 17.7609 28.959 18.5215 28.959 19.4512V27.9031C28.959 28.8328 29.7197 29.5935 30.6494 29.5935H37.4108C38.3406 29.5935 39.1012 28.8328 39.1012 27.9031V19.4512ZM35.7205 26.2127H32.3397V21.1416H35.7205V26.2127Z" fill="#95C5F8"/>
<path d="M34.8761 33.2278C34.369 32.9742 33.6928 32.9742 33.1857 33.2278L29.8049 35.3407C28.9598 35.8478 28.7062 36.8621 29.2133 37.6227C29.7204 38.4679 30.7347 38.7215 31.4953 38.2144C31.4953 38.2144 31.5798 38.2144 31.5798 38.1298L32.3405 37.6227V41.3416H31.4108C30.4811 41.3416 29.7204 42.1022 29.7204 43.0319C29.7204 43.9616 30.4811 44.7223 31.4108 44.7223H36.4819C37.4116 44.7223 38.1723 43.9616 38.1723 43.0319C38.1723 42.1022 37.4116 41.3416 36.4819 41.3416H35.6367V34.5801C35.6367 34.0729 35.3832 33.4813 34.8761 33.2278Z" fill="#C1DAF3"/>
<path d="M39.1012 58.3297V49.8779C39.1012 48.9482 38.3406 48.1875 37.4108 48.1875H30.6494C29.7197 48.1875 28.959 48.9482 28.959 49.8779V58.3297C28.959 59.2594 29.7197 60.0201 30.6494 60.0201H37.4108C38.3406 60.0201 39.1012 59.2594 39.1012 58.3297ZM35.7205 56.6394H32.3397V51.5682H35.7205V56.6394Z" fill="#C1DAF3"/>
<path d="M48.3976 2.80104C47.8904 2.54748 47.2143 2.54748 46.7072 2.80104L43.3264 4.914C42.4812 5.42111 42.2277 6.43534 42.7348 7.19601C43.2419 8.04119 44.2561 8.29475 45.0168 7.78764C45.0168 7.78764 45.1013 7.78764 45.1013 7.70312L45.862 7.19601V10.9148H45.0168C44.0871 10.9148 43.3264 11.6755 43.3264 12.6052C43.3264 13.5349 44.0871 14.2956 45.0168 14.2956H50.0879C51.0176 14.2956 51.7783 13.5349 51.7783 12.6052C51.7783 11.6755 51.0176 10.9148 50.0879 10.9148H49.2427V4.15334C49.2427 3.64622 48.9047 3.13911 48.3976 2.80104Z" fill="#95C5F8"/>
<path d="M52.6247 19.4512C52.6247 18.5215 51.864 17.7609 50.9343 17.7609H44.1728C43.2431 17.7609 42.4824 18.5215 42.4824 19.4512V27.9031C42.4824 28.8328 43.2431 29.5935 44.1728 29.5935H50.9343C51.864 29.5935 52.6247 28.8328 52.6247 27.9031V19.4512ZM49.2439 26.2127H45.8632V21.1416H49.2439V26.2127Z" fill="#95C5F8"/>
<path d="M48.3976 33.2278C47.8904 32.9742 47.2143 32.9742 46.7072 33.2278L43.3264 35.3407C42.4812 35.8478 42.2277 36.8621 42.7348 37.6227C43.2419 38.4679 44.2561 38.7215 45.0168 38.2144C45.0168 38.2144 45.1013 38.2144 45.1013 38.1298L45.862 37.6227V41.3416H44.9323C44.0026 41.3416 43.2419 42.1022 43.2419 43.0319C43.2419 43.9616 44.0026 44.7223 44.9323 44.7223H50.0034C50.9331 44.7223 51.6938 43.9616 51.6938 43.0319C51.6938 42.1022 50.9331 41.3416 50.0034 41.3416H49.1582V34.5801C49.1582 34.0729 48.9047 33.4813 48.3976 33.2278Z" fill="#C1DAF3"/>
<path d="M61.921 33.2278C61.4139 32.9742 60.7377 32.9742 60.2306 33.2278L56.8499 35.3407C56.0047 35.8478 55.7511 36.8621 56.2582 37.6227C56.7654 38.3834 57.7796 38.7215 58.5402 38.2144C58.5402 38.2144 58.6248 38.2144 58.6248 38.1298L59.3854 37.6227V41.3416H58.4557C57.526 41.3416 56.7654 42.1022 56.7654 43.0319C56.7654 43.9616 57.526 44.7223 58.4557 44.7223H63.5268C64.4565 44.7223 65.2172 43.9616 65.2172 43.0319C65.2172 42.1022 64.4565 41.3416 63.5268 41.3416H62.6817V34.5801C62.6817 34.0729 62.4281 33.4813 61.921 33.2278Z" fill="#C1DAF3"/>
<path d="M69.5273 58.3297C69.5273 59.2594 70.288 60.0201 71.2177 60.0201H77.9792C78.9089 60.0201 79.6696 59.2594 79.6696 58.3297V49.8779C79.6696 48.9482 78.9089 48.1875 77.9792 48.1875H71.2177C70.288 48.1875 69.5273 48.9482 69.5273 49.8779V58.3297ZM72.9081 51.5682H76.2888V56.6394H72.9081V51.5682Z" fill="#C1DAF3"/>
<path d="M85.5857 10.9994C84.656 10.9994 83.8953 11.76 83.8953 12.6898C83.8953 13.6195 84.656 14.3801 85.5857 14.3801H90.6568C91.5865 14.3801 92.3472 13.6195 92.3472 12.6898C92.3472 11.76 91.5865 10.9994 90.6568 10.9994H89.8116V4.23789C89.8116 3.30818 89.051 2.54752 88.1213 2.54752C87.7832 2.54752 87.5296 2.63203 87.1916 2.80107L83.8108 4.91404C82.9656 5.42115 82.7121 6.43537 83.2192 7.19604C83.7263 8.04123 84.7405 8.29478 85.5012 7.78767C85.5012 7.78767 85.5857 7.78767 85.5857 7.70315L86.3464 7.19604V10.9149L85.5857 10.9994Z" fill="#95C5F8"/>
<path d="M102.491 2.80104C101.984 2.54748 101.308 2.54748 100.801 2.80104L97.4202 4.914C96.575 5.42111 96.3214 6.43534 96.8286 7.19601C97.3357 8.04119 98.3499 8.29475 99.1106 7.78764C99.1106 7.78764 99.1951 7.78764 99.1951 7.70312L99.9557 7.19601V10.9148H99.1106C98.1808 10.9148 97.4202 11.6755 97.4202 12.6052C97.4202 13.5349 98.1808 14.2956 99.1106 14.2956H104.182C105.111 14.2956 105.872 13.5349 105.872 12.6052C105.872 11.6755 105.111 10.9148 104.182 10.9148H103.336V4.15334C103.336 3.64622 102.998 3.05459 102.491 2.80104Z" fill="#95C5F8"/>
<path d="M11.2105 73.5431C11.2105 72.6134 10.4498 71.8527 9.5201 71.8527H8.67491V65.0912C8.67491 64.1615 7.91424 63.4008 6.98454 63.4008C6.64646 63.4008 6.39291 63.4854 6.05483 63.6544L2.67409 65.7674C1.8289 66.2745 1.57535 67.2887 2.08246 68.0494C2.58957 68.8946 3.60379 69.1481 4.36446 68.641C4.36446 68.641 4.44898 68.641 4.44898 68.5565L5.20965 68.0494V71.7682H4.36446C3.43476 71.7682 2.67409 72.5289 2.67409 73.4586C2.67409 74.3883 3.43476 75.1489 4.36446 75.1489H9.43558C10.4498 75.2335 11.2105 74.4728 11.2105 73.5431Z" fill="#95C5F8"/>
<path d="M17.9705 71.8527C17.0408 71.8527 16.2801 72.6134 16.2801 73.5431C16.2801 74.4728 17.0408 75.2335 17.9705 75.2335H23.0416C23.9713 75.2335 24.732 74.4728 24.732 73.5431C24.732 72.6134 23.9713 71.8527 23.0416 71.8527H22.1964V65.0912C22.1964 64.1615 21.4357 63.4008 20.506 63.4008C20.1679 63.4008 19.9144 63.4854 19.5763 63.6544L16.1956 65.7674C15.3504 66.2745 15.0968 67.2887 15.6039 68.0494C16.1111 68.8946 17.1253 69.1481 17.8859 68.641C17.8859 68.641 17.9705 68.641 17.9705 68.5565L18.7311 68.0494V71.7682H17.9705V71.8527Z" fill="#95C5F8"/>
<path d="M31.4939 71.8527C30.5642 71.8527 29.8035 72.6134 29.8035 73.5431C29.8035 74.4728 30.5642 75.2335 31.4939 75.2335H36.565C37.4947 75.2335 38.2554 74.4728 38.2554 73.5431C38.2554 72.6134 37.4947 71.8527 36.565 71.8527H35.7198V65.0912C35.7198 64.1615 34.9592 63.4008 34.0295 63.4008C33.6914 63.4008 33.4378 63.4854 33.0998 63.6544L29.719 65.7674C28.8738 66.2745 28.6203 67.2887 29.1274 68.0494C29.6345 68.8946 30.6487 69.1481 31.4094 68.641C31.4094 68.641 31.4939 68.641 31.4939 68.5565L32.2546 68.0494V71.7682H31.4939V71.8527Z" fill="#C1DAF3"/>
<path d="M35.7199 87.0661H35.2973L29.9727 90.2778C30.1417 90.3623 30.3952 90.4468 30.6488 90.4468H37.4103C38.34 90.4468 39.1007 89.6862 39.1007 88.7565V84.6996L35.7199 86.728V87.0661Z" fill="#C1DAF3"/>
<path d="M42.4824 58.3297C42.4824 58.7523 42.6515 59.1749 42.905 59.4284C45.4406 57.4845 48.5678 56.4703 51.7795 56.4703C52.033 56.4703 52.3711 56.4703 52.6247 56.5548V49.9623C52.6247 49.0326 51.864 48.272 50.9343 48.272H44.1728C43.2431 48.272 42.4824 49.0326 42.4824 49.9623V58.3297ZM45.8632 51.5682H49.2439V56.6393H45.8632V51.5682Z" fill="#C1DAF3"/>
<path d="M56.0059 57.062C57.9498 57.6536 59.8092 58.6678 61.3305 60.0201H64.4577C65.3874 60.0201 66.1481 59.2594 66.1481 58.3297V49.8779C66.1481 48.9482 65.3874 48.1875 64.4577 48.1875H57.6962C56.7665 48.1875 56.0059 48.9482 56.0059 49.8779V57.062ZM59.3866 51.5682H62.7673V56.6394H59.3866V51.5682Z" fill="#C1DAF3"/>
<path d="M49.2439 85.3757V87.0661H45.8632V84.3615C44.6799 83.8544 43.4966 83.0937 42.4824 82.2485V88.7565C42.4824 89.6862 43.2431 90.4468 44.1728 90.4468H50.9343C51.864 90.4468 52.6247 89.6862 52.6247 88.7565V85.5448C52.3711 85.5448 52.033 85.6293 51.7795 85.6293C50.8498 85.5448 50.0046 85.4602 49.2439 85.3757Z" fill="#C1DAF3"/>
<path d="M105.026 78.6142H101.814C101.814 78.8678 101.899 79.2058 101.899 79.4594C101.899 80.3046 101.814 81.1498 101.645 81.9949H103.335V87.0661H99.9546V86.6435C99.1939 87.9112 98.3487 89.0945 97.25 90.1087C97.5881 90.3623 97.9261 90.4468 98.2642 90.4468H105.026C105.955 90.4468 106.716 89.6861 106.716 88.7564V80.3046C106.716 79.3749 105.955 78.6142 105.026 78.6142Z" fill="#C1DAF3"/>
<path d="M50.0885 102.279H49.2433V95.5179C49.2433 94.5882 48.4826 93.8275 47.5529 93.8275C47.2148 93.8275 46.9613 93.9121 46.6232 94.0811L43.2424 96.1941C42.3973 96.7012 42.1437 97.7154 42.6508 98.4761C43.1579 99.3213 44.1722 99.5748 44.9328 99.0677C44.9328 99.0677 45.0173 99.0677 45.0173 98.9832L45.778 98.4761V102.195H44.9328C44.0031 102.195 43.2424 102.956 43.2424 103.885C43.2424 104.815 44.0031 105.576 44.9328 105.576H50.0039C50.9336 105.576 51.6943 104.815 51.6943 103.885C51.6943 102.956 51.0182 102.279 50.0885 102.279Z" fill="#C1DAF3"/>
<path d="M63.6119 102.279H62.7667V95.5179C62.7667 94.5882 62.006 93.8275 61.0763 93.8275C60.7383 93.8275 60.4847 93.9121 60.1466 94.0811L56.7659 96.1941C55.9207 96.7012 55.6671 97.7154 56.1743 98.4761C56.6814 99.3213 57.6956 99.5748 58.4563 99.0677C58.4563 99.0677 58.5408 99.0677 58.5408 98.9832L59.3014 98.4761V102.195H58.4563C57.5266 102.195 56.7659 102.956 56.7659 103.885C56.7659 104.815 57.5266 105.576 58.4563 105.576H63.5274C64.4571 105.576 65.2177 104.815 65.2177 103.885C65.2177 102.956 64.5416 102.279 63.6119 102.279Z" fill="#C1DAF3"/>
<path d="M77.1334 102.279H76.2882V95.5179C76.2882 94.5882 75.5275 93.8275 74.5978 93.8275C74.2597 93.8275 74.0062 93.9121 73.6681 94.0811L70.2874 96.1941C69.4422 96.7012 69.1886 97.7154 69.6957 98.4761C70.2029 99.3213 71.2171 99.5748 71.9777 99.0677C71.9777 99.0677 72.0623 99.0677 72.0623 98.9832L72.8229 98.4761V102.195H71.9777C71.048 102.195 70.2874 102.956 70.2874 103.885C70.2874 104.815 71.048 105.576 71.9777 105.576H77.0489C77.9786 105.576 78.7392 104.815 78.7392 103.885C78.7392 102.956 78.0631 102.279 77.1334 102.279Z" fill="#C1DAF3"/>
<path d="M90.6568 102.279H89.8116V95.5179C89.8116 94.5882 89.051 93.8275 88.1213 93.8275C87.7832 93.8275 87.5296 93.9121 87.1916 94.0811L83.8108 96.1941C82.9656 96.7012 82.7121 97.7154 83.2192 98.4761C83.7263 99.3213 84.7405 99.5748 85.5012 99.0677C85.5012 99.0677 85.5857 99.0677 85.5857 98.9832L86.3464 98.4761V102.195H85.5012C84.5715 102.195 83.8108 102.956 83.8108 103.885C83.8108 104.815 84.5715 105.576 85.5012 105.576H90.5723C91.502 105.576 92.2627 104.815 92.2627 103.885C92.2627 102.956 91.5865 102.279 90.6568 102.279Z" fill="#C1DAF3"/>
<path d="M104.18 102.279H103.335V95.5179C103.335 94.5882 102.574 93.8275 101.645 93.8275C101.307 93.8275 101.053 93.9121 100.715 94.0811L97.3342 96.1941C96.4891 96.7012 96.2355 97.7154 96.7426 98.4761C97.2497 99.3213 98.2639 99.5748 99.0246 99.0677C99.0246 99.0677 99.1091 99.0677 99.1091 98.9832L99.8698 98.4761V102.195H99.0246C98.0949 102.195 97.3342 102.956 97.3342 103.885C97.3342 104.815 98.0949 105.576 99.0246 105.576H104.096C105.025 105.576 105.786 104.815 105.786 103.885C105.786 102.956 105.11 102.279 104.18 102.279Z" fill="#C1DAF3"/>
<path d="M1.91406 80.3046V81.4033C3.0128 80.3046 4.19607 79.3749 5.46384 78.6142H3.60443C2.59021 78.6142 1.91406 79.3749 1.91406 80.3046Z" fill="#95C5F8"/>
<path d="M23.8878 78.6142H23.7188C24.3104 78.9523 24.9865 79.3749 25.5782 79.882C25.2401 79.1213 24.6485 78.6142 23.8878 78.6142Z" fill="#95C5F8"/>
<path d="M36.5648 102.279H35.7196V95.5179C35.7196 94.5882 34.9589 93.8275 34.0292 93.8275C33.6911 93.8275 33.4376 93.9121 33.0995 94.0811L32.2543 94.5882C32.1698 96.1095 31.9162 97.6309 31.4936 99.0677L32.2543 98.5606V102.279H31.4091C30.4794 102.279 29.7188 103.04 29.7188 103.97C29.7188 104.899 30.4794 105.66 31.4091 105.66H36.4802C37.4099 105.66 38.1706 104.899 38.1706 103.97C38.1706 103.04 37.4945 102.279 36.5648 102.279Z" fill="#C1DAF3"/>
<path d="M76.2882 71.5992V65.0067C76.2882 64.077 75.5275 63.3163 74.5978 63.3163C74.2597 63.3163 74.0062 63.4009 73.6681 63.5699L70.2874 65.6829C69.4422 66.19 69.1886 67.2042 69.6957 67.9649C70.2029 68.8101 71.2171 69.0636 71.9777 68.5565C71.9777 68.5565 72.0623 68.5565 72.0623 68.472L72.8229 67.9649V70.6695L76.2882 71.5992Z" fill="#C1DAF3"/>
<path d="M72.9081 81.995C72.8236 81.7414 72.8236 81.4879 72.8236 81.2343L69.5273 80.4737V88.7565C69.5273 89.6862 70.288 90.4469 71.2177 90.4469H77.7257C76.6269 89.4326 75.6127 88.3339 74.852 87.0661H72.9081V81.995Z" fill="#C1DAF3"/>
<path d="M63.8661 79.1213C63.1899 80.22 62.2602 81.1497 61.3305 81.9949H62.7673V87.066H59.3866V83.4317C58.3724 84.1079 57.1891 84.615 56.0059 84.9531V88.7564C56.0059 89.6861 56.7665 90.4468 57.6962 90.4468H64.4577C65.3874 90.4468 66.1481 89.6861 66.1481 88.7564V80.3045C66.1481 80.051 66.0636 79.7974 65.9791 79.6284L63.8661 79.1213Z" fill="#C1DAF3"/>
<path d="M93.193 21.226V19.5356C93.193 18.6059 92.4323 17.8453 91.5026 17.8453H84.7412C83.8114 17.8453 83.0508 18.6059 83.0508 19.5356V19.6202L86.2625 23.0854L86.4315 23.0009V21.226H89.8123V21.7331C90.911 21.3951 92.0098 21.226 93.193 21.226Z" fill="#95C5F8"/>
<path d="M106.716 26.5507V19.5356C106.716 18.6059 105.956 17.8453 105.026 17.8453H98.2646C97.3349 17.8453 96.5742 18.6059 96.5742 19.5356V21.3951C97.7575 21.5641 98.8562 21.8177 99.955 22.2402V21.226H103.336V23.8461C104.519 24.6068 105.702 25.452 106.716 26.5507Z" fill="#95C5F8"/>
<path d="M85.3333 60.0201L86.1785 54.7799C85.0798 54.1883 83.981 53.5967 82.9668 52.836V58.3297C82.9668 59.2594 83.7275 60.0201 84.6572 60.0201H85.3333Z" fill="#95C5F8"/>
<path d="M103.336 56.6394H99.955V55.6252C98.8562 56.0478 97.7575 56.3013 96.5742 56.4704V58.3298C96.5742 59.2595 97.3349 60.0201 98.2646 60.0201H105.026C105.956 60.0201 106.716 59.2595 106.716 58.3298V51.3147C105.702 52.329 104.603 53.2587 103.336 54.0193V56.6394Z" fill="#95C5F8"/>
<path d="M72.0623 41.4261C71.1326 41.4261 70.3719 42.1868 70.3719 43.1165C70.3719 44.0462 71.1326 44.8069 72.0623 44.8069H77.1334H77.3024C76.8798 43.7081 76.6263 42.6094 76.4572 41.4261H76.2882V34.6646C76.2882 33.7349 75.5275 32.9742 74.5978 32.9742C74.2597 32.9742 74.0062 33.0588 73.6681 33.2278L70.2874 35.3408C69.4422 35.8479 69.1886 36.8621 69.6957 37.6228C70.2029 38.3834 71.2171 38.7215 71.9777 38.2144C71.9777 38.2144 72.0623 38.2144 72.0623 38.1299L72.8229 37.6228V41.3416H72.0623V41.4261Z" fill="#95C5F8"/>
<path d="M56.0059 19.1977C56.0059 19.2822 56.0059 19.3667 56.0059 19.4512V27.9031C56.0059 28.8328 56.7665 29.5935 57.6962 29.5935H64.4577C65.3874 29.5935 66.1481 28.8328 66.1481 27.9031V25.283C64.9648 25.114 63.8661 24.8604 62.7673 24.4378V26.2127H59.3866V22.5784C58.0343 21.6487 56.9356 20.55 56.0059 19.1977Z" fill="#95C5F8"/>
<path d="M69.5273 25.283V27.903C69.5273 28.8327 70.288 29.5934 71.2177 29.5934H77.9792C78.1482 29.5934 78.3173 29.5934 78.4863 29.5089L77.7257 28.6637L75.4436 26.1281H72.9081V24.4378C71.8093 24.8604 70.6261 25.1139 69.5273 25.283Z" fill="#95C5F8"/>
<path d="M94.0382 24.5223C90.9955 24.5223 88.0374 25.452 85.5863 27.3114L76.6274 17.6763C80.2617 12.7742 79.332 5.84365 74.4299 2.20935C69.5278 -1.42495 62.5973 -0.495245 58.963 4.40684C55.3287 9.30892 56.2584 16.2394 61.1605 19.8737C65.0483 22.7474 70.2885 22.8319 74.2609 20.0428L83.1353 29.5934C77.9797 35.5942 78.6558 44.6377 84.6566 49.7933C86.178 51.1456 88.0374 52.0753 89.9813 52.667L87.3612 68.2184H87.1922C82.6282 68.2184 78.5713 71.0075 76.7964 75.1489L62.8508 71.8527C62.8508 71.5146 62.8508 71.2611 62.8508 70.923C62.8508 64.7531 57.7797 59.7665 51.6099 59.7665C45.44 59.7665 40.4534 64.8377 40.4534 71.0075C40.4534 72.5288 40.7915 73.9657 41.2986 75.318L25.7472 84.8686C20.7606 78.6142 11.7171 77.6 5.46269 82.502C-0.791694 87.4041 -1.80592 96.5321 3.09616 102.787C8.08276 109.041 17.1263 110.055 23.3806 105.153C28.6208 101.012 30.3112 93.8275 27.522 87.7422L43.158 78.1916C47.1304 82.9246 54.2299 83.5163 58.963 79.5439C60.3153 78.3606 61.414 76.9238 62.0902 75.2334L76.1203 78.5297C76.1203 78.8677 76.0358 79.1213 76.0358 79.4594C76.0358 85.6292 81.0223 90.7004 87.1922 90.7004C93.3621 90.7004 98.4332 85.7138 98.4332 79.5439C98.4332 74.7263 95.306 70.4159 90.742 68.8945L93.3621 53.3431C93.6156 53.3431 93.7847 53.3431 94.0382 53.3431C101.983 53.3431 108.406 46.9197 108.406 38.975C108.406 31.0302 101.898 24.5223 94.0382 24.5223ZM67.8374 18.6905C63.6115 18.6905 60.1462 15.2252 60.1462 10.9993C60.1462 6.77336 63.6115 3.30809 67.8374 3.30809C72.0634 3.30809 75.5286 6.77336 75.5286 10.9993C75.4441 15.2252 72.0634 18.6905 67.8374 18.6905ZM14.5907 104.815C8.50536 104.815 3.60328 99.9129 3.60328 93.8275C3.60328 87.7422 8.50536 82.8401 14.5907 82.8401C20.676 82.8401 25.5781 87.7422 25.5781 93.8275C25.5781 99.9129 20.5915 104.815 14.5907 104.815ZM59.5546 71.092C59.5546 75.4025 56.0048 78.9523 51.6099 78.8678C47.2149 78.7832 43.7496 75.318 43.8341 70.923C43.8341 66.6125 47.3839 63.0628 51.7789 63.1473C56.0893 63.1473 59.5546 66.6971 59.5546 70.923V71.092ZM95.0524 79.4594C95.0524 83.7698 91.5872 87.3196 87.2767 87.3196C82.9663 87.3196 79.4165 83.8543 79.4165 79.5439C79.4165 75.2334 82.8818 71.6837 87.1922 71.6837C91.5872 71.5991 95.0524 75.1489 95.0524 79.4594ZM94.0382 49.8779C87.9529 49.8779 83.0508 44.9758 83.0508 38.8904C83.0508 32.8051 87.9529 27.903 94.0382 27.903C100.124 27.903 105.026 32.8051 105.026 38.8904C105.026 44.9758 100.039 49.8779 94.0382 49.8779Z" fill="#1F65DD"/>
<path d="M102.491 63.5699C101.984 63.3164 101.308 63.3164 100.801 63.6544L97.4202 65.7674C96.575 66.2745 96.3214 67.2887 96.8286 68.0494C97.3357 68.8946 98.3499 69.1482 99.1106 68.641C99.1106 68.641 99.1951 68.641 99.1951 68.5565L99.9557 68.0494V71.7682H99.7022C100.378 72.7825 100.885 73.9657 101.224 75.149H104.097C105.027 75.149 105.788 74.3883 105.788 73.4586C105.788 72.5289 105.027 71.7682 104.097 71.7682H103.252V65.0067C103.252 64.4996 102.998 63.908 102.491 63.5699Z" fill="#95C5F8"/>
</svg>
