<svg width="25" height="25" viewBox="0 0 25 25" fill="none" xmlns="http://www.w3.org/2000/svg">
<path d="M4.49753 14.06C4.07898 14.3082 3.79763 14.7645 3.79763 15.2854C3.79763 16.0707 4.43648 16.7096 5.22174 16.7096C5.84056 16.7096 6.36824 16.3127 6.5642 15.7602H10.2536C11.0388 15.7602 11.6777 16.399 11.6777 17.1843C11.6777 17.9695 11.0388 18.6084 10.2536 18.6084H4.55715C3.24839 18.6084 2.18364 19.6731 2.18364 20.9819C2.18364 22.2906 3.24839 23.3554 4.55715 23.3554H9.30419C9.56636 23.3554 9.77889 23.1429 9.77889 22.8807C9.77889 22.6185 9.56636 22.406 9.30419 22.406H4.55715C3.7719 22.406 3.13304 21.7671 3.13304 20.9819C3.13304 20.1966 3.7719 19.5578 4.55715 19.5578H10.2536C11.5623 19.5578 12.6271 18.493 12.6271 17.1843C12.6271 15.8755 11.5623 14.8107 10.2536 14.8107H6.5642C6.45193 14.4942 6.23081 14.2289 5.94594 14.06L9.57163 8.11116C10.142 7.25385 10.4435 6.25488 10.4435 5.22174C10.4435 2.34247 8.101 0 5.22174 0C2.34247 0 0 2.34247 0 5.22174C0 6.25488 0.301484 7.25385 0.87184 8.11116L4.49753 14.06ZM5.22174 15.7602C4.95999 15.7602 4.74703 15.5472 4.74703 15.2854C4.74703 15.0237 4.95999 14.8107 5.22174 14.8107C5.48349 14.8107 5.69644 15.0237 5.69644 15.2854C5.69644 15.5472 5.48349 15.7602 5.22174 15.7602ZM5.22174 0.949407C7.5775 0.949407 9.49407 2.86597 9.49407 5.22174C9.49407 6.06994 9.24594 6.88961 8.77655 7.59217C8.7729 7.59763 8.76934 7.60318 8.76592 7.60883L5.22174 13.4239C5.22174 13.4239 1.67058 7.59763 1.66692 7.59217C1.19753 6.88961 0.949407 6.06994 0.949407 5.22174C0.949407 2.86597 2.86597 0.949407 5.22174 0.949407Z" fill="#001A46"/>
<path d="M5.22166 7.59518C6.53042 7.59518 7.59518 6.53042 7.59518 5.22166C7.59518 3.9129 6.53042 2.84814 5.22166 2.84814C3.9129 2.84814 2.84814 3.9129 2.84814 5.22166C2.84814 6.53042 3.9129 7.59518 5.22166 7.59518ZM5.22166 3.79755C6.00692 3.79755 6.64577 4.43641 6.64577 5.22166C6.64577 6.00692 6.00692 6.64577 5.22166 6.64577C4.43641 6.64577 3.79755 6.00692 3.79755 5.22166C3.79755 4.43641 4.43641 3.79755 5.22166 3.79755Z" fill="#001A46"/>
<path d="M19.0828 7.87988C16.2036 7.87988 13.8611 10.2224 13.8611 13.1016C13.8611 14.1364 14.1635 15.1369 14.7357 15.9951L18.3478 21.6612C18.0681 21.8304 17.8513 22.0932 17.7404 22.4058H13.5763C13.3141 22.4058 13.1016 22.6183 13.1016 22.8805C13.1016 23.1427 13.3141 23.3552 13.5763 23.3552H17.7404C17.9363 23.9077 18.464 24.3046 19.0828 24.3046C19.8681 24.3046 20.5069 23.6658 20.5069 22.8805C20.5069 22.364 20.2305 21.9109 19.8179 21.6612L23.43 15.9951C24.0021 15.1369 24.3046 14.1364 24.3046 13.1016C24.3046 10.2224 21.9621 7.87988 19.0828 7.87988ZM19.0828 23.3552C18.8211 23.3552 18.6081 23.1423 18.6081 22.8805C18.6081 22.6188 18.8211 22.4058 19.0828 22.4058C19.3446 22.4058 19.5575 22.6188 19.5575 22.8805C19.5575 23.1423 19.3446 23.3552 19.0828 23.3552ZM22.6376 15.4721C22.6358 15.4749 19.0828 21.048 19.0828 21.048C19.0828 21.048 15.5299 15.4749 15.528 15.4721C15.0586 14.7695 14.8105 13.9498 14.8105 13.1016C14.8105 10.7459 16.7271 8.82929 19.0828 8.82929C21.4386 8.82929 23.3552 10.7459 23.3552 13.1016C23.3552 13.9498 23.107 14.7695 22.6376 15.4721Z" fill="#001A46"/>
<path d="M19.083 10.728C17.7742 10.728 16.7095 11.7928 16.7095 13.1015C16.7095 14.4103 17.7742 15.4751 19.083 15.4751C20.3917 15.4751 21.4565 14.4103 21.4565 13.1015C21.4565 11.7928 20.3917 10.728 19.083 10.728ZM19.083 14.5257C18.2977 14.5257 17.6589 13.8868 17.6589 13.1015C17.6589 12.3163 18.2977 11.6774 19.083 11.6774C19.8682 11.6774 20.5071 12.3163 20.5071 13.1015C20.5071 13.8868 19.8682 14.5257 19.083 14.5257Z" fill="#001A46"/>
<path d="M11.4405 23.3552C11.7027 23.3552 11.9152 23.1426 11.9152 22.8805C11.9152 22.6183 11.7027 22.4058 11.4405 22.4058C11.1784 22.4058 10.9658 22.6183 10.9658 22.8805C10.9658 23.1426 11.1784 23.3552 11.4405 23.3552Z" fill="#001A46"/>
</svg>
