<svg width="61" height="52" viewBox="0 0 61 52" fill="none" xmlns="http://www.w3.org/2000/svg">
<path d="M39.8843 0.153809H53.9614C55.9168 0.153809 57.5785 0.838176 58.9474 2.20652C60.3156 3.57513 61 5.23687 61 7.19239V21.269C61 23.2244 60.316 24.8859 58.9474 26.2543C57.5787 27.6225 55.9164 28.3071 53.9614 28.3071H45.7499C44.7727 28.3071 43.9415 28.6494 43.2572 29.3335C42.5728 30.0173 42.2307 30.8486 42.2307 31.8267V32.9991C42.2307 35.5898 43.1474 37.8008 44.9802 39.6341C46.8131 41.4665 49.0246 42.383 51.6156 42.383H53.9614C54.5972 42.383 55.1469 42.6158 55.6115 43.0798C56.0756 43.5438 56.3079 44.0939 56.3079 44.7294V49.4222C56.3079 50.0566 56.0756 50.6077 55.6115 51.0719C55.1465 51.5358 54.5974 51.7687 53.9614 51.7687H51.6154C49.0735 51.7687 46.6479 51.2731 44.3383 50.2836C42.0288 49.2941 40.031 47.9556 38.3446 46.2692C36.6586 44.5827 35.3204 42.5853 34.3307 40.2757C33.3412 37.9662 32.8462 35.5407 32.8462 32.9992V7.19188C32.8462 5.23636 33.5306 3.57475 34.8989 2.2064C36.2673 0.838047 37.9294 0.153809 39.8843 0.153809Z" fill="#FEFCFF"/>
<path d="M2.05436 2.20652C3.42258 0.838176 5.08445 0.153809 7.03984 0.153809H21.1165C23.0719 0.153809 24.7336 0.838176 26.102 2.20652C27.4702 3.57526 28.1543 5.23687 28.1543 7.19239V21.269C28.1543 23.2244 27.4702 24.8859 26.102 26.2543C24.7336 27.6225 23.0717 28.3071 21.1165 28.3071H12.905C11.9277 28.3071 11.096 28.6494 10.4117 29.3335C9.72813 30.0176 9.3853 30.8486 9.3853 31.8267V32.9991C9.3853 35.5898 10.3019 37.8008 12.1351 39.6341C13.9679 41.4665 16.1789 42.383 18.7701 42.383H21.1165C21.7518 42.383 22.302 42.6158 22.766 43.0798C23.2304 43.5438 23.463 44.0939 23.463 44.7294V49.4222C23.463 50.0566 23.2304 50.6077 22.766 51.0719C22.3021 51.5358 21.7519 51.7687 21.1165 51.7687H18.7701C16.2286 51.7687 13.8031 51.2731 11.4932 50.2836C9.1841 49.2941 7.1866 47.9556 5.50007 46.2692C3.81368 44.5827 2.47473 42.5848 1.48567 40.2757C0.496231 37.9667 0.000997543 35.5407 0.000997543 32.9992V7.19188C0.00138283 5.23636 0.685108 3.57475 2.05436 2.20652Z" fill="#FEFCFF"/>
</svg>
