<svg width="25" height="25" viewBox="0 0 25 25" fill="none" xmlns="http://www.w3.org/2000/svg">
<rect x="22.6563" y="10.5957" width="0.781268" height="0.781268" rx="0.390634" fill="#001A46" stroke="#EDEDED" stroke-width="0.781268"/>
<rect x="22.6563" y="14.2583" width="0.781268" height="0.781268" rx="0.390634" fill="#001A46" stroke="#EDEDED" stroke-width="0.781268"/>
<path d="M6.30035 0C6.03067 0 5.81201 0.218706 5.81201 0.488341C5.81201 0.758025 6.03067 0.976682 6.30035 0.976682C9.05886 0.976682 11.3031 3.27913 11.3031 6.10937C11.3031 6.37905 11.5218 6.59771 11.7914 6.59771C12.0611 6.59771 12.2797 6.379 12.2797 6.10937C12.2798 2.74064 9.5974 0 6.30035 0Z" fill="#001A46"/>
<path d="M6.29889 2.31641C6.0292 2.31641 5.81055 2.53511 5.81055 2.80475C5.81055 3.07443 6.0292 3.29309 6.29889 3.29309C7.80942 3.29309 9.03831 4.55625 9.03831 6.10887C9.03831 6.37856 9.25701 6.59722 9.52665 6.59722C9.79633 6.59722 10.015 6.37851 10.015 6.10887C10.015 4.01771 8.34796 2.31641 6.29889 2.31641Z" fill="#001A46"/>
<path d="M6.30817 4.45117C6.03843 4.45117 5.81982 4.66978 5.81982 4.93951C5.81982 5.2092 6.03853 5.42785 6.30817 5.42785C6.66105 5.42785 6.94807 5.72688 6.94807 6.09447C6.94807 6.36415 7.16673 6.58281 7.43641 6.58281C7.7061 6.58281 7.92475 6.36411 7.92475 6.09447C7.9248 5.18835 7.19954 4.45117 6.30817 4.45117Z" fill="#001A46"/>
<path d="M22.3874 3.87012H21.3049C21.0352 3.87012 20.8166 4.08877 20.8166 4.35846C20.8166 4.62814 21.0352 4.8468 21.3049 4.8468H22.3874C23.2895 4.8468 24.0234 5.5807 24.0234 6.48277V13.1118C24.0234 13.6312 23.7798 14.0944 23.4012 14.3943V13.1172C23.4012 12.1209 22.6903 11.2652 21.7109 11.0825L21.3952 11.0237C21.4656 10.8079 21.5041 10.5779 21.5041 10.3389V9.21667C21.5041 7.99648 20.5114 7.00378 19.2912 7.00378C18.0711 7.00378 17.0784 7.99648 17.0784 9.21667V10.3389C17.0784 10.5779 17.117 10.8079 17.1873 11.0237L16.8717 11.0825C15.8922 11.2652 15.1813 12.1209 15.1813 13.1172V14.533C14.6878 14.251 14.3541 13.7198 14.3541 13.1118V6.48277C14.3541 5.5807 15.088 4.8468 15.9901 4.8468H17.154C17.4237 4.8468 17.6423 4.62814 17.6423 4.35846C17.6423 4.08877 17.4236 3.87012 17.154 3.87012H15.9901C14.5495 3.87012 13.3774 5.04216 13.3774 6.48277V13.1118C13.3774 14.5524 14.5495 15.7244 15.9901 15.7244H18.4475V17.1285C18.4475 17.3257 18.5661 17.5037 18.7482 17.5794C18.8089 17.6046 18.8725 17.6169 18.9357 17.6169C19.0623 17.6169 19.1868 17.5676 19.2801 17.475L21.0416 15.7244H22.3874C23.828 15.7244 25.0001 14.5524 25.0001 13.1118V6.48277C25.0001 5.04216 23.828 3.87012 22.3874 3.87012ZM18.055 9.21667C18.055 8.53502 18.6095 7.98046 19.2912 7.98046C19.9729 7.98046 20.5274 8.53502 20.5274 9.21667V10.3389C20.5274 11.0205 19.9729 11.5751 19.2912 11.5751C18.6095 11.5751 18.055 11.0205 18.055 10.3389V9.21667ZM22.4244 14.7467C22.412 14.747 22.3998 14.7477 22.3873 14.7477H20.8403V14.7478C20.7112 14.7478 20.5875 14.7988 20.496 14.8897L19.4242 15.9548V15.236C19.4242 14.9664 19.2055 14.7477 18.9358 14.7477H16.1581V13.1172C16.1581 12.5911 16.5335 12.1391 17.0507 12.0426L17.7392 11.9142C18.1389 12.3082 18.687 12.5517 19.2912 12.5517C19.8954 12.5517 20.4437 12.3081 20.8434 11.9142L21.5319 12.0426C22.0491 12.1391 22.4245 12.591 22.4245 13.1172V14.7467H22.4244Z" fill="#001A46"/>
<path d="M19.3389 4.01319C19.2482 3.92188 19.1221 3.87012 18.9937 3.87012C18.8653 3.87012 18.7393 3.92188 18.6484 4.01319C18.5576 4.10357 18.5054 4.2296 18.5054 4.35846C18.5054 4.48688 18.5576 4.61291 18.6484 4.70373C18.7393 4.7945 18.8652 4.8468 18.9937 4.8468C19.1221 4.8468 19.2482 4.79455 19.3389 4.70373C19.4298 4.61242 19.4821 4.48693 19.4821 4.35846C19.4821 4.22955 19.4298 4.10401 19.3389 4.01319Z" fill="#001A46"/>
<path d="M9.07629 16.4282C8.98547 16.3374 8.85998 16.2852 8.73102 16.2852C8.6026 16.2852 8.47657 16.3374 8.38579 16.4282C8.29497 16.519 8.24268 16.645 8.24268 16.7735C8.24268 16.9024 8.29492 17.0279 8.38579 17.1188C8.47706 17.2101 8.6026 17.2623 8.73102 17.2623C8.85944 17.2623 8.98547 17.2101 9.07629 17.1188C9.1676 17.0279 9.21936 16.9024 9.21936 16.7735C9.21936 16.6451 9.1676 16.5191 9.07629 16.4282Z" fill="#001A46"/>
<path d="M19.765 20.8442L16.0237 17.1029C15.5257 16.6048 14.7421 16.532 14.1609 16.9295L11.773 18.5622C11.5792 18.6947 11.3182 18.6705 11.1521 18.5044L10.3625 17.7147C10.1719 17.5241 9.86274 17.5241 9.67181 17.7147C9.48114 17.9054 9.48114 18.2146 9.67181 18.4054L10.4614 19.1951C10.9595 19.6931 11.7429 19.7661 12.3243 19.3685L14.7121 17.7358C14.9058 17.6033 15.167 17.6275 15.333 17.7936L19.0744 21.5349C19.2648 21.7253 19.2647 22.0351 19.0743 22.2256C16.6752 24.6247 12.7716 24.6247 10.3725 22.2256L2.77556 14.6286C1.61333 13.4664 0.973374 11.9212 0.973374 10.2776C0.973374 8.63405 1.61338 7.08885 2.77561 5.92661C2.86785 5.83437 2.99046 5.78364 3.12088 5.78364C3.25136 5.78364 3.37401 5.83442 3.4662 5.92666L7.2075 9.668C7.37347 9.83398 7.39779 10.0952 7.26536 10.2889L5.63271 12.6768C5.23509 13.2581 5.30804 14.0415 5.80605 14.5396L6.99299 15.7265C7.18372 15.9172 7.49286 15.9172 7.68368 15.7265C7.87436 15.5359 7.87436 15.2266 7.68368 15.0359L6.49674 13.8489C6.33077 13.6829 6.30645 13.4218 6.43893 13.228L8.07163 10.8402C8.46915 10.2588 8.3962 9.47537 7.89819 8.97736L4.15689 5.23602C3.58569 4.66482 2.65622 4.66482 2.08492 5.23602C-0.694974 8.01597 -0.694974 12.5393 2.08492 15.3192L9.68187 22.9161C11.0718 24.3061 12.8976 25.0011 14.7234 25.0011C16.5492 25.001 18.375 24.306 19.765 22.9161C20.3362 22.3449 20.3362 21.4155 19.765 20.8442Z" fill="#001A46"/>
<path d="M6.57771 12.0081L3.61739 9.04776C3.42661 8.85713 3.11748 8.85713 2.9267 9.04776C2.73602 9.23848 2.73602 9.54772 2.9267 9.73845L5.88707 12.6988C5.98243 12.7941 6.10734 12.8418 6.23239 12.8418C6.35734 12.8418 6.48235 12.7941 6.57771 12.6988C6.76839 12.508 6.76839 12.1988 6.57771 12.0081Z" fill="#001A46"/>
<path d="M17.9084 23.3383L14.7937 20.2235C14.6029 20.0329 14.2937 20.0329 14.103 20.2235C13.9123 20.4143 13.9123 20.7235 14.103 20.9142L17.2177 24.029C17.3131 24.1243 17.438 24.172 17.5631 24.172C17.688 24.172 17.813 24.1243 17.9084 24.029C18.0991 23.8382 18.0991 23.529 17.9084 23.3383Z" fill="#001A46"/>
</svg>
