<svg width="100" height="100" viewBox="0 0 100 100" fill="none" xmlns="http://www.w3.org/2000/svg">
<path d="M95.1613 0H4.83871C2.09677 0 0 2.09677 0 4.83871V72.5806C0 75.3226 2.09677 77.4194 4.83871 77.4194H39.5161L41.2903 80.1613C42.0968 81.4516 42.0968 83.0645 41.2903 84.3548L39.5161 87.0968H35.4839C30.9677 87.0968 27.4194 90.6452 27.4194 95.1613V98.3871C27.4194 99.3548 28.0645 100 29.0323 100H70.9677C71.9355 100 72.5806 99.3548 72.5806 98.3871V95.1613C72.5806 90.6452 69.0323 87.0968 64.5161 87.0968H60.4839L58.7097 84.3548C57.9032 83.0645 57.9032 81.4516 58.7097 80.1613L60.4839 77.4194H95.1613C97.9032 77.4194 100 75.3226 100 72.5806V4.83871C100 2.09677 97.9032 0 95.1613 0ZM4.83871 3.22581H95.1613C96.129 3.22581 96.7742 3.87097 96.7742 4.83871V61.2903H93.5484V8.06452C93.5484 7.09677 92.9032 6.45161 91.9355 6.45161H8.06452C7.09677 6.45161 6.45161 7.09677 6.45161 8.06452V61.2903H3.22581V4.83871C3.22581 3.87097 3.87097 3.22581 4.83871 3.22581ZM90.3226 61.2903H9.67742V9.67742H90.3226V61.2903ZM69.3548 95.1613V96.7742H30.6452V95.1613C30.6452 92.4194 32.7419 90.3226 35.4839 90.3226H64.5161C67.2581 90.3226 69.3548 92.4194 69.3548 95.1613ZM55.9677 86.129L56.6129 87.0968H43.2258L43.871 86.129C45.4839 83.871 45.4839 80.8064 43.871 78.3871L43.3871 77.4194H56.7742L56.129 78.3871C54.5161 80.8064 54.5161 83.7097 55.9677 86.129ZM95.1613 74.1936H4.83871C3.87097 74.1936 3.22581 73.5484 3.22581 72.5806V64.5161H96.7742V72.5806C96.7742 73.5484 96.129 74.1936 95.1613 74.1936Z" fill="#C1DAF3"/>
<path d="M50.0012 66.1291C48.227 66.1291 46.7754 67.5807 46.7754 69.3549C46.7754 71.1291 48.227 72.5807 50.0012 72.5807C51.7754 72.5807 53.227 71.1291 53.227 69.3549C53.227 67.5807 51.7754 66.1291 50.0012 66.1291Z" fill="#BED2FA"/>
<path d="M14.5172 58.0645H53.2269C54.1946 58.0645 54.8398 57.4193 54.8398 56.4516V50C54.8398 49.0322 54.1946 48.387 53.2269 48.387H51.614V30.6451C51.614 29.6774 50.9688 29.0322 50.0011 29.0322H43.5495C42.5817 29.0322 41.9366 29.6774 41.9366 30.6451V48.387H38.7108V22.5806C38.7108 21.6129 38.0656 20.9677 37.0978 20.9677H30.6462C29.6785 20.9677 29.0333 21.6129 29.0333 22.5806V48.387H25.8075V14.5161C25.8075 13.5483 25.1624 12.9032 24.1946 12.9032H17.743C16.7753 12.9032 16.1301 13.5483 16.1301 14.5161V48.387H14.5172C13.5495 48.387 12.9043 49.0322 12.9043 50V56.4516C12.9043 57.4193 13.5495 58.0645 14.5172 58.0645ZM45.1624 32.258H48.3882V48.387H45.1624V32.258ZM32.2591 24.1935H35.4849V48.387H32.2591V24.1935ZM19.3559 16.129H22.5817V48.387H19.3559V16.129ZM16.1301 51.6129H51.614V54.8387H16.1301V51.6129Z" fill="#005DFF"/>
<path d="M59.6774 58.0646H85.4838C86.4515 58.0646 87.0967 57.4194 87.0967 56.4517V43.5484C87.0967 42.5807 86.4515 41.9355 85.4838 41.9355H59.6774C58.7096 41.9355 58.0645 42.5807 58.0645 43.5484V56.4517C58.0645 57.4194 58.7096 58.0646 59.6774 58.0646ZM61.2903 45.1613H83.8709V54.8388H61.2903V45.1613Z" fill="#1A0F91"/>
<path d="M72.581 38.7096C79.6777 38.7096 85.4842 32.9032 85.4842 25.8064C85.4842 18.7096 79.6777 12.9032 72.581 12.9032C65.4842 12.9032 59.6777 18.7096 59.6777 25.8064C59.6777 32.9032 65.4842 38.7096 72.581 38.7096ZM72.581 35.4838C70.6455 35.4838 68.5487 34.8387 66.9358 33.7096L73.2261 27.4193H82.0971C81.2906 32.0967 77.2584 35.4838 72.581 35.4838ZM82.0971 24.1935H74.1939V16.2903C78.2261 16.9354 81.4519 20.1612 82.0971 24.1935ZM70.9681 16.2903V25.1612L64.6777 31.4516C61.6132 27.0967 62.581 21.129 66.9358 18.0645C68.0648 17.0967 69.5164 16.4516 70.9681 16.2903Z" fill="#005DFF"/>
<path d="M80.6447 48.3871H64.5156V51.6129H80.6447V48.3871Z" fill="#005DFF"/>
</svg>
