<svg width="26" height="26" viewBox="0 0 26 26" fill="none" xmlns="http://www.w3.org/2000/svg">
<path d="M25.7438 0.0667419C25.5854 -0.0236486 25.3906 -0.0221252 25.2337 0.0707028L15.9279 5.57356C15.6864 5.7163 15.6065 6.02769 15.7492 6.26911C15.8919 6.51047 16.2033 6.59045 16.4448 6.44775L23.1216 2.49957L10.685 15.4037L4.4994 13.5113L12.5718 8.73788C12.8132 8.59509 12.8932 8.2837 12.7505 8.04228C12.6078 7.80092 12.2963 7.72084 12.0549 7.86364L2.99155 13.223C2.81839 13.3255 2.72195 13.5204 2.74577 13.7202C2.76959 13.9201 2.90908 14.0869 3.10144 14.1458L10.4885 16.4057L13.7475 22.3376C13.7509 22.3438 13.7544 22.349 13.758 22.3536C13.8124 22.4443 13.8939 22.5184 13.9956 22.5611C14.0592 22.5879 14.1261 22.6009 14.1925 22.6009C14.3227 22.6009 14.4508 22.5509 14.5475 22.4563L18.2949 18.7939L25.3436 20.9504C25.3924 20.9653 25.4424 20.9726 25.4921 20.9726C25.5996 20.9726 25.7057 20.9385 25.7942 20.8731C25.9236 20.7773 26 20.6258 26 20.4648V0.507827C26 0.325472 25.9022 0.157082 25.7438 0.0667419ZM13.7752 16.7187C13.7164 16.8037 13.6849 16.9045 13.6849 17.0079V20.1142L11.4595 16.0636L21.307 5.84595L13.7752 16.7187ZM14.7005 20.8868V17.6943L17.1882 18.4554L14.7005 20.8868ZM24.9844 19.7784L15.0059 16.7257L24.9844 2.32092V19.7784Z" fill="#001A46"/>
<path d="M8.34964 17.6507C8.15129 17.4524 7.82984 17.4524 7.63144 17.6507L2.89091 22.3912C2.69261 22.5895 2.69261 22.9111 2.89091 23.1094C2.99014 23.2085 3.12009 23.2581 3.25004 23.2581C3.37999 23.2581 3.50994 23.2085 3.60911 23.1094L8.34964 18.3688C8.54794 18.1706 8.54794 17.849 8.34964 17.6507Z" fill="#001A46"/>
<path d="M2.03484 23.965C1.83649 23.7669 1.51504 23.7668 1.31669 23.9651L0.148725 25.1331C-0.0495751 25.3314 -0.0495751 25.6529 0.148725 25.8513C0.247901 25.9504 0.37785 26 0.507799 26C0.637748 26 0.767697 25.9503 0.866873 25.8512L2.03484 24.6832C2.23314 24.4849 2.23314 24.1634 2.03484 23.965Z" fill="#001A46"/>
<path d="M7.24374 25.1034C7.14934 25.0089 7.01832 24.9546 6.88477 24.9546C6.75065 24.9546 6.62019 25.0089 6.52574 25.1034C6.43129 25.1978 6.37695 25.3283 6.37695 25.4624C6.37695 25.596 6.43124 25.727 6.52574 25.8214C6.62019 25.9159 6.75121 25.9702 6.88477 25.9702C7.01832 25.9702 7.14934 25.9159 7.24374 25.8214C7.33819 25.727 7.39258 25.596 7.39258 25.4624C7.39258 25.3283 7.33824 25.1978 7.24374 25.1034Z" fill="#001A46"/>
<path d="M11.0218 21.325C10.8236 21.1267 10.5022 21.1267 10.3037 21.325L7.79277 23.8359C7.59447 24.0342 7.59447 24.3557 7.79277 24.554C7.89194 24.6532 8.02189 24.7028 8.15184 24.7028C8.28179 24.7028 8.41174 24.6531 8.51092 24.554L11.0218 22.0431C11.2201 21.8448 11.2201 21.5233 11.0218 21.325Z" fill="#001A46"/>
<path d="M19.6878 21.1321C19.4895 20.9338 19.168 20.9338 18.9697 21.1321L16.4519 23.6498C16.2536 23.8481 16.2536 24.1697 16.4519 24.368C16.5511 24.4671 16.6811 24.5168 16.811 24.5168C16.941 24.5168 17.0709 24.4671 17.1701 24.368L19.6878 21.8503C19.8861 21.652 19.8861 21.3304 19.6878 21.1321Z" fill="#001A46"/>
<path d="M14.3966 6.92223C14.3022 6.82777 14.1712 6.77344 14.0376 6.77344C13.904 6.77344 13.773 6.82777 13.6786 6.92223C13.5842 7.01668 13.5298 7.14769 13.5298 7.28176C13.5298 7.41531 13.5841 7.54582 13.6786 7.64027C13.773 7.73523 13.904 7.78906 14.0376 7.78906C14.1712 7.78906 14.3022 7.73523 14.3966 7.64027C14.491 7.54582 14.5454 7.41531 14.5454 7.28176C14.5454 7.14769 14.4911 7.01668 14.3966 6.92223Z" fill="#001A46"/>
</svg>
