<svg width="166" height="165" viewBox="0 0 166 165" fill="none" xmlns="http://www.w3.org/2000/svg">
<path d="M126.956 84.4686C125.844 108.599 105.317 127.126 81.1877 125.918C56.987 124.706 38.3331 104.148 39.4425 80.088C40.5551 55.9576 61.0823 37.4308 85.212 38.6387C109.341 39.8464 128.066 60.4099 126.956 84.4686Z" fill="#F3F7FF" stroke="#001A46" stroke-width="2"/>
<path d="M117.45 83.3916C116.578 102.304 100.49 116.827 81.5731 115.881C62.6011 114.931 47.9804 98.8147 48.8499 79.9578C49.7219 61.0457 65.8107 46.5217 84.7275 47.4686C103.643 48.4154 118.319 64.5362 117.45 83.3916Z" stroke="#B6DDF6" stroke-width="3"/>
<path d="M119.406 83.7016C118.481 103.753 101.425 119.143 81.3809 118.14C61.2771 117.133 45.7775 100.054 46.6993 80.0622C47.6238 60.011 64.68 44.6206 84.7245 45.6239C104.769 46.6272 120.327 63.7095 119.406 83.7016Z" fill="#000261"/>
<path d="M69.5449 75.2994L89.2419 63.1782L69.5449 69.6176V75.2994Z" stroke="#BED2FA" stroke-width="1.2"/>
<path d="M89.2424 63.5571V75.6783L80.5303 88.5571V100.678M80.5303 100.678L69.5 76.1785L83.5606 91.9662L80.5303 100.678Z" stroke="#BED2FA" stroke-width="1.2"/>
<path d="M88.5 62.6782L96.0608 73.7843L97.9548 85.9055M97.9548 85.9055L82 100.178L89.2426 76.057L97.9548 85.9055Z" stroke="#BED2FA" stroke-width="1.2"/>
<path d="M83.5602 91.5873L93.7875 81.3601L94.9995 74.6782L89.242 76.4358L69.9238 75.6782" stroke="#BED2FA" stroke-width="1.2"/>
</svg>
