<svg width="159" height="21" viewBox="0 0 159 21" fill="none" xmlns="http://www.w3.org/2000/svg">
<path d="M0 16.4746H7.94826V17.2881H0V16.4746ZM0 9.91529H6.90505V10.7288H0V9.91529ZM0 3.71191H7.74956V4.52547H0V3.71191Z" fill="white"/>
<path d="M74.7148 16.4746H82.6631V17.2881H74.7148V16.4746ZM74.7148 9.91529H81.6199V10.7288H74.7148V9.91529ZM74.7148 3.71191H82.4644V4.52547H74.7148V3.71191Z" fill="white"/>
<path d="M10.0841 3.71191H11.0279L15.1511 9.55935L19.2742 3.71191H20.2181L15.6478 10.2204L20.5658 17.2881H19.622L15.1511 10.9831L10.6802 17.2881H9.73633L14.6543 10.2712L10.0841 3.71191Z" fill="white"/>
<path d="M31.9919 4.8814C32.8861 5.64411 33.3332 6.76275 33.3332 8.18648C33.3332 9.66105 32.8861 10.7797 31.9919 11.5932C31.0977 12.4068 29.8558 12.7627 28.2165 12.7627H24.3417V17.2881H23.5469V3.71191H28.2165C29.8061 3.71191 31.0977 4.11869 31.9919 4.8814ZM31.3958 10.9831C32.1409 10.3221 32.5383 9.40681 32.5383 8.18648C32.5383 7.01699 32.1409 6.10174 31.3958 5.44072C30.6506 4.83055 29.5577 4.47462 28.1668 4.47462H24.3417V11.8983H28.1668C29.5577 11.9492 30.6506 11.6441 31.3958 10.9831Z" fill="white"/>
<path d="M36.1152 3.71191H36.9101V16.4746H42.8216V17.2881H36.1152V3.71191Z" fill="white"/>
<path d="M86.4863 0H87.0825V20.9999H86.4863V0Z" fill="white"/>
<path d="M88.7715 0H89.3676V20.9999H88.7715V0Z" fill="white"/>
<path d="M54.4959 4.57622C55.5392 5.18639 56.3837 5.99994 56.9798 7.06774C57.5759 8.13553 57.874 9.25417 57.874 10.4745C57.874 11.6948 57.5759 12.8643 56.9798 13.9321C56.3837 14.9999 55.5392 15.8135 54.4959 16.4236C53.4527 17.0338 52.3102 17.3389 51.0683 17.3389C49.8263 17.3389 48.6838 17.0338 47.6406 16.4236C46.5974 15.8135 45.7529 14.9491 45.1567 13.9321C44.511 12.8643 44.2129 11.6948 44.2129 10.4745C44.2129 9.25417 44.511 8.08468 45.1071 7.06774C45.7032 5.99994 46.5477 5.18639 47.5909 4.57622C48.6341 3.96605 49.7767 3.66097 51.0186 3.66097C52.3102 3.61012 53.4527 3.9152 54.4959 4.57622ZM48.038 5.23723C47.0941 5.79655 46.3987 6.50842 45.8522 7.42367C45.3058 8.33892 45.0574 9.35587 45.0574 10.4745C45.0574 11.5931 45.3058 12.6101 45.8522 13.5253C46.3987 14.4406 47.1438 15.2033 48.038 15.7626C48.9818 16.3219 49.9754 16.5762 51.0683 16.5762C52.1611 16.5762 53.1547 16.3219 54.0985 15.7626C55.0424 15.2033 55.7379 14.4914 56.2843 13.5253C56.8308 12.6101 57.0791 11.5931 57.0791 10.4745C57.0791 9.35587 56.8308 8.38977 56.2843 7.42367C55.7379 6.50842 54.9927 5.74571 54.0985 5.23723C53.2044 4.72876 52.1611 4.42368 51.0683 4.42368C49.9754 4.42368 48.9818 4.67791 48.038 5.23723Z" fill="white"/>
<path d="M69.9937 17.2881L66.8641 12.7119C66.566 12.7627 66.1686 12.8136 65.7712 12.8136H61.8964V17.2881H61.1016V3.71191H65.7712C67.4105 3.71191 68.7021 4.11869 69.5466 4.8814C70.4408 5.64411 70.8879 6.76275 70.8879 8.18648C70.8879 9.35597 70.5898 10.2712 70.0434 11.0339C69.4969 11.7966 68.7021 12.3051 67.6092 12.5593L70.9375 17.2881H69.9937ZM65.7712 11.9492C67.1621 11.9492 68.2053 11.6441 69.0001 10.9831C69.7453 10.3221 70.1427 9.40681 70.1427 8.18648C70.1427 7.01699 69.7453 6.10174 69.0001 5.44072C68.255 4.83055 67.1621 4.47462 65.7712 4.47462H61.8467V11.8983H65.7712V11.9492Z" fill="white"/>
<path d="M51.5148 9.96621C51.6638 10.1187 51.7135 10.2713 51.7135 10.4747C51.7135 10.6781 51.6638 10.8306 51.5148 10.9832C51.3657 11.1357 51.2167 11.1865 51.0677 11.1865C50.869 11.1865 50.7199 11.1357 50.6206 10.9832C50.4716 10.8306 50.4219 10.6781 50.4219 10.4747C50.4219 10.2713 50.4716 10.1187 50.6206 9.96621C50.7696 9.81366 50.9186 9.76282 51.0677 9.76282C51.2664 9.81366 51.4154 9.86451 51.5148 9.96621Z" fill="white"/>
<path d="M93.9395 5.64441H94.933V15.8139H93.9395V5.64441Z" fill="white"/>
<path d="M105.218 5.64368H106.161V15.8131H105.118L98.9584 7.21994V15.8131H97.9648V5.64368H99.0081L105.218 14.2369V5.64368Z" fill="white"/>
<path d="M113.512 6.71155C113.015 6.559 112.568 6.50816 112.171 6.50816C111.475 6.50816 110.929 6.6607 110.531 6.91494C110.134 7.16917 109.935 7.57595 109.935 8.03358C109.935 8.44035 110.035 8.79628 110.283 9.05052C110.531 9.30476 110.78 9.50815 111.128 9.66069C111.475 9.81323 111.922 9.96577 112.469 10.1692C113.164 10.3726 113.661 10.5759 114.108 10.7793C114.555 10.9827 114.853 11.2878 115.151 11.6437C115.449 11.9997 115.598 12.5081 115.598 13.1183C115.598 13.6776 115.449 14.1353 115.151 14.542C114.853 14.9488 114.456 15.3047 113.909 15.5081C113.363 15.7115 112.767 15.8641 112.071 15.8641C111.376 15.8641 110.73 15.7115 110.035 15.4573C109.389 15.1522 108.793 14.7963 108.346 14.3386L108.793 13.5251C109.24 13.9827 109.737 14.3386 110.333 14.5929C110.929 14.8471 111.475 14.9488 112.071 14.9488C112.817 14.9488 113.413 14.7963 113.86 14.4912C114.307 14.1861 114.506 13.7285 114.506 13.22C114.506 12.8132 114.406 12.4573 114.158 12.1522C113.909 11.8471 113.661 11.6946 113.313 11.542C112.966 11.3895 112.519 11.237 111.922 11.0336C111.227 10.8302 110.73 10.6268 110.283 10.4234C109.886 10.22 109.538 9.96577 109.24 9.55899C108.942 9.20306 108.793 8.69459 108.793 8.08442C108.793 7.57595 108.942 7.11832 109.24 6.71155C109.538 6.30477 109.935 6.05053 110.432 5.79629C110.929 5.59291 111.525 5.49121 112.22 5.49121C112.767 5.49121 113.313 5.59291 113.86 5.74545C114.406 5.89799 114.903 6.15223 115.3 6.40646L114.853 7.27087C114.406 7.01663 113.959 6.81324 113.512 6.71155Z" fill="white"/>
<path d="M117.934 5.64368H118.927V15.8131H117.934V5.64368Z" fill="white"/>
<path d="M129.011 10.8302H129.855V14.542C129.358 14.9488 128.812 15.3047 128.166 15.5081C127.52 15.7624 126.875 15.8641 126.229 15.8641C125.285 15.8641 124.44 15.6098 123.646 15.1522C122.851 14.6946 122.205 14.0336 121.758 13.2708C121.311 12.4573 121.062 11.5929 121.062 10.6776C121.062 9.76238 121.311 8.89798 121.758 8.08442C122.205 7.32171 122.851 6.6607 123.646 6.20307C124.44 5.74545 125.335 5.49121 126.279 5.49121C126.974 5.49121 127.62 5.59291 128.216 5.84714C128.862 6.10138 129.408 6.40646 129.905 6.86409L129.358 7.57595C128.961 7.16917 128.464 6.91494 127.968 6.6607C127.421 6.45731 126.875 6.35561 126.328 6.35561C125.583 6.35561 124.838 6.559 124.192 6.91494C123.546 7.32171 123.05 7.83019 122.652 8.44035C122.255 9.10137 122.106 9.81323 122.106 10.5759C122.106 11.3386 122.304 12.1014 122.652 12.7115C123.05 13.3725 123.546 13.881 124.192 14.2878C124.838 14.6946 125.533 14.8471 126.328 14.8471C126.825 14.8471 127.272 14.7454 127.719 14.5929C128.166 14.4403 128.613 14.1861 129.011 13.9319V10.8302Z" fill="white"/>
<path d="M132.785 5.64368H133.779V10.2708H139.988V5.64368H140.982V15.8131H139.988V11.186H133.779V15.8131H132.785V5.64368Z" fill="white"/>
<path d="M142.621 5.64368H150.172V6.55893H146.893V15.8131H145.9V6.55893H142.621V5.64368Z" fill="white"/>
<path d="M156.084 6.71155C155.588 6.559 155.14 6.50816 154.743 6.50816C154.048 6.50816 153.501 6.6607 153.104 6.91494C152.706 7.16917 152.508 7.57595 152.508 8.03358C152.508 8.44035 152.607 8.79628 152.855 9.05052C153.104 9.30476 153.352 9.50815 153.7 9.66069C154.048 9.81323 154.495 9.96577 155.041 10.1692C155.737 10.3726 156.233 10.5759 156.68 10.7793C157.078 10.9827 157.426 11.2878 157.724 11.6437C158.022 11.9997 158.171 12.5081 158.171 13.1183C158.171 13.6776 158.022 14.1353 157.724 14.542C157.426 14.9488 157.028 15.3047 156.482 15.5081C155.935 15.7115 155.339 15.8641 154.644 15.8641C153.948 15.8641 153.302 15.7115 152.607 15.4573C151.912 15.203 151.365 14.7963 150.918 14.3386L151.365 13.5251C151.812 13.9827 152.309 14.3386 152.905 14.5929C153.501 14.8471 154.048 14.9488 154.644 14.9488C155.389 14.9488 155.985 14.7963 156.432 14.4912C156.879 14.1861 157.078 13.7285 157.078 13.22C157.078 12.8132 156.979 12.4573 156.73 12.1522C156.482 11.898 156.233 11.6946 155.886 11.542C155.538 11.3895 155.091 11.237 154.495 11.0336C153.799 10.8302 153.302 10.6268 152.855 10.4234C152.458 10.22 152.11 9.96577 151.812 9.55899C151.514 9.20306 151.365 8.69459 151.365 8.08442C151.365 7.57595 151.514 7.11832 151.812 6.71155C152.11 6.30477 152.508 6.05053 153.004 5.79629C153.501 5.59291 154.097 5.49121 154.793 5.49121C155.339 5.49121 155.886 5.59291 156.432 5.74545C156.979 5.89799 157.475 6.15223 157.873 6.40646L157.426 7.27087C156.979 7.01663 156.531 6.81324 156.084 6.71155Z" fill="white"/>
</svg>
