<svg width="218" height="29" viewBox="0 0 218 29" fill="none" xmlns="http://www.w3.org/2000/svg">
<path d="M0 22.706H10.9548V23.8273H0V22.706ZM0 13.6656H9.51694V14.7869H0V13.6656ZM0 5.11572H10.6809V6.23701H0V5.11572Z" fill="white"/>
<path d="M102.975 22.706H113.929V23.8273H102.975V22.706ZM102.975 13.6656H112.492V14.7869H102.975V13.6656ZM102.975 5.11572H113.655V6.23701H102.975V5.11572Z" fill="white"/>
<path d="M13.8992 5.11572H15.2001L20.8828 13.175L26.5656 5.11572H27.8665L21.5675 14.0861L28.3458 23.8273H27.0449L20.8828 15.1373L14.7208 23.8273H13.4199L20.1982 14.1561L13.8992 5.11572Z" fill="white"/>
<path d="M44.0925 6.72758C45.3249 7.77879 45.9412 9.32056 45.9412 11.2828C45.9412 13.3152 45.3249 14.8569 44.0925 15.9782C42.8601 17.0995 41.1485 17.5901 38.889 17.5901H33.5486V23.8273H32.4531V5.11572H38.889C41.08 5.11572 42.8601 5.67637 44.0925 6.72758ZM43.2709 15.1373C44.2979 14.2262 44.8457 12.9648 44.8457 11.2828C44.8457 9.67097 44.2979 8.40951 43.2709 7.49847C42.2439 6.6575 40.7376 6.16693 38.8206 6.16693H33.5486V16.3987H38.8206C40.7376 16.4688 42.2439 16.0483 43.2709 15.1373Z" fill="white"/>
<path d="M49.7754 5.11572H50.8709V22.706H59.0185V23.8273H49.7754V5.11572Z" fill="white"/>
<path d="M119.201 0H120.023V28.9433H119.201V0Z" fill="white"/>
<path d="M122.352 0H123.173V28.9433H122.352V0Z" fill="white"/>
<path d="M75.1082 6.30705C76.5461 7.14802 77.71 8.26931 78.5316 9.741C79.3532 11.2127 79.764 12.7545 79.764 14.4364C79.764 16.1183 79.3532 17.7302 78.5316 19.2019C77.71 20.6736 76.5461 21.7949 75.1082 22.6359C73.6704 23.4768 72.0957 23.8973 70.384 23.8973C68.6723 23.8973 67.0976 23.4768 65.6598 22.6359C64.222 21.7949 63.058 20.6035 62.2364 19.2019C61.3464 17.7302 60.9355 16.1183 60.9355 14.4364C60.9355 12.7545 61.3464 11.1426 62.168 9.741C62.9896 8.26931 64.1535 7.14802 65.5913 6.30705C67.0291 5.46608 68.6039 5.04559 70.3155 5.04559C72.0957 4.97551 73.6704 5.396 75.1082 6.30705ZM66.2075 7.2181C64.9066 7.98898 63.9481 8.97011 63.195 10.2316C62.4418 11.493 62.0995 12.8946 62.0995 14.4364C62.0995 15.9782 62.4418 17.3798 63.195 18.6413C63.9481 19.9027 64.9751 20.9539 66.2075 21.7248C67.5084 22.4957 68.8777 22.8461 70.384 22.8461C71.8903 22.8461 73.2596 22.4957 74.5605 21.7248C75.8614 20.9539 76.8199 19.9728 77.5731 18.6413C78.3262 17.3798 78.6685 15.9782 78.6685 14.4364C78.6685 12.8946 78.3262 11.5631 77.5731 10.2316C76.8199 8.97011 75.7929 7.9189 74.5605 7.2181C73.3281 6.51729 71.8903 6.09681 70.384 6.09681C68.8777 6.09681 67.5084 6.44721 66.2075 7.2181Z" fill="white"/>
<path d="M96.4705 23.8273L92.157 17.52C91.7462 17.5901 91.1985 17.6602 90.6508 17.6602H85.3103V23.8273H84.2148V5.11572H90.6508C92.9102 5.11572 94.6903 5.67637 95.8543 6.72758C97.0867 7.77879 97.7029 9.32056 97.7029 11.2828C97.7029 12.8947 97.2921 14.1561 96.5389 15.2073C95.7858 16.2586 94.6903 16.9594 93.1841 17.3098L97.7714 23.8273H96.4705ZM90.6508 16.4688C92.5678 16.4688 94.0057 16.0483 95.1011 15.1373C96.1281 14.2262 96.6759 12.9648 96.6759 11.2828C96.6759 9.67097 96.1281 8.40951 95.1011 7.49847C94.0741 6.6575 92.5678 6.16693 90.6508 6.16693H85.2419V16.3987H90.6508V16.4688Z" fill="white"/>
<path d="M71.0004 13.7359C71.2058 13.9461 71.2743 14.1564 71.2743 14.4367C71.2743 14.717 71.2058 14.9273 71.0004 15.1375C70.795 15.3477 70.5896 15.4178 70.3842 15.4178C70.1103 15.4178 69.9049 15.3477 69.768 15.1375C69.5626 14.9273 69.4941 14.717 69.4941 14.4367C69.4941 14.1564 69.5626 13.9461 69.768 13.7359C69.9734 13.5256 70.1788 13.4556 70.3842 13.4556C70.6581 13.5256 70.8635 13.5957 71.0004 13.7359Z" fill="white"/>
<path d="M129.473 7.78027H130.842V21.7964H129.473V7.78027Z" fill="white"/>
<path d="M145.016 7.7793H146.317V21.7954H144.879L136.389 9.9518V21.7954H135.02V7.7793H136.457L145.016 19.6229V7.7793Z" fill="white"/>
<path d="M156.449 9.25078C155.764 9.04054 155.148 8.97046 154.6 8.97046C153.642 8.97046 152.888 9.1807 152.341 9.53111C151.793 9.88151 151.519 10.4422 151.519 11.0729C151.519 11.6335 151.656 12.1241 151.998 12.4745C152.341 12.8249 152.683 13.1052 153.162 13.3155C153.642 13.5257 154.258 13.7359 155.011 14.0163C155.969 14.2966 156.654 14.5769 157.27 14.8572C157.887 15.1376 158.297 15.558 158.708 16.0486C159.119 16.5392 159.324 17.24 159.324 18.0809C159.324 18.8518 159.119 19.4826 158.708 20.0432C158.297 20.6039 157.75 21.0944 156.996 21.3747C156.243 21.6551 155.422 21.8653 154.463 21.8653C153.505 21.8653 152.615 21.6551 151.656 21.3047C150.766 20.8842 149.944 20.3936 149.328 19.7629L149.944 18.6416C150.561 19.2723 151.245 19.7629 152.067 20.1133C152.888 20.4637 153.642 20.6039 154.463 20.6039C155.49 20.6039 156.312 20.3936 156.928 19.9731C157.544 19.5526 157.818 18.9219 157.818 18.2211C157.818 17.6605 157.681 17.1699 157.339 16.7494C156.996 16.3289 156.654 16.1187 156.175 15.9084C155.696 15.6982 155.079 15.488 154.258 15.2076C153.299 14.9273 152.615 14.647 151.998 14.3667C151.451 14.0864 150.971 13.7359 150.561 13.1753C150.15 12.6847 149.944 11.9839 149.944 11.143C149.944 10.4422 150.15 9.81143 150.561 9.25078C150.971 8.69014 151.519 8.33973 152.204 7.98933C152.888 7.70901 153.71 7.56885 154.669 7.56885C155.422 7.56885 156.175 7.70901 156.928 7.91925C157.681 8.12949 158.366 8.4799 158.914 8.8303L158.297 10.0217C157.681 9.67127 157.065 9.39095 156.449 9.25078Z" fill="white"/>
<path d="M162.543 7.7793H163.912V21.7954H162.543V7.7793Z" fill="white"/>
<path d="M177.81 14.9273H178.974V20.0432C178.289 20.6039 177.536 21.0944 176.646 21.3747C175.756 21.7251 174.866 21.8653 173.976 21.8653C172.675 21.8653 171.511 21.5149 170.416 20.8842C169.32 20.2535 168.43 19.3424 167.814 18.2912C167.198 17.1699 166.855 15.9785 166.855 14.7171C166.855 13.4556 167.198 12.2643 167.814 11.143C168.43 10.0918 169.32 9.1807 170.416 8.54998C171.511 7.91925 172.744 7.56885 174.044 7.56885C175.003 7.56885 175.893 7.70901 176.715 8.05941C177.605 8.40982 178.358 8.8303 179.043 9.46103L178.289 10.4422C177.742 9.88151 177.057 9.53111 176.372 9.1807C175.619 8.90038 174.866 8.76022 174.113 8.76022C173.086 8.76022 172.059 9.04054 171.169 9.53111C170.279 10.0918 169.594 10.7926 169.046 11.6335C168.499 12.5446 168.293 13.5257 168.293 14.5769C168.293 15.6281 168.567 16.6793 169.046 17.5203C169.594 18.4314 170.279 19.1322 171.169 19.6928C172.059 20.2535 173.017 20.4637 174.113 20.4637C174.798 20.4637 175.414 20.3235 176.03 20.1133C176.646 19.903 177.262 19.5526 177.81 19.2022V14.9273Z" fill="white"/>
<path d="M183.014 7.7793H184.383V14.1566H192.941V7.7793H194.311V21.7954H192.941V15.4181H184.383V21.7954H183.014V7.7793Z" fill="white"/>
<path d="M196.57 7.7793H206.977V9.04075H202.458V21.7954H201.089V9.04075H196.57V7.7793V7.7793Z" fill="white"/>
<path d="M215.125 9.25078C214.44 9.04054 213.824 8.97046 213.276 8.97046C212.317 8.97046 211.564 9.1807 211.016 9.53111C210.469 9.88151 210.195 10.4422 210.195 11.0729C210.195 11.6335 210.332 12.1241 210.674 12.4745C211.016 12.8249 211.359 13.1052 211.838 13.3155C212.317 13.5257 212.934 13.7359 213.687 14.0163C214.645 14.2966 215.33 14.5769 215.946 14.8572C216.494 15.1376 216.973 15.558 217.384 16.0486C217.795 16.5392 218 17.24 218 18.0809C218 18.8518 217.795 19.4826 217.384 20.0432C216.973 20.6039 216.425 21.0944 215.672 21.3747C214.919 21.6551 214.097 21.8653 213.139 21.8653C212.18 21.8653 211.29 21.6551 210.332 21.3047C209.373 20.9543 208.62 20.3936 208.004 19.7629L208.62 18.6416C209.236 19.2723 209.921 19.7629 210.743 20.1133C211.564 20.4637 212.317 20.6039 213.139 20.6039C214.166 20.6039 214.988 20.3936 215.604 19.9731C216.22 19.5526 216.494 18.9219 216.494 18.2211C216.494 17.6605 216.357 17.1699 216.015 16.7494C215.672 16.399 215.33 16.1187 214.851 15.9084C214.371 15.6982 213.755 15.488 212.934 15.2076C211.975 14.9273 211.29 14.647 210.674 14.3667C210.126 14.0864 209.647 13.7359 209.236 13.1753C208.826 12.6847 208.62 11.9839 208.62 11.143C208.62 10.4422 208.826 9.81143 209.236 9.25078C209.647 8.69014 210.195 8.33973 210.88 7.98933C211.564 7.70901 212.386 7.56885 213.344 7.56885C214.098 7.56885 214.851 7.70901 215.604 7.91925C216.357 8.12949 217.042 8.4799 217.589 8.8303L216.973 10.0217C216.357 9.67127 215.741 9.39095 215.125 9.25078Z" fill="white"/>
</svg>
